<?xml version="1.0" encoding="UTF-8"?>
<svg width="52px" height="52px" viewBox="0 0 52 52" version="1.1" xmlns="http://www.w3.org/2000/svg" xmlns:xlink="http://www.w3.org/1999/xlink">
    <!-- Generator: Sketch 52.5 (67469) - http://www.bohemiancoding.com/sketch -->
    <title>pictograms/untitled/</title>
    <desc>Created with Sketch.</desc>
    <g id="Page-1" stroke="none" stroke-width="1" fill="none" fill-rule="evenodd">
        <g id="Design-Thinking-Child-page" transform="translate(-193.000000, -1986.000000)" fill="#252525">
            <g id="pictograms/untitled/" transform="translate(192.000000, 1985.000000)">
                <path d="M49.548375,19.6671406 C51.6319375,21.7291719 52.7780625,24.3659219 52.7780625,27.0937656 C52.7780625,29.8216094 51.6302813,32.4600156 49.548375,34.5203906 C47.3786875,36.6668906 44.3460937,37.7517344 41.3814062,37.7517344 C38.6204375,37.7517344 35.9190937,36.8126406 34.019375,34.9145781 L19.4543125,20.3495156 C16.0142813,16.9094844 9.55325,17.0734531 5.89625,20.6907031 C4.087625,22.4811094 3.0905625,24.7617656 3.0905625,27.1152969 C3.0905625,29.4671719 4.087625,31.7494844 5.89625,33.5382344 C9.54165625,37.1455469 16.0026875,37.2929531 19.451,33.8429844 L22.2914687,31.0025156 L17.278,31.0025156 L17.278,29.8116719 L24.49925,29.8116719 L24.49925,37.0312656 L23.3050937,37.0312656 L23.3050937,32.0194531 L20.4662812,34.8566094 C18.5317812,36.7911094 15.7824062,37.7500781 12.9866563,37.7500781 C10.0352188,37.7500781 7.0324375,36.6801406 4.8859375,34.5584844 C2.80403125,32.4981094 1.65625,29.8547344 1.65625,27.1152969 C1.65625,24.3758594 2.802375,21.7324844 4.8859375,19.6704531 C9.07459375,15.5281719 16.502875,15.3675156 20.4695938,19.3342344 L35.0346562,33.8992969 C38.444875,37.3078594 44.8810625,37.1207031 48.5397188,33.5017969 C50.3466875,31.7113906 51.34375,29.4357031 51.34375,27.0937656 C51.34375,24.7518281 50.3466875,22.4761406 48.5397188,20.6857344 C44.884375,17.0701406 38.4134063,16.9127969 34.9700625,20.3577969 L31.0364688,24.2913906 C30.8956875,24.4305156 30.7118437,24.5000781 30.5296562,24.5000781 C30.3458125,24.5000781 30.1619687,24.4305156 30.0211875,24.2913906 C29.7412813,24.0114844 29.7412813,23.5560156 30.0211875,23.2761094 L33.9547812,19.3425156 C37.928125,15.3708281 45.3597187,15.5215469 49.548375,19.6671406 Z M2.37340625,2.84825312 L2.37340625,1.65575312 L52.0609062,1.65575312 L52.0609062,2.84825312 L2.37340625,2.84825312 Z M2.37340625,9.47325312 L2.37340625,8.28075312 L27.2155,8.28075312 L27.2155,9.47325312 L2.37340625,9.47325312 Z M2.37340625,52.5357531 L2.37340625,51.3432531 L52.0609062,51.3432531 L52.0609062,52.5357531 L2.37340625,52.5357531 Z M27.2155,45.9107531 L27.2155,44.7182531 L52.05925,44.7182531 L52.05925,45.9107531 L27.2155,45.9107531 Z" id="Fill-6"></path>
            </g>
        </g>
    </g>
</svg>