<?xml version="1.0" encoding="UTF-8"?>
<svg width="304px" height="152px" viewBox="0 0 304 152" version="1.1" xmlns="http://www.w3.org/2000/svg" xmlns:xlink="http://www.w3.org/1999/xlink">
    <title>eee</title>
    <g id="eee" stroke="none" stroke-width="1" fill="none" fill-rule="evenodd">
        <rect fill="#FFFFFF" x="0" y="0" width="304" height="152"></rect>
        <g id="Group-68" transform="translate(122.000000, -6.047852)">
            <path d="M95.1362434,100.889942 C95.1362434,125.059511 75.5431403,144.652614 51.3735714,144.652614 C27.2040026,144.652614 7.61089947,125.059511 7.61089947,100.889942 C7.61089947,76.7203733 27.2040026,57.1272702 51.3735714,57.1272702 C75.5431403,57.1272702 95.1362434,76.7203733 95.1362434,100.889942" id="Fill-1" fill="#FFFFFF"></path>
            <path d="M95.1362434,100.889942 C95.1362434,125.059511 75.5431403,144.652614 51.3735714,144.652614 C27.2040026,144.652614 7.61089947,125.059511 7.61089947,100.889942 C7.61089947,76.7203733 27.2040026,57.1272702 51.3735714,57.1272702 C75.5431403,57.1272702 95.1362434,76.7203733 95.1362434,100.889942 Z" id="Stroke-3" stroke="#3C3838" stroke-width="0.72" stroke-linejoin="round"></path>
            <path d="M77.0603571,123.246959 C77.0603571,129.289348 81.958479,134.187627 88.001378,134.187627 C94.0435713,134.187627 98.9416931,129.289348 98.9416931,123.246959 C98.9416931,117.204571 94.0435713,112.306291 88.001378,112.306291 C81.958479,112.306291 77.0603571,117.204571 77.0603571,123.246959" id="Fill-5" fill="#F4F4F4"></path>
            <path d="M77.0603571,123.246959 C77.0603571,129.289348 81.958479,134.187627 88.001378,134.187627 C94.0435713,134.187627 98.9416931,129.289348 98.9416931,123.246959 C98.9416931,117.204571 94.0435713,112.306291 88.001378,112.306291 C81.958479,112.306291 77.0603571,117.204571 77.0603571,123.246959 Z" id="Stroke-7" stroke="#3C3838" stroke-width="0.72" stroke-linejoin="round"></path>
            <polygon id="Fill-9" fill="#F7F3F2" points="77.0603571 134.187627 77.0603571 112.306291 98.9416931 112.306291 98.9416931 121.096063 98.9416931 134.187627"></polygon>
            <polygon id="Stroke-11" stroke="#3C3838" stroke-width="0.72" stroke-linejoin="round" points="77.0603571 134.187627 77.0603571 112.306291 98.9416931 112.306291 98.9416931 121.096063 98.9416931 134.187627"></polygon>
            <polygon id="Fill-13" fill="#F7F3F2" points="96.0876058 115.160379 102.747143 115.160379 102.747143 108.500842 96.0876058 108.500842"></polygon>
            <polygon id="Fill-15" fill="#F7F3F2" points="96.0876058 137.041715 102.747143 137.041715 102.747143 130.382178 96.0876058 130.382178"></polygon>
            <polygon id="Fill-16" fill="#F7F3F2" points="74.2062698 115.160379 80.8658069 115.160379 80.8658069 108.500842 74.2062698 108.500842"></polygon>
            <polygon id="Fill-17" fill="#F7F3F2" points="74.2062698 137.041715 80.8658069 137.041715 80.8658069 130.382178 74.2062698 130.382178"></polygon>
            <polygon id="Fill-18" fill="#3C3838" points="83.7198942 127.52809 92.2821561 127.52809 92.2821561 118.965828 83.7198942 118.965828"></polygon>
            <polygon id="Stroke-19" stroke="#3C3838" stroke-width="0.72" stroke-linejoin="round" points="83.7198942 127.52809 92.2821561 127.52809 92.2821561 118.965828 83.7198942 118.965828"></polygon>
            <path d="M23.2680017,116.826039 C20.2470595,111.594187 13.5573768,109.80178 8.32559322,112.822056 C3.09310402,115.843038 1.30072067,122.532809 4.32166285,127.765367 C7.34189936,132.99722 14.0322878,134.789627 19.2640713,131.768645 C24.4958548,128.748369 26.2889439,122.057892 23.2680017,116.826039" id="Fill-20" fill="#F4F4F4"></path>
            <path d="M23.2680017,116.826039 C20.2470595,111.594187 13.5573768,109.80178 8.32559322,112.822056 C3.09310402,115.843038 1.30072067,122.532809 4.32166285,127.765367 C7.34189936,132.99722 14.0322878,134.789627 19.2640713,131.768645 C24.4958548,128.748369 26.2889439,122.057892 23.2680017,116.826039 Z" id="Stroke-21" stroke="#3C3838" stroke-width="0.72" stroke-linejoin="round"></path>
            <path d="M50.8978902,133.236265 C44.8555021,133.236265 39.9572222,138.134387 39.9572222,144.177286 C39.9572222,150.219479 44.8555021,155.117601 50.8978902,155.117601 C56.9402784,155.117601 61.8385582,150.219479 61.8385582,144.177286 C61.8385582,138.134387 56.9402784,133.236265 50.8978902,133.236265" id="Fill-22" fill="#F4F4F4"></path>
            <path d="M50.8978902,133.236265 C44.8555021,133.236265 39.9572222,138.134387 39.9572222,144.177286 C39.9572222,150.219479 44.8555021,155.117601 50.8978902,155.117601 C56.9402784,155.117601 61.8385582,150.219479 61.8385582,144.177286 C61.8385582,138.134387 56.9402784,133.236265 50.8978902,133.236265 Z" id="Stroke-23" stroke="#3C3838" stroke-width="0.72" stroke-linejoin="round"></path>
            <path d="M77.0603571,123.246959 C77.0603571,129.289348 81.958479,134.187627 88.001378,134.187627 C94.0435713,134.187627 98.9416931,129.289348 98.9416931,123.246959 C98.9416931,117.204571 94.0435713,112.306291 88.001378,112.306291 C81.958479,112.306291 77.0603571,117.204571 77.0603571,123.246959" id="Fill-24" fill="#F4F4F4"></path>
            <path d="M77.0603571,123.246959 C77.0603571,129.289348 81.958479,134.187627 88.001378,134.187627 C94.0435713,134.187627 98.9416931,129.289348 98.9416931,123.246959 C98.9416931,117.204571 94.0435713,112.306291 88.001378,112.306291 C81.958479,112.306291 77.0603571,117.204571 77.0603571,123.246959 Z" id="Stroke-25" stroke="#3C3838" stroke-width="0.72" stroke-linejoin="round"></path>
            <polygon id="Fill-26" fill="#FFFFFF" points="77.0603571 134.187627 77.0603571 112.306291 98.9416931 112.306291 98.9416931 121.096063 98.9416931 134.187627"></polygon>
            <polygon id="Stroke-27" stroke="#3C3838" stroke-width="0.72" stroke-linejoin="round" points="77.0603571 134.187627 77.0603571 112.306291 98.9416931 112.306291 98.9416931 121.096063 98.9416931 134.187627"></polygon>
            <polygon id="Fill-28" fill="#FFFFFF" points="96.0876058 115.160379 102.747143 115.160379 102.747143 108.500842 96.0876058 108.500842"></polygon>
            <polygon id="Fill-29" fill="#FFFFFF" points="96.0876058 137.041715 102.747143 137.041715 102.747143 130.382178 96.0876058 130.382178"></polygon>
            <polygon id="Fill-30" fill="#FFFFFF" points="74.2062698 115.160379 80.8658069 115.160379 80.8658069 108.500842 74.2062698 108.500842"></polygon>
            <polygon id="Fill-31" fill="#FFFFFF" points="74.2062698 137.041715 80.8658069 137.041715 80.8658069 130.382178 74.2062698 130.382178"></polygon>
            <polygon id="Fill-32" fill="#3C3838" points="83.7198942 127.52809 92.2821561 127.52809 92.2821561 118.965828 83.7198942 118.965828"></polygon>
            <polygon id="Stroke-33" stroke="#3C3838" stroke-width="0.72" stroke-linejoin="round" points="83.7198942 127.52809 92.2821561 127.52809 92.2821561 118.965828 83.7198942 118.965828"></polygon>
            <g id="Group-36" transform="translate(51.373571, 58.078633)">
                <line x1="26.6381481" y1="54.2276587" x2="0" y2="0" id="Fill-34" fill="#3C3838"></line>
                <line x1="26.6381481" y1="54.2276587" x2="0" y2="0" id="Stroke-35" stroke="#3C3838" stroke-width="0.72"></line>
            </g>
            <path d="M50.8978902,68.5436194 C56.9402784,68.5436194 61.8385582,63.6454976 61.8385582,57.6025985 C61.8385582,51.5604053 56.9402784,46.6622834 50.8978902,46.6622834 C44.8555021,46.6622834 39.9572222,51.5604053 39.9572222,57.6025985 C39.9572222,63.6454976 44.8555021,68.5436194 50.8978902,68.5436194" id="Fill-37" fill="#F4F4F4"></path>
            <path d="M50.8978902,68.5436194 C56.9402784,68.5436194 61.8385582,63.6454976 61.8385582,57.6025985 C61.8385582,51.5604053 56.9402784,46.6622834 50.8978902,46.6622834 C44.8555021,46.6622834 39.9572222,51.5604053 39.9572222,57.6025985 C39.9572222,63.6454976 44.8555021,68.5436194 50.8978902,68.5436194 Z" id="Stroke-38" stroke="#3C3838" stroke-width="0.72" stroke-linejoin="round"></path>
            <path d="M2.8540873,79.4842874 C2.8540873,85.5266756 7.75220915,90.4249554 13.7951082,90.4249554 C19.8373014,90.4249554 24.7354233,85.5266756 24.7354233,79.4842874 C24.7354233,73.4418993 19.8373014,68.5436194 13.7951082,68.5436194 C7.75220915,68.5436194 2.8540873,73.4418993 2.8540873,79.4842874" id="Fill-39" fill="#F4F4F4"></path>
            <path d="M2.8540873,79.4842874 C2.8540873,85.5266756 7.75220915,90.4249554 13.7951082,90.4249554 C19.8373014,90.4249554 24.7354233,85.5266756 24.7354233,79.4842874 C24.7354233,73.4418993 19.8373014,68.5436194 13.7951082,68.5436194 C7.75220915,68.5436194 2.8540873,73.4418993 2.8540873,79.4842874 Z" id="Stroke-40" stroke="#3C3838" stroke-width="0.72" stroke-linejoin="round"></path>
            <polygon id="Fill-41" fill="#FFFFFF" points="2.8540873 90.4249554 2.8540873 68.5436194 24.7354233 68.5436194 24.7354233 77.3333909 24.7354233 90.4249554"></polygon>
            <polygon id="Stroke-42" stroke="#3C3838" stroke-width="0.72" stroke-linejoin="round" points="2.8540873 90.4249554 2.8540873 68.5436194 24.7354233 68.5436194 24.7354233 77.3333909 24.7354233 90.4249554"></polygon>
            <polygon id="Fill-43" fill="#FFFFFF" points="21.881336 71.3977067 28.540873 71.3977067 28.540873 64.7381697 21.881336 64.7381697"></polygon>
            <polygon id="Fill-44" fill="#FFFFFF" points="21.881336 93.2790427 28.540873 93.2790427 28.540873 86.6195057 21.881336 86.6195057"></polygon>
            <polygon id="Fill-45" fill="#FFFFFF" points="0 71.3977067 0 64.7381697 6.65953704 64.7381697 6.65953704 71.3977067"></polygon>
            <polygon id="Fill-46" fill="#FFFFFF" points="0 93.2790427 0 86.6195057 6.65953704 86.6195057 6.65953704 93.2790427"></polygon>
            <polygon id="Fill-47" fill="#3C3838" points="9.51362434 83.7654184 18.0758862 83.7654184 18.0758862 75.2031565 9.51362434 75.2031565"></polygon>
            <polygon id="Stroke-48" stroke="#3C3838" stroke-width="0.72" stroke-linejoin="round" points="9.51362434 83.7654184 18.0758862 83.7654184 18.0758862 75.2031565 9.51362434 75.2031565"></polygon>
            <g id="Group-60" transform="translate(65.644008, 0.000000)">
                <path d="M49.3473463,35.8573482 L40.003972,30.5048546 L14.8068034,73.808183 C13.3173913,76.3684325 14.2009882,79.6419785 16.7812866,81.119818 L16.7812866,81.119818 C19.3615849,82.5976575 22.6607655,81.7209261 24.1501776,79.1606765 L49.3473463,35.8573482 Z" id="Stroke-49" stroke="#3C3838" stroke-width="0.72" stroke-linejoin="round"></path>
                <path d="M60.919674,37.3772237 L51.5762997,32.0247301 L28.1840139,72.2262576 C26.6946017,74.7865071 27.5781986,78.0600532 30.158497,79.5378926 L30.158497,79.5378926 C32.7387954,81.0157321 36.0379759,80.1390007 37.5273881,77.5787512 L60.919674,37.3772237 Z" id="Stroke-50" stroke="#3C3838" stroke-width="0.72" stroke-linejoin="round"></path>
                <path d="M50.3726258,77.2106071 L61.0790843,58.7888602 C63.3809031,54.8283335 67.6383606,52.38789 72.2454879,52.38789 L72.2461858,52.38789 C79.365213,52.38789 85.1365107,58.1143449 85.1365107,65.1780575 L85.1365107,74.8712717" id="Stroke-51" stroke="#3C3838" stroke-width="0.72" stroke-linejoin="round"></path>
                <path d="M60.702753,37.7434287 L40.6619935,72.2261191 C39.1718834,74.7863686 40.0561782,78.0599147 42.6364766,79.5377541 L42.6364766,79.5377541 C45.2160771,81.0155936 48.5152576,80.1388622 50.0053677,77.5786127" id="Stroke-52" stroke="#3C3838" stroke-width="0.72" stroke-linejoin="round"></path>
                <g id="Group-55">
                    <path d="M113.417453,0 L39.4086259,19.254715 C33.3839747,20.8579008 28.2464101,24.768566 25.1252052,30.1279848 L0.492673144,72.4271579 C-0.5395858,74.2000112 0.104616367,76.468017 1.91717653,77.4458564 C6.4775416,79.9043054 12.1818366,78.3101224 14.7788857,73.8516733 L26.5615736,53.6515328 C31.4018142,45.3544406 40.3347974,40.2484844 49.996434,40.2574872 L71.2076454,40.2775703 C78.5618797,40.2844955 84.5446543,46.1570722 84.6305014,53.4541643 C84.709369,60.1847744 79.7190705,65.9181545 72.9964754,66.8212017 L41.0369289,71.0531965 C36.9902505,71.5400387 33.9465174,74.9479338 33.9465174,78.992948 C33.9465174,82.9022282 37.1403085,86.0712035 41.0802014,86.0712035 L111.309405,86.0712035" id="Fill-53" fill="#FFFFFF"></path>
                    <path d="M97.3037657,3.85097391 L39.4086259,19.254715 C33.3839747,20.8579008 28.2464101,24.768566 25.1252052,30.1279848 L0.492673144,72.4271579 C-0.5395858,74.2000112 0.104616367,76.468017 1.91717653,77.4458564 C6.4775416,79.9043054 12.1818366,78.3101224 14.7788857,73.8516733 L26.5615736,53.6515328 C31.4018142,45.3544406 40.3347974,40.2484844 49.996434,40.2574872 L71.2076454,40.2775703 C78.5618797,40.2844955 84.5446543,46.1570722 84.6305014,53.4541643 C84.709369,60.1847744 79.7190705,65.9181545 72.9964754,66.8212017 L41.0369289,71.0531965 C36.9902505,71.5400387 33.9465174,74.9479338 33.9465174,78.992948 C33.9465174,82.9022282 37.1403085,86.0712035 41.0802014,86.0712035 L119.309405,86.0712035" id="Stroke-54" stroke="#3C3838" stroke-width="0.72" stroke-linejoin="round"></path>
                </g>
                <path d="M52.8790119,78.9886544 L52.8790119,78.9886544 C52.8790119,75.9976568 50.4355105,73.5724489 47.4203931,73.5724489 L41.1060952,73.5724489 C38.0909778,73.5724489 35.6474764,75.9976568 35.6474764,78.9886544 L35.6474764,78.9886544 C35.6474764,81.9796519 38.0909778,84.4048599 41.1060952,84.4048599 L47.4203931,84.4048599 C50.4355105,84.4048599 52.8790119,81.9796519 52.8790119,78.9886544" id="Fill-56" fill="#FFFFFF"></path>
                <path d="M52.8790119,78.9886544 L52.8790119,78.9886544 C52.8790119,75.9976568 50.4355105,73.5724489 47.4203931,73.5724489 L41.1060952,73.5724489 C38.0909778,73.5724489 35.6474764,75.9976568 35.6474764,78.9886544 L35.6474764,78.9886544 C35.6474764,81.9796519 38.0909778,84.4048599 41.1060952,84.4048599 L47.4203931,84.4048599 C50.4355105,84.4048599 52.8790119,81.9796519 52.8790119,78.9886544 Z" id="Stroke-57" stroke="#3C3838" stroke-width="0.72" stroke-linejoin="round"></path>
                <path d="M13.8542497,84.1044443 C16.8421473,89.2387939 23.4586549,90.9977968 28.6332105,88.0338076 C33.8084641,85.0691259 35.5812415,78.5040283 32.5933439,73.3689862 C29.6061443,68.2346367 22.9889387,66.4756338 17.814383,69.4403155 C12.6398274,72.4043047 10.8663521,78.9700948 13.8542497,84.1044443" id="Fill-58" fill="#DEFBE6"></path>
                <path d="M13.8542497,84.1044443 C16.8421473,89.2387939 23.4586549,90.9977968 28.6332105,88.0338076 C33.8084641,85.0691259 35.5812415,78.5040283 32.5933439,73.3689862 C29.6061443,68.2346367 22.9889387,66.4756338 17.814383,69.4403155 C12.6398274,72.4043047 10.8663521,78.9700948 13.8542497,84.1044443 Z" id="Stroke-59" stroke="#3C3838" stroke-width="0.72" stroke-linejoin="round"></path>
            </g>
            <path d="M95.1362434,79.4525282 L95.1362434,85.6681432 L88.9209585,85.6681432 C84.9976748,85.6681432 81.8171693,82.4881763 81.8171693,78.5646842 L81.8171693,72.3490692 L88.0331617,72.3490692 C91.9557379,72.3490692 95.1362434,75.5290361 95.1362434,79.4525282" id="Fill-61" fill="#DEFBE6"></path>
            <path d="M95.1362434,79.4525282 L95.1362434,85.6681432 L88.9209585,85.6681432 C84.9976748,85.6681432 81.8171693,82.4881763 81.8171693,78.5646842 L81.8171693,72.3490692 L88.0331617,72.3490692 C91.9557379,72.3490692 95.1362434,75.5290361 95.1362434,79.4525282 Z" id="Stroke-62" stroke="#3C3838" stroke-width="0.72" stroke-linejoin="round"></path>
            <line x1="95.1362434" y1="85.6681432" x2="81.8171693" y2="72.3490692" id="Stroke-63" stroke="#3C3838" stroke-width="0.72" stroke-linejoin="round"></line>
            <line x1="82.7685317" y1="82.3383747" x2="91.3307937" y2="82.3383747" id="Stroke-64" stroke="#3C3838" stroke-width="0.72" stroke-linejoin="round"></line>
            <line x1="91.8064749" y1="73.3004316" x2="91.8064749" y2="81.8626935" id="Stroke-65" stroke="#3C3838" stroke-width="0.72" stroke-linejoin="round"></line>
            <line x1="81.8171693" y1="77.5815625" x2="87.5253439" y2="77.5815625" id="Stroke-66" stroke="#3C3838" stroke-width="0.72" stroke-linejoin="round"></line>
            <line x1="87.0496627" y1="72.3490692" x2="87.0496627" y2="78.0572438" id="Stroke-67" stroke="#3C3838" stroke-width="0.72" stroke-linejoin="round"></line>
        </g>
    </g>
</svg>