<?xml version="1.0" encoding="UTF-8"?>
<svg width="304px" height="152px" viewBox="0 0 304 152" version="1.1" xmlns="http://www.w3.org/2000/svg" xmlns:xlink="http://www.w3.org/1999/xlink">
    <title>products</title>
    <g id="products" stroke="none" stroke-width="1" fill="none" fill-rule="evenodd">
        <rect fill="#FFFFFF" x="0" y="0" width="304" height="152"></rect>
        <g id="Group-110" transform="translate(82.000000, 14.000000)">
            <line x1="27" y1="44.5" x2="103" y2="44.5" id="Stroke-1" stroke="#393939" stroke-width="0.72" stroke-linecap="round" stroke-linejoin="round"></line>
            <line x1="64.5" y1="6" x2="64.5" y2="82" id="Stroke-2" stroke="#393939" stroke-width="0.72" stroke-linecap="round" stroke-linejoin="round"></line>
            <line x1="38" y1="17" x2="92" y2="71" id="Stroke-3" stroke="#393939" stroke-width="0.72" stroke-linecap="round" stroke-linejoin="round"></line>
            <line x1="92" y1="17" x2="38" y2="71" id="Stroke-4" stroke="#393939" stroke-width="0.72" stroke-linecap="round" stroke-linejoin="round"></line>
            <line x1="30" y1="31" x2="101" y2="59" id="Stroke-5" stroke="#393939" stroke-width="0.72" stroke-linecap="round" stroke-linejoin="round"></line>
            <line x1="79" y1="10" x2="51" y2="81" id="Stroke-6" stroke="#393939" stroke-width="0.72" stroke-linecap="round" stroke-linejoin="round"></line>
            <line x1="50" y1="10" x2="80" y2="80" id="Stroke-7" stroke="#393939" stroke-width="0.72" stroke-linecap="round" stroke-linejoin="round"></line>
            <line x1="100" y1="30" x2="30" y2="60" id="Stroke-8" stroke="#393939" stroke-width="0.72" stroke-linecap="round" stroke-linejoin="round"></line>
            <g id="Group-109">
                <path d="M71.9210399,45.039426 C71.9210399,48.737794 68.915569,51.7358532 65.2080583,51.7358532 C61.5014284,51.7358532 58.4959576,48.737794 58.4959576,45.039426 C58.4959576,41.3410581 61.5014284,38.3429988 65.2080583,38.3429988 C68.915569,38.3429988 71.9210399,41.3410581 71.9210399,45.039426" id="Fill-9" fill="#3C3838"></path>
                <path d="M71.9210399,45.039426 C71.9210399,48.737794 68.915569,51.7358532 65.2080583,51.7358532 C61.5014284,51.7358532 58.4959576,48.737794 58.4959576,45.039426 C58.4959576,41.3410581 61.5014284,38.3429988 65.2080583,38.3429988 C68.915569,38.3429988 71.9210399,41.3410581 71.9210399,45.039426 Z" id="Stroke-11" stroke="#393939" stroke-width="0.72" stroke-linecap="round"></path>
                <path d="M98.2716726,16.5387078 C98.2716726,19.0130732 96.2606849,21.0199804 93.7793217,21.0199804 C91.2988393,21.0199804 89.2878517,19.0130732 89.2878517,16.5387078 C89.2878517,14.0643424 91.2988393,12.0574352 93.7793217,12.0574352 C96.2606849,12.0574352 98.2716726,14.0643424 98.2716726,16.5387078" id="Fill-13" fill="#3C3838"></path>
                <path d="M98.2716726,16.5387078 C98.2716726,19.0130732 96.2606849,21.0199804 93.7793217,21.0199804 C91.2988393,21.0199804 89.2878517,19.0130732 89.2878517,16.5387078 C89.2878517,14.0643424 91.2988393,12.0574352 93.7793217,12.0574352 C96.2606849,12.0574352 98.2716726,14.0643424 98.2716726,16.5387078 Z" id="Stroke-15" stroke="#393939" stroke-width="0.72" stroke-linecap="round"></path>
                <path d="M110.009393,45.0468069 C110.009393,47.2725057 108.201001,49.0764376 105.9698,49.0764376 C103.738599,49.0764376 101.930208,47.2725057 101.930208,45.0468069 C101.930208,42.8211082 103.738599,41.0171763 105.9698,41.0171763 C108.201001,41.0171763 110.009393,42.8211082 110.009393,45.0468069" id="Fill-17" fill="#3C3838"></path>
                <path d="M110.009393,45.0468069 C110.009393,47.2725057 108.201001,49.0764376 105.9698,49.0764376 C103.738599,49.0764376 101.930208,47.2725057 101.930208,45.0468069 C101.930208,42.8211082 103.738599,41.0171763 105.9698,41.0171763 C108.201001,41.0171763 110.009393,42.8211082 110.009393,45.0468069 Z" id="Stroke-19" stroke="#393939" stroke-width="0.72" stroke-linecap="round"></path>
                <path d="M69.7004972,7.57686548 C69.7004972,10.0512309 67.6895096,12.0581381 65.2081464,12.0581381 C62.727664,12.0581381 60.7166764,10.0512309 60.7166764,7.57686548 C60.7166764,5.10250004 62.727664,3.09559284 65.2081464,3.09559284 C67.6895096,3.09559284 69.7004972,5.10250004 69.7004972,7.57686548" id="Fill-21" fill="#FFFFFF"></path>
                <path d="M69.7004972,7.57686548 C69.7004972,10.0512309 67.6895096,12.0581381 65.2081464,12.0581381 C62.727664,12.0581381 60.7166764,10.0512309 60.7166764,7.57686548 C60.7166764,5.10250004 62.727664,3.09559284 65.2081464,3.09559284 C67.6895096,3.09559284 69.7004972,5.10250004 69.7004972,7.57686548 Z" id="Stroke-23" stroke="#393939" stroke-width="0.72" stroke-linecap="round" stroke-linejoin="round"></path>
                <path d="M69.7004972,83.811309 C69.7004972,86.2856744 67.6895096,88.2925816 65.2081464,88.2925816 C62.727664,88.2925816 60.7166764,86.2856744 60.7166764,83.811309 C60.7166764,81.3369436 62.727664,79.3300364 65.2081464,79.3300364 C67.6895096,79.3300364 69.7004972,81.3369436 69.7004972,83.811309" id="Fill-25" fill="#FFFFFF"></path>
                <path d="M69.7004972,83.811309 C69.7004972,86.2856744 67.6895096,88.2925816 65.2081464,88.2925816 C62.727664,88.2925816 60.7166764,86.2856744 60.7166764,83.811309 C60.7166764,81.3369436 62.727664,79.3300364 65.2081464,79.3300364 C67.6895096,79.3300364 69.7004972,81.3369436 69.7004972,83.811309 Z" id="Stroke-27" stroke="#393939" stroke-width="0.72" stroke-linecap="round" stroke-linejoin="round"></path>
                <path d="M34.3871841,30.9206054 C34.3871841,33.3949709 32.3761965,35.4018781 29.8948333,35.4018781 C27.4143509,35.4018781 25.4033633,33.3949709 25.4033633,30.9206054 C25.4033633,28.44624 27.4143509,26.4393328 29.8948333,26.4393328 C32.3761965,26.4393328 34.3871841,28.44624 34.3871841,30.9206054" id="Fill-29" fill="#D6FBE3"></path>
                <path d="M34.3871841,30.9206054 C34.3871841,33.3949709 32.3761965,35.4018781 29.8948333,35.4018781 C27.4143509,35.4018781 25.4033633,33.3949709 25.4033633,30.9206054 C25.4033633,28.44624 27.4143509,26.4393328 29.8948333,26.4393328 C32.3761965,26.4393328 34.3871841,28.44624 34.3871841,30.9206054 Z" id="Stroke-31" stroke="#393939" stroke-width="0.72" stroke-linecap="round" stroke-linejoin="round"></path>
                <path d="M45.0866426,16.5387078 C45.0866426,20.7229863 41.6856688,24.1155733 37.4910462,24.1155733 C33.2955429,24.1155733 29.8954499,20.7229863 29.8954499,16.5387078 C29.8954499,12.3544293 33.2955429,8.96184233 37.4910462,8.96184233 C41.6856688,8.96184233 45.0866426,12.3544293 45.0866426,16.5387078" id="Fill-33" fill="#FFFFFF"></path>
                <path d="M45.0866426,16.5387078 C45.0866426,20.7229863 41.6856688,24.1155733 37.4910462,24.1155733 C33.2955429,24.1155733 29.8954499,20.7229863 29.8954499,16.5387078 C29.8954499,12.3544293 33.2955429,8.96184233 37.4910462,8.96184233 C41.6856688,8.96184233 45.0866426,12.3544293 45.0866426,16.5387078 Z" id="Stroke-35" stroke="#393939" stroke-width="0.72" stroke-linecap="round" stroke-linejoin="round" stroke-dasharray="3.869,3.869"></path>
                <path d="M87.8255474,7.57686548 C87.8255474,11.761144 84.4245736,15.153731 80.2299511,15.153731 C76.0344477,15.153731 72.6343547,11.761144 72.6343547,7.57686548 C72.6343547,3.39258699 76.0344477,0 80.2299511,0 C84.4245736,0 87.8255474,3.39258699 87.8255474,7.57686548" id="Fill-37" fill="#FFFFFF"></path>
                <path d="M87.8255474,7.57686548 C87.8255474,11.761144 84.4245736,15.153731 80.2299511,15.153731 C76.0344477,15.153731 72.6343547,11.761144 72.6343547,7.57686548 C72.6343547,3.39258699 76.0344477,0 80.2299511,0 C84.4245736,0 87.8255474,3.39258699 87.8255474,7.57686548 Z" id="Stroke-39" stroke="#393939" stroke-width="0.72" stroke-linecap="round" stroke-linejoin="round"></path>
                <path d="M98.7882048,70.6621128 C98.7882048,74.8463913 95.387231,78.2389783 91.1926085,78.2389783 C86.9971051,78.2389783 83.5970121,74.8463913 83.5970121,70.6621128 C83.5970121,66.4778343 86.9971051,63.0852473 91.1926085,63.0852473 C95.387231,63.0852473 98.7882048,66.4778343 98.7882048,70.6621128" id="Fill-41" fill="#FFFFFF"></path>
                <path d="M98.7882048,70.6621128 C98.7882048,74.8463913 95.387231,78.2389783 91.1926085,78.2389783 C86.9971051,78.2389783 83.5970121,74.8463913 83.5970121,70.6621128 C83.5970121,66.4778343 86.9971051,63.0852473 91.1926085,63.0852473 C95.387231,63.0852473 98.7882048,66.4778343 98.7882048,70.6621128 Z" id="Stroke-43" stroke="#393939" stroke-width="0.72" stroke-linecap="round" stroke-linejoin="round"></path>
                <path d="M41.5006015,59.5952146 C41.5006015,65.1783531 36.9633271,69.7044385 31.3663865,69.7044385 C25.768565,69.7044385 21.2312906,65.1783531 21.2312906,59.5952146 C21.2312906,54.0120761 25.768565,49.4859908 31.3663865,49.4859908 C36.9633271,49.4859908 41.5006015,54.0120761 41.5006015,59.5952146" id="Fill-45" fill="#FFFFFF"></path>
                <path d="M41.5006015,59.5951268 C41.5006015,65.1782653 36.9633271,69.7043506 31.3663865,69.7043506 C25.768565,69.7043506 21.2312906,65.1782653 21.2312906,59.5951268 C21.2312906,54.0119883 25.768565,49.4859029 31.3663865,49.4859029 C36.9633271,49.4859029 41.5006015,54.0119883 41.5006015,59.5951268 Z" id="Stroke-47" stroke="#393939" stroke-width="0.72" stroke-linecap="round" stroke-linejoin="round" stroke-dasharray="4.015,4.015"></path>
                <path d="M103.554325,59.1544683 C103.554325,60.391651 102.548391,61.3951046 101.308149,61.3951046 C100.067908,61.3951046 99.061974,60.391651 99.061974,59.1544683 C99.061974,57.9172856 100.067908,56.913832 101.308149,56.913832 C102.548391,56.913832 103.554325,57.9172856 103.554325,59.1544683" id="Fill-49" fill="#3C3838"></path>
                <path d="M103.554325,59.1544683 C103.554325,60.391651 102.548391,61.3951046 101.308149,61.3951046 C100.067908,61.3951046 99.061974,60.391651 99.061974,59.1544683 C99.061974,57.9172856 100.067908,56.913832 101.308149,56.913832 C102.548391,56.913832 103.554325,57.9172856 103.554325,59.1544683 Z" id="Stroke-51" stroke="#393939" stroke-width="0.72" stroke-linecap="round"></path>
                <path d="M56.3058044,82.7200752 C56.3058044,86.2594019 53.4289382,89.1291737 49.8808618,89.1291737 C46.3319047,89.1291737 43.4559193,86.2594019 43.4559193,82.7200752 C43.4559193,79.1807485 46.3319047,76.3109766 49.8808618,76.3109766 C53.4289382,76.3109766 56.3058044,79.1807485 56.3058044,82.7200752" id="Fill-53" fill="#D6FBE3"></path>
                <path d="M56.3058044,82.7200752 C56.3058044,86.2594019 53.4289382,89.1291737 49.8808618,89.1291737 C46.3319047,89.1291737 43.4559193,86.2594019 43.4559193,82.7200752 C43.4559193,79.1807485 46.3319047,76.3109766 49.8808618,76.3109766 C53.4289382,76.3109766 56.3058044,79.1807485 56.3058044,82.7200752 Z" id="Stroke-55" stroke="#393939" stroke-width="0.72" stroke-linecap="round" stroke-linejoin="round"></path>
                <path d="M83.5842397,80.4796146 C83.5842397,81.7167973 82.5783055,82.7202509 81.3380643,82.7202509 C80.0978231,82.7202509 79.0918889,81.7167973 79.0918889,80.4796146 C79.0918889,79.2424319 80.0978231,78.2389783 81.3380643,78.2389783 C82.5783055,78.2389783 83.5842397,79.2424319 83.5842397,80.4796146" id="Fill-57" fill="#3C3838"></path>
                <path d="M83.5842397,80.4796146 C83.5842397,81.7167973 82.5783055,82.7202509 81.3380643,82.7202509 C80.0978231,82.7202509 79.0918889,81.7167973 79.0918889,80.4796146 C79.0918889,79.2424319 80.0978231,78.2389783 81.3380643,78.2389783 C82.5783055,78.2389783 83.5842397,79.2424319 83.5842397,80.4796146 Z" id="Stroke-59" stroke="#393939" stroke-width="0.72" stroke-linecap="round"></path>
                <path d="M52.1266849,9.09206284 C52.1266849,10.3292456 51.1207507,11.3326992 49.8805095,11.3326992 C48.6402683,11.3326992 47.6343341,10.3292456 47.6343341,9.09206284 C47.6343341,7.85488012 48.6402683,6.85142652 49.8805095,6.85142652 C51.1207507,6.85142652 52.1266849,7.85488012 52.1266849,9.09206284" id="Fill-61" fill="#3C3838"></path>
                <path d="M52.1266849,9.09206284 C52.1266849,10.3292456 51.1207507,11.3326992 49.8805095,11.3326992 C48.6402683,11.3326992 47.6343341,10.3292456 47.6343341,9.09206284 C47.6343341,7.85488012 48.6402683,6.85142652 49.8805095,6.85142652 C51.1207507,6.85142652 52.1266849,7.85488012 52.1266849,9.09206284 Z" id="Stroke-63" stroke="#393939" stroke-width="0.72" stroke-linecap="round"></path>
                <path d="M40.5416167,71.8859396 C40.5416167,73.1231223 39.5356825,74.1265759 38.2954413,74.1265759 C37.0552001,74.1265759 36.0492659,73.1231223 36.0492659,71.8859396 C36.0492659,70.6487569 37.0552001,69.6453033 38.2954413,69.6453033 C39.5356825,69.6453033 40.5416167,70.6487569 40.5416167,71.8859396" id="Fill-65" fill="#3C3838"></path>
                <path d="M40.5416167,71.8859396 C40.5416167,73.1231223 39.5356825,74.1265759 38.2954413,74.1265759 C37.0552001,74.1265759 36.0492659,73.1231223 36.0492659,71.8859396 C36.0492659,70.6487569 37.0552001,69.6453033 38.2954413,69.6453033 C39.5356825,69.6453033 40.5416167,70.6487569 40.5416167,71.8859396 Z" id="Stroke-67" stroke="#393939" stroke-width="0.72" stroke-linecap="round"></path>
                <path d="M29.1785235,44.8908411 C29.1785235,46.1280238 28.1725893,47.1314774 26.9323481,47.1314774 C25.6921069,47.1314774 24.6861727,46.1280238 24.6861727,44.8908411 C24.6861727,43.6536584 25.6921069,42.6502048 26.9323481,42.6502048 C28.1725893,42.6502048 29.1785235,43.6536584 29.1785235,44.8908411" id="Fill-69" fill="#3C3838"></path>
                <path d="M29.1785235,44.8908411 C29.1785235,46.1280238 28.1725893,47.1314774 26.9323481,47.1314774 C25.6921069,47.1314774 24.6861727,46.1280238 24.6861727,44.8908411 C24.6861727,43.6536584 25.6921069,42.6502048 26.9323481,42.6502048 C28.1725893,42.6502048 29.1785235,43.6536584 29.1785235,44.8908411 Z" id="Stroke-71" stroke="#393939" stroke-width="0.72" stroke-linecap="round"></path>
                <path d="M24.9389775,99.5169394 C27.0618335,100.321811 72.7966078,108.697398 72.7966078,108.697398" id="Stroke-73" stroke="#393939" stroke-width="0.72" stroke-linecap="round"></path>
                <path d="M176.947711,138 C175.717159,136.8542 143.926289,99.6859976 142.947661,98.7712908 C137.505751,93.6810923 135.356469,92.0001757 129.772741,92.0001757 L59.9122813,92.1723972 C59.9122813,92.1723972 25.7378232,92.159217 24.9388894,92.1723972" id="Stroke-75" stroke="#393939" stroke-width="0.72" stroke-linecap="round"></path>
                <polyline id="Stroke-77" stroke="#393939" stroke-width="0.72" stroke-linecap="round" points="15.73556 92.1723093 19.4166451 92.1723093 25.4637017 92.1723093"></polyline>
                <path d="M67.206714,112.37002 C44.7890024,107.369447 30.5015649,105.039185 13.8948412,99.5166758" id="Stroke-79" stroke="#393939" stroke-width="0.72" stroke-linecap="round"></path>
                <path d="M59.9902368,114.689035 L33.867657,113.039751 C32.3015001,113.039751 30.7749817,112.574929 29.4774851,111.700641 C25.957596,109.329081 19.4172617,106.939948 12.0542106,103.267062" id="Stroke-81" stroke="#393939" stroke-width="0.72" stroke-linecap="round"></path>
                <path d="M4.69142366,101.531403 C11.0326852,102.996164 56.0856792,113.753855 82.526247,120.070692 C85.3881388,120.754306 113.800937,127.264452 116.018925,127.744212 C129.35416,130.630679 129.983089,136.654037 129.983089,136.654037" id="Stroke-83" stroke="#393939" stroke-width="0.72" stroke-linecap="round"></path>
                <path d="M19.4169974,92.1723093 C19.4169974,92.1723093 5.56029717,92.1723093 4.69177601,92.1723093" id="Stroke-85" stroke="#393939" stroke-width="0.72" stroke-linecap="round"></path>
                <path d="M24.9389775,99.5169394 C22.9059685,99.5169394 21.2578924,97.8729275 21.2578924,95.8449319 C21.2578924,93.8160577 22.9059685,92.1720457 24.9389775,92.1720457" id="Stroke-87" stroke="#393939" stroke-width="0.72" stroke-linecap="round"></path>
                <path d="M13.8949293,99.5169394 C11.8619203,99.5169394 10.2138442,97.8729275 10.2138442,95.8449319 C10.2138442,93.8160577 11.8619203,92.1720457 13.8949293,92.1720457" id="Stroke-89" stroke="#393939" stroke-width="0.72" stroke-linecap="round"></path>
                <path d="M4.69142366,101.531403 C2.10083467,101.531403 0,99.436628 0,96.8515488 C0,94.2673482 2.10083467,92.1725729 4.69142366,92.1725729" id="Stroke-91" stroke="#393939" stroke-width="0.72" stroke-linecap="round"></path>
                <path d="M116.391261,18.4129342 C110.962564,19.2336222 108.142072,15.4166323 107.364279,13.341188 C106.403268,10.7798331 112.292652,8.67714971 117.363723,7.60252296 C122.226032,6.57183025 141.296502,1.06777304 143.573508,0.198757622 C146.193165,-0.802059934 150.569243,2.23729733 150.259183,3.52368618" id="Stroke-93" stroke="#393939" stroke-width="0.72" stroke-linecap="round"></path>
                <path d="M108.165327,15.9205558 C105.262916,17.9977575 101.464677,20.2023679 104.913217,22.7312115 C106.729536,24.0632918 113.512986,25.9612425 118.131299,21.3648627" id="Stroke-95" stroke="#393939" stroke-width="0.72" stroke-linecap="round"></path>
                <path d="M112.760473,24.1101255 C109.586759,25.4808677 102.286249,29.0131649 111.368725,31.3390333 C112.911099,31.733561 114.897423,31.3346399 115.72102,30.8733324" id="Stroke-97" stroke="#393939" stroke-width="0.72" stroke-linecap="round"></path>
                <path d="M121.432824,25.5549405 C120.208438,30.7013746 115.032546,33.8830781 109.873389,32.6617117 C104.714232,31.4394665 101.524663,26.2772162 102.749049,21.1307821 C103.973435,15.9834693 109.149328,12.8017658 114.308484,14.0240109 C119.467641,15.2453774 122.65721,20.4085064 121.432824,25.5549405" id="Fill-99" fill="#3C3838"></path>
                <path d="M121.432824,25.5549405 C120.208438,30.7013746 115.032546,33.8830781 109.873389,32.6617117 C104.714232,31.4394665 101.524663,26.2772162 102.749049,21.1307821 C103.973435,15.9834693 109.149328,12.8017658 114.308484,14.0240109 C119.467641,15.2453774 122.65721,20.4085064 121.432824,25.5549405 Z" id="Stroke-101" stroke="#393939" stroke-width="0.72" stroke-linecap="round"></path>
                <g id="Group-106" transform="translate(114.226590, 2.668393)">
                    <path d="M107.77341,109.662526 C94.5976095,103.090871 66.4552335,92.2514637 62.9881957,90.0407025 C57.1499013,86.3186102 49.943642,86.9380802 44.1837435,83.2968265 C28.4983921,73.3817912 14.7218495,50.0668719 4.72769011,33.8894777 C1.70460223,28.9978611 -2.66178664,22.7328662 3.9049733,18.6962061 C8.44577108,15.9046369 13.9863371,21.9991676 17.2877746,25.8829373 C22.3271352,31.8105187 31.059913,40.6649862 33.3554162,43.5672692 C36.8629733,48.0002144 39.6781798,44.209585 39.323196,40.7256152 C38.6731264,34.3384836 37.4126256,28.992589 35.0290371,19.4360554 C34.5780403,17.6277301 32.8964917,16.3905474 31.0326065,16.510048 C24.2130418,16.9493885 13.1556927,18.054769 10.5677462,17.9115441 C6.82147795,17.705054 1.97502414,17.8061023 0.0908793336,13.4742055 C-1.92187002,8.84531444 30.0768809,1.69373052 38.6845775,0.2447857 C41.7173548,-0.265727908 44.4215738,-0.113716111 46.879154,2.02762926 C48.8716437,3.76478142 78.4832827,59.7736599 80.388568,61.422944 C84.1868066,64.7127253 98.2328903,66.4164876 107.77341,66.7187538" id="Fill-103" fill="#FFFFFF"></path>
                    <path d="M107.77341,109.662526 C94.5976095,103.090871 66.4552335,92.2514637 62.9881957,90.0407025 C57.1499013,86.3186102 49.943642,86.9380802 44.1837435,83.2968265 C28.4983921,73.3817912 14.7218495,50.0668719 4.72769011,33.8894777 C1.70460223,28.9978611 -2.66178664,22.7328662 3.9049733,18.6962061 C8.44577108,15.9046369 13.9863371,21.9991676 17.2877746,25.8829373 C22.3271352,31.8105187 31.059913,40.6649862 33.3554162,43.5672692 C36.8629733,48.0002144 39.6781798,44.209585 39.323196,40.7256152 C38.6731264,34.3384836 37.4126256,28.992589 35.0290371,19.4360554 C34.5780403,17.6277301 32.8964917,16.3905474 31.0326065,16.510048 C24.2130418,16.9493885 13.1556927,18.054769 10.5677462,17.9115441 C6.82147795,17.705054 1.97502414,17.8061023 0.0908793336,13.4742055 C-1.92187002,8.84531444 30.0768809,1.69373052 38.6845775,0.2447857 C41.7173548,-0.265727908 44.4215738,-0.113716111 46.879154,2.02762926 C48.8716437,3.76478142 78.4832827,59.7736599 80.388568,61.422944 C84.1868066,64.7127253 98.2328903,66.4164876 107.77341,66.7187538" id="Stroke-105" stroke="#393939" stroke-width="0.72" stroke-linecap="round"></path>
                </g>
                <path d="M127.263984,27.5570149 L124.573858,23.9078531 C122.945161,21.6979706 119.800515,21.2190895 117.58517,22.8437705 L117.58517,22.8437705 C115.370705,24.4684515 114.89064,27.6053424 116.519338,29.8152249 L119.209463,33.4643867 C120.83816,35.6742692 123.982806,36.1522716 126.198151,34.5284693 L126.198151,34.5284693 C128.412616,32.9037883 128.892681,29.7660187 127.263984,27.5570149 Z" id="Stroke-107" stroke="#393939" stroke-width="0.72" stroke-linecap="round"></path>
            </g>
        </g>
    </g>
</svg>