<?xml version="1.0" encoding="UTF-8"?>
<svg width="78px" height="78px" viewBox="0 0 78 78" version="1.1" xmlns="http://www.w3.org/2000/svg" xmlns:xlink="http://www.w3.org/1999/xlink">
    <!-- Generator: Sketch 52.5 (67469) - http://www.bohemiancoding.com/sketch -->
    <title>pictograms/education/academy 01</title>
    <desc>Created with Sketch.</desc>
    <g id="Page-1" stroke="none" stroke-width="1" fill="none" fill-rule="evenodd">
        <g id="Teams" transform="translate(-994.000000, -2101.000000)" fill="#000000">
            <g id="pictograms/education/academy-01" transform="translate(992.000000, 2099.000000)">
                <path d="M45.00075,15.05 C45.00075,17.31 43.16075,19.15 40.90075,19.15 C38.64075,19.15 36.80075,17.31 36.80075,15.05 C36.80075,12.79 38.64075,10.95 40.90075,10.95 C43.16075,10.95 45.00075,12.79 45.00075,15.05 M35.00075,15.05 C35.00075,11.7975 37.64825,9.15 40.90075,9.15 C44.15325,9.15 46.80075,11.7975 46.80075,15.05 C46.80075,18.3025 44.15325,20.95 40.90075,20.95 C37.64825,20.95 35.00075,18.3025 35.00075,15.05 Z M77.50075,77.5 L77.50075,71.8 L73.40075,71.8 L8.40075,71.8 L4.30075,71.8 L4.30075,77.5 L77.50075,77.5 Z M9.30075,70 L72.50075,70 L72.50075,64.3 L9.30075,64.3 L9.30075,70 Z M78.40075,70 C78.89825,70 79.30075,70.4025 79.30075,70.9 L79.30075,78.4 C79.30075,78.8975 78.89825,79.3 78.40075,79.3 L3.40075,79.3 C2.90325,79.3 2.50075,78.8975 2.50075,78.4 L2.50075,70.9 C2.50075,70.4025 2.90325,70 3.40075,70 L7.50075,70 L7.50075,63.4 C7.50075,62.9025 7.90325,62.5 8.40075,62.5 L73.40075,62.5 C73.89825,62.5 74.30075,62.9025 74.30075,63.4 L74.30075,70 L78.40075,70 Z M6.64975,25 L75.14975,25 L40.89975,4.45 L6.64975,25 Z M79.26725,26.14 C79.15975,26.53 78.80475,26.8 78.39975,26.8 L3.39975,26.8 C2.99725,26.8 2.63975,26.53 2.53225,26.14 C2.42475,25.75 2.58975,25.335 2.93725,25.1275 L40.43725,2.6275 C40.71975,2.4575 41.07975,2.4575 41.36225,2.6275 L78.86225,25.1275 C79.20975,25.335 79.37475,25.75 79.26725,26.14 Z M36.8,54.99925 L45,54.99925 L45,41.79925 L36.8,41.79925 L36.8,54.99925 Z M35.9,39.99925 L45.9,39.99925 C46.3975,39.99925 46.8,40.40175 46.8,40.89925 L46.8,55.89925 C46.8,56.39675 46.3975,56.79925 45.9,56.79925 L35.9,56.79925 C35.4025,56.79925 35,56.39675 35,55.89925 L35,40.89925 C35,40.40175 35.4025,39.99925 35.9,39.99925 Z M59.3,54.99925 L67.5,54.99925 L67.5,41.79925 L59.3,41.79925 L59.3,54.99925 Z M58.4,39.99925 L68.4,39.99925 C68.8975,39.99925 69.3,40.40175 69.3,40.89925 L69.3,55.89925 C69.3,56.39675 68.8975,56.79925 68.4,56.79925 L58.4,56.79925 C57.9025,56.79925 57.5,56.39675 57.5,55.89925 L57.5,40.89925 C57.5,40.40175 57.9025,39.99925 58.4,39.99925 Z M14.3,54.99925 L22.5,54.99925 L22.5,41.79925 L14.3,41.79925 L14.3,54.99925 Z M13.4,39.99925 L23.4,39.99925 C23.8975,39.99925 24.3,40.40175 24.3,40.89925 L24.3,55.89925 C24.3,56.39675 23.8975,56.79925 23.4,56.79925 L13.4,56.79925 C12.9025,56.79925 12.5,56.39675 12.5,55.89925 L12.5,40.89925 C12.5,40.40175 12.9025,39.99925 13.4,39.99925 Z M8.4,34.29925 L8.4,32.49925 L73.4,32.49925 L73.4,34.29925 L8.4,34.29925 Z" id="Fill-12"></path>
            </g>
        </g>
    </g>
</svg>