<?xml version="1.0" encoding="UTF-8"?>
<svg width="70px" height="77px" viewBox="0 0 70 77" version="1.1" xmlns="http://www.w3.org/2000/svg" xmlns:xlink="http://www.w3.org/1999/xlink">
    <!-- Generator: Sketch 52.5 (67469) - http://www.bohemiancoding.com/sketch -->
    <title>pictograms/location/globe 02</title>
    <desc>Created with Sketch.</desc>
    <g id="Page-1" stroke="none" stroke-width="1" fill="none" fill-rule="evenodd">
        <g id="Teams" transform="translate(-677.000000, -2101.000000)" fill="#000000">
            <g id="pictograms/location/globe-02" transform="translate(672.000000, 2099.000000)">
                <path d="M19.6805835,66.4983497 C10.8774461,61.0476387 5.001,51.3012105 5.001,40.20675 C5.001,23.16925 18.8635,9.30675 35.901,9.30675 C41.2028333,9.30675 46.1972098,10.64915 50.5620695,13.0118902 L53.8470742,7.32357595 C53.8553243,7.30697719 53.8641309,7.29052762 53.8735,7.27425 C53.8821617,7.25949941 53.8911764,7.24508713 53.900527,7.23101721 L56.37325,2.94925 C56.62075,2.51925 57.17575,2.37175 57.60075,2.62175 C58.03325,2.86925 58.17825,3.41925 57.93075,3.85175 L55.8784899,7.40604438 C67.2650685,14.3586071 74.301,26.8414381 74.301,40.20675 C74.301,61.38175 57.076,78.60675 35.901,78.60675 C29.4539284,78.60675 23.1049246,76.9852123 17.4813365,73.9098655 L15.431,77.46225 C15.2635,77.75225 14.961,77.91225 14.651,77.91225 C14.496,77.91225 14.3435,77.87475 14.201,77.79225 C13.7685,77.54475 13.6235,76.99225 13.871,76.56225 L19.6805835,66.4983497 Z M21.2380253,67.4010788 L18.3818345,72.3496753 C23.7292695,75.2691015 29.7674381,76.80675 35.901,76.80675 C56.081,76.80675 72.501,60.38925 72.501,40.20675 C72.501,27.4855279 65.8092175,15.5969018 54.9775167,8.96643344 L52.1202034,13.9149936 C60.924014,19.3661017 66.801,29.1134076 66.801,40.20675 C66.801,57.24675 52.9385,71.10675 35.901,71.10675 C30.5983953,71.10675 25.6033369,69.7642015 21.2380253,67.4010788 Z M47.854,55.207 C47.854,56.2845 46.9765,57.1595 45.9015,57.1595 C44.8215,57.1595 43.949,56.2845 43.949,55.207 C43.949,54.127 44.8215,53.2545 45.9015,53.2545 C46.9765,53.2545 47.854,54.127 47.854,55.207 Z M35.901,11.10675 C19.856,11.10675 6.801,24.16175 6.801,40.20675 C6.801,56.25425 19.856,69.30675 35.901,69.30675 C51.946,69.30675 65.001,56.25425 65.001,40.20675 C65.001,24.16175 51.946,11.10675 35.901,11.10675 Z M37.854,37.707 C37.854,38.7845 36.9765,39.6595 35.9015,39.6595 C34.8215,39.6595 33.949,38.7845 33.949,37.707 C33.949,36.627 34.8215,35.7545 35.9015,35.7545 C36.9765,35.7545 37.854,36.627 37.854,37.707 Z M25.354,20.207 C25.354,21.2845 24.4765,22.1595 23.4015,22.1595 C22.3215,22.1595 21.449,21.2845 21.449,20.207 C21.449,19.127 22.3215,18.2545 23.4015,18.2545 C24.4765,18.2545 25.354,19.127 25.354,20.207 Z M22.849,32.707 C22.849,33.7845 21.974,34.6595 20.8965,34.6595 C19.819,34.6595 18.944,33.7845 18.944,32.707 C18.944,31.627 19.819,30.7545 20.8965,30.7545 C21.974,30.7545 22.849,31.627 22.849,32.707 Z M57.854,32.707 C57.854,33.7845 56.9765,34.6595 55.9015,34.6595 C54.8215,34.6595 53.949,33.7845 53.949,32.707 C53.949,31.627 54.8215,30.7545 55.9015,30.7545 C56.9765,30.7545 57.854,31.627 57.854,32.707 Z M57.854,40.245 C57.854,41.3225 56.9765,42.1975 55.9015,42.1975 C54.8215,42.1975 53.949,41.3225 53.949,40.245 C53.949,39.165 54.8215,38.2925 55.9015,38.2925 C56.9765,38.2925 57.854,39.165 57.854,40.245 Z" id="Fill-20"></path>
            </g>
        </g>
    </g>
</svg>