<svg xmlns="http://www.w3.org/2000/svg" xmlns:xlink="http://www.w3.org/1999/xlink" width="48" height="48" viewBox="0 0 48 48">
  <defs>
    <polygon id="identity-a" points="0 48 47.557 48 47.557 .418 0 .418"/>
  </defs>
  <g fill="none" fill-rule="evenodd">
    <path/>
    <path fill="#000" d="M41.5896774,6.27948387 L46.395871,9.05419355 L46.395871,14.6036129 L41.5896774,17.379871 L36.7834839,14.6036129 L36.7834839,9.05419355 L41.5896774,6.27948387 Z M41.3109677,18.5055484 C41.4828387,18.6046452 41.6949677,18.6046452 41.8683871,18.5055484 L47.232,15.4087742 C47.403871,15.3096774 47.5107097,15.1254194 47.5107097,14.9256774 L47.5107097,8.73212903 C47.5107097,8.53393548 47.403871,8.34967742 47.232,8.25058065 L41.8683871,5.15380645 C41.6949677,5.05316129 41.4828387,5.05316129 41.3109677,5.15380645 L35.9473548,8.25058065 C35.7754839,8.34967742 35.6686452,8.53393548 35.6686452,8.73212903 L35.6686452,14.9256774 C35.6686452,15.1254194 35.7754839,15.3096774 35.9473548,15.4087742 L41.3109677,18.5055484 Z"/>
    <mask id="identity-b" fill="#fff">
      <use xlink:href="#identity-a"/>
    </mask>
    <path fill="#000" d="M2.65393548 15.9019355L10.8294194 15.9019355 10.8294194 7.72645161 2.65393548 7.72645161 2.65393548 15.9019355zM2.09651613 17.0167742L11.3868387 17.0167742C11.5339355 17.0167742 11.6779355 16.9579355 11.7816774 16.8541935 11.883871 16.7504516 11.9442581 16.6064516 11.9442581 16.4593548L11.9442581 7.16903226C11.9442581 7.02348387 11.8854194 6.87948387 11.7816774 6.77574194 11.6779355 6.67045161 11.5339355 6.6116129 11.3868387 6.6116129L2.09651613 6.6116129C1.94941935 6.6116129 1.80696774 6.67045161 1.70322581 6.77574194 1.59793548 6.87948387 1.53909677 7.02348387 1.53909677 7.16903226L1.53909677 16.4593548C1.53909677 16.6064516 1.59793548 16.7504516 1.70322581 16.8541935 1.80696774 16.9579355 1.94941935 17.0167742 2.09651613 17.0167742zM42.3548903 34.5050323C40.0973419 34.5003871 38.2717935 32.6748387 38.2671484 30.4172903 38.2717935 28.1597419 40.0973419 26.3341935 42.3548903 26.3295484 44.6124387 26.3341935 46.4379871 28.1597419 46.4426323 30.4172903 46.4379871 32.6748387 44.6124387 34.5003871 42.3548903 34.5050323M42.3548903 25.2147097C39.4810839 25.2147097 37.1523097 27.5434839 37.1523097 30.4172903 37.1523097 33.2910968 39.4810839 35.619871 42.3548903 35.619871 45.2271484 35.619871 47.557471 33.2910968 47.557471 30.4172903 47.557471 27.5434839 45.2271484 25.2147097 42.3548903 25.2147097M28.8805161 40.6290581C28.8696774 41.2097032 28.6451613 41.7841548 28.2023226 42.2269935L23.7739355 46.6538323 19.3455484 42.2269935C18.8949677 41.7748645 18.6689032 41.1880258 18.6658065 40.5965419L18.6658065 40.5872516C18.6673548 39.9911226 18.891871 39.4011871 19.3455484 38.9459613 19.7992258 38.4938323 20.3876129 38.2693161 20.9806452 38.2662194L20.9868387 38.2662194C21.5829677 38.2677677 22.1713548 38.4922839 22.6265806 38.9459613L23.3806452 39.6984774C23.4859355 39.8053161 23.6252903 39.8626065 23.7739355 39.8626065 23.9225806 39.8626065 24.0634839 39.8037677 24.1687742 39.6984774L24.9212903 38.9459613C25.3749677 38.4922839 25.9664516 38.2677677 26.5610323 38.2662194 27.1571613 38.2677677 27.7470968 38.4922839 28.2023226 38.9459613 28.6544516 39.3996387 28.8805161 39.9895742 28.8805161 40.5857032L28.8805161 40.6290581zM26.5610323 37.1513806C25.6846452 37.1513806 24.8020645 37.4873806 24.1331613 38.1578323L23.7739355 38.5170581 23.4147097 38.1578323C22.7458065 37.488929 21.8647742 37.1513806 20.9868387 37.1513806L20.9790968 37.1513806 20.9589677 37.1513806 20.9589677 37.152929C20.091871 37.160671 19.220129 37.4951226 18.5574194 38.1578323 17.8869677 38.8267355 17.5509677 39.7093161 17.5509677 40.5872516L17.5525161 40.6011871 17.5525161 40.6027355 17.5525161 40.6259613 17.5540645 40.6244129C17.5633548 41.4899613 17.8978065 42.3555097 18.5574194 43.0151226L23.3806452 47.8368C23.4843871 47.9405419 23.6268387 47.9993806 23.7739355 47.9993806 23.9210323 47.9993806 24.0650323 47.9405419 24.1687742 47.8368L28.9904516 43.0151226C29.643871 42.3617032 29.979871 41.5038968 29.9953548 40.6476387L29.9953548 40.5857032C29.9969032 39.7093161 29.6593548 38.8267355 28.9904516 38.1578323 28.32 37.4873806 27.4389677 37.1513806 26.5610323 37.1513806z" mask="url(#identity-b)"/>
    <path fill="#000" d="M29.1133935 32.3450323C31.3817806 30.6975484 32.8589419 28.0234839 32.8589419 25.004129 32.8589419 19.992 28.7959742 15.9305806 23.7853935 15.9305806 18.7732645 15.9305806 14.7102968 19.992 14.7102968 25.004129 14.7102968 28.0172903 16.1828129 30.6836129 18.4419097 32.3341935 12.2189419 34.460129 7.74565161 40.4771613 7.74410323 47.4572903L8.85739355 47.4572903C8.85584516 40.5530323 13.575329 34.6536774 19.9097806 33.0572903 20.1327484 33 20.2984258 32.8126452 20.3262968 32.5850323 20.3541677 32.355871 20.2395871 32.1344516 20.0367484 32.0245161 17.5314581 30.6836129 15.8251355 28.0451613 15.8251355 25.004129 15.8251355 22.803871 16.7154581 20.8188387 18.1570065 19.3772903 19.5985548 17.9341935 21.5851355 17.0454194 23.7853935 17.0454194 25.9841032 17.0454194 27.9706839 17.9341935 29.4137806 19.3772903 30.855329 20.8188387 31.7441032 22.803871 31.7456516 25.004129 31.7456516 28.0451613 30.039329 30.6836129 27.5324903 32.0245161 27.3312 32.1329032 27.2166194 32.3527742 27.2429419 32.5803871 27.2692645 32.808 27.4318452 32.9953548 27.6517161 33.0541935 34.0171355 34.7620645 38.7118452 40.5545806 38.7118452 47.4572903L39.8251355 47.4572903C39.8251355 40.467871 35.3502968 34.5421935 29.1133935 32.3450323M23.7742452 1.53305806C26.0317935 1.53770323 27.8573419 3.36325161 27.8619871 5.6208 27.8573419 7.87834839 26.0317935 9.70389677 23.7742452 9.70854194 21.5166968 9.70389677 19.6911484 7.87834839 19.6865032 5.6208 19.6911484 3.36325161 21.5166968 1.53770323 23.7742452 1.53305806M23.7742452 10.8233806C26.6465032 10.8233806 28.9768258 8.49460645 28.9768258 5.6208 28.9768258 2.74854194 26.6465032.418219355 23.7742452.418219355 20.9004387.418219355 18.5716645 2.74854194 18.5716645 5.6208 18.5716645 8.49460645 20.9004387 10.8233806 23.7742452 10.8233806" mask="url(#identity-b)"/>
    <path fill="#000" d="M5.92087742,25.3311484 L10.3198452,32.9492129 L1.52345806,32.9492129 L5.92087742,25.3311484 Z M11.7675871,33.7853419 C11.8666839,33.613471 11.8666839,33.3997935 11.7675871,33.2279226 L6.40397419,23.9376 C6.30487742,23.765729 6.11907097,23.6588903 5.92087742,23.6588903 C5.72113548,23.6588903 5.53687742,23.765729 5.43778065,23.9376 L0.0741677419,33.2279226 C-0.0249290323,33.4013419 -0.0249290323,33.613471 0.075716129,33.7853419 C0.174812903,33.9587613 0.357522581,34.0640516 0.557264516,34.0640516 L11.2844903,34.0640516 C11.4842323,34.0640516 11.6684903,33.9587613 11.7675871,33.7853419 Z" mask="url(#identity-b)"/>
  </g>
</svg>
