<?xml version="1.0" encoding="UTF-8"?>
<svg width="77px" height="79px" viewBox="0 0 77 79" version="1.1" xmlns="http://www.w3.org/2000/svg" xmlns:xlink="http://www.w3.org/1999/xlink">
    <!-- Generator: Sketch 52.5 (67469) - http://www.bohemiancoding.com/sketch -->
    <title>pictograms/user/HR 04</title>
    <desc>Created with Sketch.</desc>
    <g id="Page-1" stroke="none" stroke-width="1" fill="none" fillRule="evenodd">
        <g id="Teams" transform="translate(-352.000000, -2101.000000)" fill="#000000">
            <g id="pictograms/user/HR-04" transform="translate(352.000000, 2099.000000)">
                <path d="M57.7235,80.89975 L55.9235,80.89975 L55.9235,79.00725 C55.9235,70.88475 50.406,63.88725 42.506,61.98725 C42.131,61.89725 41.856,61.57975 41.821,61.19725 C41.786,60.81225 41.996,60.44975 42.3485,60.28975 C45.8285,58.72975 48.076,55.26975 48.076,51.47475 C48.076,46.13975 43.736,41.79725 38.401,41.79725 C33.0635,41.79725 28.721,46.13975 28.721,51.47475 C28.721,55.26725 30.971,58.72725 34.451,60.28975 C34.8035,60.44975 35.016,60.81225 34.9785,61.19475 C34.9435,61.57975 34.6685,61.89725 34.2935,61.98725 C26.3935,63.88725 20.876,70.88475 20.876,79.00725 L20.876,80.89975 L19.076,80.89975 L19.076,79.00725 C19.076,70.77475 24.216,63.58725 31.8135,60.85225 C28.7885,58.72725 26.9235,55.23975 26.9235,51.47475 C26.9235,45.14725 32.071,39.99725 38.401,39.99725 C44.7285,39.99725 49.876,45.14725 49.876,51.47475 C49.876,55.23975 48.011,58.72725 44.986,60.85225 C52.5835,63.58725 57.7235,70.77475 57.7235,79.00725 L57.7235,80.89975 Z M38.39975,4.2995 C33.38225,4.2995 29.29975,8.382 29.29975,13.3995 C29.29975,18.417 33.38225,22.4995 38.39975,22.4995 C43.41725,22.4995 47.49975,18.417 47.49975,13.3995 C47.49975,8.382 43.41725,4.2995 38.39975,4.2995 Z M38.39975,24.2995 C32.38975,24.2995 27.49975,19.4095 27.49975,13.3995 C27.49975,7.3895 32.38975,2.4995 38.39975,2.4995 C44.40975,2.4995 49.29975,7.3895 49.29975,13.3995 C49.29975,19.4095 44.40975,24.2995 38.39975,24.2995 Z M10.89975,24.2995 C5.88225,24.2995 1.79975,28.382 1.79975,33.3995 C1.79975,38.417 5.88225,42.4995 10.89975,42.4995 C15.91725,42.4995 19.99975,38.417 19.99975,33.3995 C19.99975,28.382 15.91725,24.2995 10.89975,24.2995 Z M10.89975,44.2995 C4.88975,44.2995 -0.00025,39.4095 -0.00025,33.3995 C-0.00025,27.3895 4.88975,22.4995 10.89975,22.4995 C16.90975,22.4995 21.79975,27.3895 21.79975,33.3995 C21.79975,39.4095 16.90975,44.2995 10.89975,44.2995 Z M65.89975,24.2995 C60.88225,24.2995 56.79975,28.382 56.79975,33.3995 C56.79975,38.417 60.88225,42.4995 65.89975,42.4995 C70.91725,42.4995 74.99975,38.417 74.99975,33.3995 C74.99975,28.382 70.91725,24.2995 65.89975,24.2995 Z M65.89975,44.2995 C59.88975,44.2995 54.99975,39.4095 54.99975,33.3995 C54.99975,27.3895 59.88975,22.4995 65.89975,22.4995 C71.90975,22.4995 76.79975,27.3895 76.79975,33.3995 C76.79975,39.4095 71.90975,44.2995 65.89975,44.2995 Z" id="Fill-2"></path>
            </g>
        </g>
    </g>
</svg>