<?xml version="1.0" encoding="UTF-8"?>
<svg width="356px" height="178px" viewBox="0 0 356 178" version="1.1" xmlns="http://www.w3.org/2000/svg" xmlns:xlink="http://www.w3.org/1999/xlink">
    <title>services</title>
    <defs>
        <path d="M11.2231255,0 C5.02477961,0 0,5.02573763 0,11.2240835 L0,11.2240835 L0,22.447209 L11.2231255,22.447209 C17.4214714,22.447209 22.447209,17.4224294 22.447209,11.2240835 L22.447209,11.2240835 L22.447209,0" id="path-1"></path>
        <path d="M11.2231255,0 C5.02477961,0 0,5.02573763 0,11.2240835 L0,11.2240835 L0,22.447209 L11.2231255,22.447209 C17.4214714,22.447209 22.447209,17.4224294 22.447209,11.2240835 L22.447209,11.2240835 L22.447209,0" id="path-3"></path>
    </defs>
    <g id="services" stroke="none" stroke-width="1" fill="none" fill-rule="evenodd">
        <rect fill="#FFFFFF" x="0" y="0" width="356" height="178"></rect>
        <g id="Group-53" transform="translate(64.000000, 9.000000)">
            <g id="Group-24" transform="translate(0.000000, -0.000000)">
                <path d="M143.100071,8.41806262 C143.100071,13.067301 139.331247,16.8361252 134.682008,16.8361252 C130.033728,16.8361252 126.264904,13.067301 126.264904,8.41806262 C126.264904,3.76882421 130.033728,-3.58833459e-15 134.682008,-3.58833459e-15 C139.331247,-3.58833459e-15 143.100071,3.76882421 143.100071,8.41806262 Z" id="Stroke-1" stroke="#393939" stroke-width="0.72" stroke-linecap="round" stroke-linejoin="round"></path>
                <path d="M103.817599,40.6857699 C103.817599,45.3350083 100.048775,49.1038325 95.3995364,49.1038325 C90.751256,49.1038325 86.9824318,45.3350083 86.9824318,40.6857699 C86.9824318,36.0365314 90.751256,32.2677072 95.3995364,32.2677072 C100.048775,32.2677072 103.817599,36.0365314 103.817599,40.6857699" id="Fill-3" fill="#393939"></path>
                <path d="M103.817599,40.6857699 C103.817599,45.3350083 100.048775,49.1038325 95.3995364,49.1038325 C90.751256,49.1038325 86.9824318,45.3350083 86.9824318,40.6857699 C86.9824318,36.0365314 90.751256,32.2677072 95.3995364,32.2677072 C100.048775,32.2677072 103.817599,36.0365314 103.817599,40.6857699 Z" id="Stroke-5" stroke="#3C3838" stroke-width="0.72"></path>
                <path d="M182.382447,40.6857699 C182.382447,45.3350083 178.613623,49.1038325 173.964385,49.1038325 C169.316104,49.1038325 165.54728,45.3350083 165.54728,40.6857699 C165.54728,36.0365314 169.316104,32.2677072 173.964385,32.2677072 C178.613623,32.2677072 182.382447,36.0365314 182.382447,40.6857699" id="Fill-7" fill="#393939"></path>
                <path d="M182.382447,40.6857699 C182.382447,45.3350083 178.613623,49.1038325 173.964385,49.1038325 C169.316104,49.1038325 165.54728,45.3350083 165.54728,40.6857699 C165.54728,36.0365314 169.316104,32.2677072 173.964385,32.2677072 C178.613623,32.2677072 182.382447,36.0365314 182.382447,40.6857699 Z" id="Stroke-9" stroke="#3C3838" stroke-width="0.72"></path>
                <polygon id="Stroke-11" stroke="#393939" stroke-width="0.72" stroke-linecap="round" stroke-linejoin="round" points="95.399728 119.250618 173.96448 119.250618 173.96448 40.6858657 95.399728 40.6858657"></polygon>
                <line x1="173.964864" y1="40.6857699" x2="95.4001112" y2="119.250522" id="Stroke-13" stroke="#393939" stroke-width="0.72" stroke-linecap="round" stroke-linejoin="round"></line>
                <line x1="8.41748781" y1="79.9681461" x2="220.262005" y2="79.9681461" id="Stroke-14" stroke="#393939" stroke-width="0.72" stroke-linecap="round" stroke-linejoin="round"></line>
                <path d="M16.8351672,79.9681461 C16.8351672,84.6173845 13.066343,88.3862087 8.41710461,88.3862087 C3.76882421,88.3862087 0,84.6173845 0,79.9681461 C0,75.3189076 3.76882421,71.5500834 8.41710461,71.5500834 C13.066343,71.5500834 16.8351672,75.3189076 16.8351672,79.9681461" id="Fill-15" fill="#CAC5C4"></path>
                <path d="M16.8351672,79.9681461 C16.8351672,84.6173845 13.066343,88.3862087 8.41710461,88.3862087 C3.76882421,88.3862087 0,84.6173845 0,79.9681461 C0,75.3189076 3.76882421,71.5500834 8.41710461,71.5500834 C13.066343,71.5500834 16.8351672,75.3189076 16.8351672,79.9681461 Z" id="Stroke-16" stroke="#3C3838" stroke-width="0.72"></path>
                <path d="M101.352152,113.298386 C104.639095,116.585329 104.639095,121.915715 101.352152,125.202659 C98.0652084,128.489602 92.7348225,128.489602 89.447879,125.202659 C86.1609355,121.915715 86.1609355,116.585329 89.447879,113.298386 C92.7348225,110.011442 98.0652084,110.011442 101.352152,113.298386" id="Fill-17" fill="#CAC5C4"></path>
                <path d="M101.352152,113.298386 C104.639095,116.585329 104.639095,121.915715 101.352152,125.202659 C98.0652084,128.489602 92.7348225,128.489602 89.447879,125.202659 C86.1609355,121.915715 86.1609355,116.585329 89.447879,113.298386 C92.7348225,110.011442 98.0652084,110.011442 101.352152,113.298386 Z" id="Stroke-18" stroke="#3C3838" stroke-width="0.72"></path>
                <path d="M227.276674,79.9681461 C227.276674,84.6173845 223.507849,88.3862087 218.858611,88.3862087 C214.210331,88.3862087 210.441506,84.6173845 210.441506,79.9681461 C210.441506,75.3189076 214.210331,71.5500834 218.858611,71.5500834 C223.507849,71.5500834 227.276674,75.3189076 227.276674,79.9681461" id="Fill-19" fill="#CAC5C4"></path>
                <path d="M227.276674,79.9681461 C227.276674,84.6173845 223.507849,88.3862087 218.858611,88.3862087 C214.210331,88.3862087 210.441506,84.6173845 210.441506,79.9681461 C210.441506,75.3189076 214.210331,71.5500834 218.858611,71.5500834 C223.507849,71.5500834 227.276674,75.3189076 227.276674,79.9681461 Z" id="Stroke-20" stroke="#3C3838" stroke-width="0.72"></path>
                <line x1="134.682392" y1="16.835742" x2="134.682392" y2="79.9678587" id="Stroke-21" stroke="#393939" stroke-width="0.72" stroke-linecap="round" stroke-linejoin="round"></line>
                <path d="M154.32358,79.9681461 C154.32358,90.8157303 145.529976,99.6093342 134.682392,99.6093342 C123.834807,99.6093342 115.041204,90.8157303 115.041204,79.9681461 C115.041204,69.1205618 123.834807,60.326958 134.682392,60.326958 C145.529976,60.326958 154.32358,69.1205618 154.32358,79.9681461" id="Fill-22" fill="#DEFBE6"></path>
                <path d="M154.32358,79.9681461 C154.32358,90.8157303 145.529976,99.6093342 134.682392,99.6093342 C123.834807,99.6093342 115.041204,90.8157303 115.041204,79.9681461 C115.041204,69.1205618 123.834807,60.326958 134.682392,60.326958 C145.529976,60.326958 154.32358,69.1205618 154.32358,79.9681461 Z" id="Stroke-23" stroke="#3C3838" stroke-width="0.72" stroke-linejoin="round"></path>
            </g>
            <g id="Group-31" transform="translate(123.458979, 68.744158)">
                <g id="Group-27">
                    <mask id="mask-2" fill="white">
                        <use xlink:href="#path-1"></use>
                    </mask>
                    <g id="Clip-26"></g>
                    <polyline id="Stroke-25" stroke="#393939" stroke-width="0.72" stroke-linecap="round" stroke-linejoin="round" mask="url(#mask-2)" points="26.6557613 8.41815842 14.0291464 8.41815842 14.0291464 -4.2084565"></polyline>
                </g>
                <g id="Group-30">
                    <mask id="mask-4" fill="white">
                        <use xlink:href="#path-3"></use>
                    </mask>
                    <g id="Clip-29"></g>
                    <polyline id="Stroke-28" stroke="#393939" stroke-width="0.72" stroke-linecap="round" stroke-linejoin="round" mask="url(#mask-4)" points="25.2528466 15.4328274 7.01418997 15.4328274 7.01418997 -2.80582927"></polyline>
                </g>
            </g>
            <g id="Group-52" transform="translate(61.721832, 68.744542)">
                <path d="M72.9605601,22.447209 L61.7374346,22.447209 L61.7374346,11.2240835 C61.7374346,5.02477961 66.7622143,0 72.9605601,0 L84.1836856,0 L84.1836856,11.2240835 C84.1836856,17.4224294 79.158906,22.447209 72.9605601,22.447209 Z" id="Stroke-32" stroke="#393939" stroke-width="0.72" stroke-linecap="round" stroke-linejoin="round"></path>
                <line x1="61.7370514" y1="22.447209" x2="84.1842604" y2="0" id="Stroke-34" stroke="#393939" stroke-width="0.72" stroke-linecap="round" stroke-linejoin="round"></line>
                <path d="M65.6604032,82.3275411 C57.8401409,83.4263824 49.8637223,84.5472579 42.8261569,85.5368856 C39.3370725,86.0273884 35.8202058,84.8499901 33.3284133,82.3581976 L7.95064169,56.980426" id="Stroke-36" stroke="#3C3838" stroke-width="0.72" stroke-linejoin="round"></path>
                <path d="M90.0715394,50.5249494 L45.2413083,50.5249494 C40.8267832,50.5249494 40.0000177,56.8037683 44.2641348,57.9466782 L68.894656,62.9906181" id="Stroke-38" stroke="#3C3838" stroke-width="0.72" stroke-linejoin="round"></path>
                <path d="M161.318986,91.1872479 L147.148054,66.6429479 C139.846077,53.9952566 124.958551,47.8285252 110.851805,51.6088456 L46.589233,69.0408551 C44.8236145,69.5198617 42.9363284,69.108874 41.5299649,67.9391398 L23.5921244,53.012335 C22.7107522,52.2794549 21.6013728,51.8770893 20.4555889,51.8761313 L20.4555889,51.8761313 C17.7281251,51.8722992 15.5199046,54.092016 15.5361013,56.8194798 L15.5361013,56.9670138 L36.0750373,77.5049023 C37.9422052,79.3720702 40.5767417,80.2534424 43.1921179,79.8865233 C50.558282,78.850911 59.07502,77.6543524 67.4145255,76.4817442" id="Stroke-40" stroke="#3C3838" stroke-width="0.72" stroke-linejoin="round"></path>
                <path d="M16.7060208,53.6090815 L16.0047551,53.0256514 C15.1243409,52.2927713 14.0149615,51.8904057 12.8691776,51.8894449 L12.8682196,51.8894449 C10.1407558,51.8865736 7.93349326,54.1053324 7.94968993,56.8327961 L7.9507375,56.9803302 L19.7285527,68.7581454" id="Stroke-42" stroke="#3C3838" stroke-width="0.72" stroke-linejoin="round"></path>
                <path d="M8.97954795,53.7948403 L8.05506514,53.0255556 C7.17465094,52.2926754 6.06527157,51.8912679 4.9194877,51.8893491 L4.9194877,51.8893491 C2.1910659,51.8864778 -0.0161966764,54.1052366 0,56.8327003 L0.00104756254,56.9811924 L11.7788627,68.7580496" id="Stroke-44" stroke="#3C3838" stroke-width="0.72" stroke-linejoin="round"></path>
                <path d="M118.946251,91.1711533 C115.514647,85.2276389 108.821009,81.9617717 102.024863,82.9169109 C89.9558114,84.6135524 43.6071293,91.0935542 43.6071293,91.0935542 C42.8368866,91.2018097 42.0637699,91.2554584 41.2935272,91.2554584 C36.8617578,91.2554584 32.5277058,89.492714 29.3605139,86.3264801 L0.0079452581,56.9739115" id="Stroke-46" stroke="#3C3838" stroke-width="0.72" stroke-linejoin="round"></path>
                <path d="M120.660616,50.5060765 C120.660616,55.1553149 116.891792,58.9241391 112.242553,58.9241391 C107.594273,58.9241391 103.825449,55.1553149 103.825449,50.5060765 C103.825449,45.8568381 107.594273,42.0880139 112.242553,42.0880139 C116.891792,42.0880139 120.660616,45.8568381 120.660616,50.5060765" id="Fill-48" fill="#CAC5C4"></path>
                <path d="M120.660616,50.5060765 C120.660616,55.1553149 116.891792,58.9241391 112.242553,58.9241391 C107.594273,58.9241391 103.825449,55.1553149 103.825449,50.5060765 C103.825449,45.8568381 107.594273,42.0880139 112.242553,42.0880139 C116.891792,42.0880139 120.660616,45.8568381 120.660616,50.5060765 Z" id="Stroke-50" stroke="#3C3838" stroke-width="0.72"></path>
            </g>
        </g>
    </g>
</svg>