<?xml version="1.0" encoding="UTF-8"?><svg id="uuid-fc1bf35d-2ef1-448d-8fe3-06902e49b1d8" xmlns="http://www.w3.org/2000/svg" viewBox="0 0 1252.926 952.594"><defs><style>.uuid-1070b711-754c-42e3-963b-3083032386bf{fill:#defbe6;}.uuid-1070b711-754c-42e3-963b-3083032386bf,.uuid-678f28f3-7c80-47ab-97c5-8abc8a368d6b,.uuid-6d370c2b-78ec-4269-827c-f32c17f2aeab,.uuid-3f104e89-9216-48b0-ab12-afbb69702655,.uuid-c7b0895f-63e7-4adf-b4da-5a776b0e56a2{stroke-linejoin:round;}.uuid-1070b711-754c-42e3-963b-3083032386bf,.uuid-678f28f3-7c80-47ab-97c5-8abc8a368d6b,.uuid-6d370c2b-78ec-4269-827c-f32c17f2aeab,.uuid-3f104e89-9216-48b0-ab12-afbb69702655,.uuid-c7b0895f-63e7-4adf-b4da-5a776b0e56a2,.uuid-0323689b-e264-4825-8a2f-599ce1610a21,.uuid-26da2f29-2fb5-46fe-aeb5-b548dee49c65,.uuid-3148326a-6781-4aa1-a309-229d35fdbe45{stroke:#3c3838;}.uuid-1070b711-754c-42e3-963b-3083032386bf,.uuid-678f28f3-7c80-47ab-97c5-8abc8a368d6b,.uuid-6d370c2b-78ec-4269-827c-f32c17f2aeab,.uuid-3f104e89-9216-48b0-ab12-afbb69702655,.uuid-0323689b-e264-4825-8a2f-599ce1610a21{stroke-linecap:round;}.uuid-678f28f3-7c80-47ab-97c5-8abc8a368d6b{fill:#e5e0df;}.uuid-6d370c2b-78ec-4269-827c-f32c17f2aeab,.uuid-3f104e89-9216-48b0-ab12-afbb69702655,.uuid-c7b0895f-63e7-4adf-b4da-5a776b0e56a2,.uuid-0323689b-e264-4825-8a2f-599ce1610a21,.uuid-eb9bde89-bf67-47d6-a6ae-d73d7074dcae,.uuid-3148326a-6781-4aa1-a309-229d35fdbe45{fill:none;}.uuid-3f104e89-9216-48b0-ab12-afbb69702655{fill-rule:evenodd;}.uuid-0323689b-e264-4825-8a2f-599ce1610a21,.uuid-26da2f29-2fb5-46fe-aeb5-b548dee49c65,.uuid-eb9bde89-bf67-47d6-a6ae-d73d7074dcae,.uuid-3148326a-6781-4aa1-a309-229d35fdbe45{stroke-miterlimit:10;}.uuid-26da2f29-2fb5-46fe-aeb5-b548dee49c65{fill:#565151;}.uuid-eb9bde89-bf67-47d6-a6ae-d73d7074dcae{stroke:#fff;}</style></defs><g id="uuid-d767b2c1-2b81-4272-9c3e-4c5b5224601a"><g><g><path class="uuid-0323689b-e264-4825-8a2f-599ce1610a21" d="M753.649,.573c120.385,0,217.976,97.591,217.976,217.976,0,88.04-47.24,161.962-122.374,196.364"/><path class="uuid-0323689b-e264-4825-8a2f-599ce1610a21" d="M.5,591.383C.5,363.101,235.417,203.855,387.887,201.407"/><path class="uuid-0323689b-e264-4825-8a2f-599ce1610a21" d="M388.318,201.507c58.174-4.599,135.496-11.759,174.982-72.768,38.208-59.036,75.36-112.822,135.432-124.92,20.329-4.094,55.059-3.247,55.059-3.247"/><g><path class="uuid-1070b711-754c-42e3-963b-3083032386bf" d="M898.486,55.357c33.52,150.446,125.503,208.909,125.503,208.909,91.983,58.463,150.446-33.52,150.446-33.52,0,0,58.463-91.983-33.52-150.446,0,0-91.983-58.463-242.429-24.943Z"/><path class="uuid-1070b711-754c-42e3-963b-3083032386bf" d="M1159.579,248.202c-28.8-37.835-88.094-107.294-161.506-142.306"/></g><g><path class="uuid-3148326a-6781-4aa1-a309-229d35fdbe45" d="M1006.38,451.195l-156.419-36.232c-7.124,.32-15.138-9.671-15.138-21.211v-63.965"/><path class="uuid-3148326a-6781-4aa1-a309-229d35fdbe45" d="M1064.735,515.254c-8.659-35.012-26.178-57.388-58.413-64.07"/></g><g><path class="uuid-3148326a-6781-4aa1-a309-229d35fdbe45" d="M516.627,452.905l152.587-35.118c11.265-2.503,19.279-12.495,19.279-24.034v-65.605"/><path class="uuid-3148326a-6781-4aa1-a309-229d35fdbe45" d="M463.372,499.689c9.718-25.644,26.247-41.165,53.374-46.788"/></g><path class="uuid-0323689b-e264-4825-8a2f-599ce1610a21" d="M1160.147,248.981c154.087,200.394,118.414,695.109-131.246,703.113-335.748-.034-670.708-.063-670.708-.063"/><g><g><path class="uuid-3148326a-6781-4aa1-a309-229d35fdbe45" d="M682.198,496.578c0-88.724-72.518-161.418-161.412-161.418s-160.956,71.925-160.956,160.649"/><line class="uuid-3148326a-6781-4aa1-a309-229d35fdbe45" x1="359.794" y1="494.632" x2="359.428" y2="886.312"/></g><path class="uuid-3148326a-6781-4aa1-a309-229d35fdbe45" d="M323.957,469.976h35.867v32.982c0,27.577-22.389,49.966-49.966,49.966h-32.982v-35.867c0-25.985,21.096-47.081,47.081-47.081Z" transform="translate(829.8 193.1) rotate(90)"/><path class="uuid-3148326a-6781-4aa1-a309-229d35fdbe45" d="M438.658,379.684h12.646v9.761c0,27.577-22.389,49.966-49.966,49.966h-9.761v-12.646c0-25.985,21.096-47.081,47.081-47.081Z" transform="translate(545.025 984.064) rotate(-146.32)"/><g><g><path class="uuid-3f104e89-9216-48b0-ab12-afbb69702655" d="M682.358,544.279c0,205.164,189.382,157.819,189.382,307.83"/><path class="uuid-3f104e89-9216-48b0-ab12-afbb69702655" d="M682.358,544.279c0,205.164,126.255,157.819,126.255,307.83"/><path class="uuid-3f104e89-9216-48b0-ab12-afbb69702655" d="M682.358,544.279c0,205.164,63.127,157.819,63.127,307.83"/><path class="uuid-3f104e89-9216-48b0-ab12-afbb69702655" d="M682.358,544.279c0,205.164-189.382,157.819-189.382,307.83"/><path class="uuid-3f104e89-9216-48b0-ab12-afbb69702655" d="M682.358,544.279c0,205.164-63.127,157.819-63.127,307.83"/><path class="uuid-3f104e89-9216-48b0-ab12-afbb69702655" d="M682.351,496.117c0,178.217,.006,176.712,.006,355.991"/><path class="uuid-3f104e89-9216-48b0-ab12-afbb69702655" d="M682.426,542.081c0,205.164-126.323,160.017-126.323,310.028"/></g><g><circle class="uuid-3148326a-6781-4aa1-a309-229d35fdbe45" cx="492.975" cy="868.891" r="16.847"/><circle class="uuid-3148326a-6781-4aa1-a309-229d35fdbe45" cx="556.103" cy="868.891" r="16.847"/><circle class="uuid-3148326a-6781-4aa1-a309-229d35fdbe45" cx="619.264" cy="868.891" r="16.847"/><circle class="uuid-3148326a-6781-4aa1-a309-229d35fdbe45" cx="682.351" cy="868.891" r="16.847"/><circle class="uuid-3148326a-6781-4aa1-a309-229d35fdbe45" cx="745.485" cy="868.891" r="16.847"/><circle class="uuid-3148326a-6781-4aa1-a309-229d35fdbe45" cx="808.613" cy="868.891" r="16.847"/><circle class="uuid-3148326a-6781-4aa1-a309-229d35fdbe45" cx="871.74" cy="868.891" r="16.847"/></g></g></g><path id="uuid-b12c0ce8-c651-4fe0-959f-06a7a4faf056" class="uuid-c7b0895f-63e7-4adf-b4da-5a776b0e56a2" d="M359.755,952.34v-400.035c0-29.277,24.065-53.23,53.477-52.417H952.823c29.412-.813,53.477,23.141,53.477,52.417v344.035c0,29.277-28.906,55.678-58.319,55.678"/><g><g><path class="uuid-678f28f3-7c80-47ab-97c5-8abc8a368d6b" d="M1057.771,494.208c-54.131,114.483-29.544,193.235-29.544,193.235,24.587,78.752,103.306,43.02,103.306,43.02,0,0,78.719-35.731,54.131-114.483,0,0-24.587-78.752-127.893-121.772Z"/><path class="uuid-678f28f3-7c80-47ab-97c5-8abc8a368d6b" d="M1115.391,734.849c-1.291-41.935-5.976-108.544-23.798-164.615"/></g><path class="uuid-c7b0895f-63e7-4adf-b4da-5a776b0e56a2" d="M988.851,952.088c45.176-4.518,137.392-39.518,126.54-217.239"/></g><g><g><g><g><path class="uuid-6d370c2b-78ec-4269-827c-f32c17f2aeab" d="M.5,592.373H135.707c123.599,0,223.795,100.196,223.795,223.795v135.207"/><path class="uuid-6d370c2b-78ec-4269-827c-f32c17f2aeab" d="M359.502,951.374H231.435C103.893,951.374,.5,847.981,.5,720.439v-128.067"/></g><line class="uuid-6d370c2b-78ec-4269-827c-f32c17f2aeab" x1=".5" y1="592.373" x2="359.502" y2="951.374"/></g><path class="uuid-26da2f29-2fb5-46fe-aeb5-b548dee49c65" d="M258.685,729.433h100.914v104.015c0,65.406-53.102,118.508-118.508,118.508h-104.015v-100.914c0-67.118,54.491-121.609,121.609-121.609Z" transform="translate(1089.032 592.357) rotate(90)"/></g><line class="uuid-eb9bde89-bf67-47d6-a6ae-d73d7074dcae" x1="137.076" y1="729.433" x2="359.428" y2="951.786"/></g></g><g><path class="uuid-3148326a-6781-4aa1-a309-229d35fdbe45" d="M656.595,205.667l12.637,83.06c2.37,17.409,11.173,33.301,24.667,44.551l28.953,24.121c11.103,9.257,25.1,14.326,39.559,14.326s28.456-5.069,39.559-14.326l29.058-24.205c13.438-11.201,22.22-27.002,24.639-44.32l7.25-51.927,4.054-32.457"/><path class="uuid-3148326a-6781-4aa1-a309-229d35fdbe45" d="M866.757,206.189c.027-.209,.258-2.262,.284-2.471,17.883-143.782-117.098-89.914-138.714-89.726-26.996,.235-35.106-15.529-55.341-5.271-29.259,14.834-19.522,69.294-16.391,96.945h-2.361c-13.041,0-15.769,10.572-15.769,23.613s12.555,25.459,25.596,25.459"/><path class="uuid-3148326a-6781-4aa1-a309-229d35fdbe45" d="M866.962,204.627c20.329,.988,19.594,11.824,18.918,24.847-.736,14.171-12.149,23.418-25.19,23.418"/></g></g></g></svg>