<?xml version="1.0" encoding="UTF-8"?>
<svg width="656px" height="431px" viewBox="0 0 656 431" version="1.1" xmlns="http://www.w3.org/2000/svg" xmlns:xlink="http://www.w3.org/1999/xlink">
    <!-- Generator: Sketch 52.3 (67297) - http://www.bohemiancoding.com/sketch -->
    <title>Group 38</title>
    <desc>Created with Sketch.</desc>
    <defs>
        <polygon id="path-1" points="0.972 0.5 93.815 0.5 93.815 92.5 0.972 92.5"></polygon>
        <polygon id="path-3" points="0.972 0.501 93.815 0.501 93.815 92.5 0.972 92.5"></polygon>
        <polygon id="path-5" points="0.358273887 0.206 655.53 0.206 655.53 430.5007 0.358273887 430.5007"></polygon>
    </defs>
    <g id="Page-1" stroke="none" stroke-width="1" fill="none" fillRule="evenodd">
        <g id="Approach" transform="translate(-641.000000, -1575.000000)">
            <g id="Group-38" transform="translate(641.000000, 1575.000000)">
                <g id="Group-7" transform="translate(239.000000, 206.000000)" stroke="#231F20">
                    <path d="M21.1268,87.1951 C32.4688,87.1951 41.6588,78.0831 41.6588,66.8411 C41.6588,55.6041 32.4688,46.4931 21.1268,46.4931 C9.7858,46.4931 0.5948,55.6041 0.5948,66.8411 C0.5948,78.0831 9.7858,87.1951 21.1268,87.1951 Z" id="Stroke-1"></path>
                    <path d="M67.6571,40.3718 C78.9361,40.3718 88.0771,31.5538 88.0771,20.6748 C88.0771,9.7998 78.9361,0.9828 67.6571,0.9828 C56.3791,0.9828 47.2371,9.7998 47.2371,20.6748 C47.2371,31.5538 56.3791,40.3718 67.6571,40.3718 Z" id="Stroke-3"></path>
                    <path d="M67.6571,86.7122 C78.9361,86.7122 88.0771,77.8942 88.0771,67.0142 C88.0771,56.1402 78.9361,47.3232 67.6571,47.3232 C56.3791,47.3232 47.2371,56.1402 47.2371,67.0142 C47.2371,77.8942 56.3791,86.7122 67.6571,86.7122 Z" id="Stroke-5"></path>
                </g>
                <g id="Group-10" transform="translate(483.000000, 337.000000)">
                    <mask id="mask-2" fill="white">
                        <use xlink:href="#path-1"></use>
                    </mask>
                    <g id="Clip-9"></g>
                    <polygon id="Stroke-8" stroke="#231F20" mask="url(#mask-2)" points="0.972 92.5 93.816 92.5 93.816 0.5 0.972 0.5"></polygon>
                </g>
                <g id="Group-13" transform="translate(483.000000, 337.000000)">
                    <mask id="mask-4" fill="white">
                        <use xlink:href="#path-3"></use>
                    </mask>
                    <g id="Clip-12"></g>
                    <polygon id="Stroke-11" stroke="#231F20" mask="url(#mask-4)" points="-1151.5 3395.5 172.53 3395.5 172.53 -425.5 -1151.5 -425.5"></polygon>
                </g>
                <g id="Group-37">
                    <mask id="mask-6" fill="white">
                        <use xlink:href="#path-5"></use>
                    </mask>
                    <g id="Clip-15"></g>
                    <polygon id="Stroke-14" stroke="#231F20" mask="url(#mask-6)" points="483.972 429.5 576.816 429.5 576.816 337.5 483.972 337.5"></polygon>
                    <path d="M440.4178,87.4915 C464.5118,87.4915 484.0508,68.1285 484.0508,44.2385 C484.0508,20.3535 464.5118,0.9845 440.4178,0.9845 C416.3298,0.9845 396.7908,20.3535 396.7908,44.2385 C396.7908,68.1285 416.3298,87.4915 440.4178,87.4915 Z" id="Stroke-16" stroke="#231F20" mask="url(#mask-6)"></path>
                    <path d="M649.4872,429.324 C673.5812,429.324 693.1202,409.961 693.1202,386.071 C693.1202,362.186 673.5812,342.817 649.4872,342.817 C625.3992,342.817 605.8602,362.186 605.8602,386.071 C605.8602,409.961 625.3992,429.324 649.4872,429.324 Z" id="Stroke-17" stroke="#231F20" mask="url(#mask-6)"></path>
                    <path d="M256.326,107.3958 C256.326,83.5118 236.793,64.1428 212.693,64.1428 C188.598,64.1428 169.06,83.5118 169.06,107.3958 C169.06,131.2808 188.598,150.6498 212.693,150.6498 C236.793,150.6498 256.326,131.2808 256.326,107.3958 Z" id="Stroke-18" stroke="#231F20" mask="url(#mask-6)"></path>
                    <path d="M295.0604,145.8 C295.0604,121.916 275.5334,102.547 251.4334,102.547 C227.3394,102.547 207.8004,121.916 207.8004,145.8 C207.8004,169.684 227.3394,189.048 251.4334,189.048 C275.5334,189.048 295.0604,169.684 295.0604,145.8 Z" id="Stroke-19" stroke="#231F20" mask="url(#mask-6)"></path>
                    <polyline id="Stroke-20" stroke="#231F20" mask="url(#mask-6)" points="136.4042 147.5432 101.3992 182.2442 66.3942 147.5432"></polyline>
                    <polyline id="Stroke-21" stroke="#231F20" mask="url(#mask-6)" points="101.3973 182.4265 101.3973 29.4445 361.8583 29.4445"></polyline>
                    <polyline id="Stroke-22" stroke="#231F20" mask="url(#mask-6)" points="326.8573 -5.2561 361.8563 29.4449 326.8573 64.1449"></polyline>
                    <polyline id="Stroke-23" stroke="#231F20" mask="url(#mask-6)" points="507.5555 66.6189 542.5555 31.9179 577.5665 66.6189"></polyline>
                    <polyline id="Stroke-24" stroke="#231F20" mask="url(#mask-6)" points="577.5643 276.9397 542.5593 311.6347 507.5543 276.9397"></polyline>
                    <path d="M542.5575,311.6375 L542.5575,31.7345" id="Stroke-25" stroke="#231F20" mask="url(#mask-6)"></path>
                    <polyline id="Stroke-26" stroke="#231F20" mask="url(#mask-6)" points="76.6483 357.1448 76.6483 308.0688 126.1553 308.0688"></polyline>
                    <polyline id="Stroke-27" stroke="#231F20" mask="url(#mask-6)" points="198.9247 380.2107 198.9247 429.2877 149.4177 429.2877"></polyline>
                    <path d="M198.9247,429.2844 L76.5207,307.9444" id="Stroke-28" stroke="#231F20" mask="url(#mask-6)"></path>
                    <path d="M101.3973,244.7117 L130.9993,215.3557 C135.1473,211.2437 139.8823,208.2427 145.0123,206.2217 C150.1363,204.2117 155.6443,203.1977 161.1873,203.1977 C171.5763,203.2097 182.0343,207.2747 190.1853,215.3557 C194.2873,219.4277 197.3313,224.0697 199.3763,229.0237 C201.4163,233.9767 202.4443,239.2517 202.4443,244.5157 C202.4443,249.8957 201.4213,255.2627 199.3823,260.2797 C197.3423,265.3017 194.3043,269.9787 190.1853,274.0737 C186.0483,278.1687 181.3193,281.1807 176.2233,283.2017 C171.1343,285.2177 165.6723,286.2257 160.1883,286.2257 C154.9423,286.2257 149.6773,285.2007 144.7163,283.1787 C139.7543,281.1517 135.0883,278.1287 130.9993,274.0737 L101.3973,244.7117 Z" id="Stroke-29" stroke="#231F20" mask="url(#mask-6)"></path>
                    <path d="M0.3583,244.5154 C0.3583,239.2514 1.3803,233.9754 3.4213,229.0284 C5.4713,224.0694 8.5093,219.4324 12.6123,215.3614 C20.7693,207.2744 31.2213,203.2084 41.6213,203.1974 C47.1583,203.1974 52.6713,204.2104 57.7903,206.2264 C62.9143,208.2424 67.6553,211.2484 71.8093,215.3614 L101.3993,244.7114 L71.8093,274.0734 C67.7133,278.1274 63.0473,281.1514 58.0913,283.1784 C53.1253,285.2004 47.8553,286.2254 42.6023,286.2254 C37.1243,286.2254 31.6633,285.2174 26.5733,283.2014 C21.4833,281.1804 16.7493,278.1674 12.6123,274.0734 C8.4873,269.9774 5.4543,265.3014 3.4153,260.2794 C1.3803,255.2624 0.3523,249.9004 0.3583,244.5154 Z" id="Stroke-30" stroke="#231F20" mask="url(#mask-6)"></path>
                    <path d="M632.8094,199.7781 L662.4344,229.1111 C666.5844,233.2211 669.6134,237.9131 671.6534,242.9971 C673.6814,248.0751 674.7054,253.5321 674.7054,259.0251 C674.6934,269.3191 670.5894,279.6821 662.4344,287.7591 C658.3254,291.8231 653.6404,294.8401 648.6424,296.8671 C643.6434,298.8871 638.3194,299.9061 633.0074,299.9061 C627.5794,299.9061 622.1624,298.8931 617.0994,296.8731 C612.0314,294.8521 607.3114,291.8411 603.1784,287.7591 C599.0454,283.6601 596.0064,278.9731 593.9664,273.9241 C591.9324,268.8811 590.9144,263.4691 590.9144,258.0351 C590.9144,252.8361 591.9494,247.6201 593.9894,242.7031 C596.0354,237.7871 599.0864,233.1641 603.1784,229.1111 L632.8094,199.7781 Z" id="Stroke-31" stroke="#231F20" mask="url(#mask-6)"></path>
                    <path d="M633.0077,99.7781 C638.3197,99.7781 643.6437,100.7911 648.6367,102.8121 C653.6407,104.8441 658.3197,107.8551 662.4287,111.9201 C670.5897,120.0031 674.6937,130.3601 674.7047,140.6651 C674.7047,146.1521 673.6817,151.6151 671.6477,156.6881 C669.6127,161.7651 666.5787,166.4631 662.4287,170.5801 L632.8097,199.9011 L603.1787,170.5801 C599.0867,166.5211 596.0347,161.8981 593.9887,156.9871 C591.9487,152.0651 590.9147,146.8431 590.9147,141.6381 C590.9147,136.2091 591.9327,130.7981 593.9667,125.7541 C596.0067,120.7111 599.0457,116.0191 603.1787,111.9201 C607.3117,107.8321 612.0307,104.8271 617.0997,102.8061 C622.1617,100.7911 627.5727,99.7721 633.0077,99.7781 Z" id="Stroke-32" stroke="#231F20" mask="url(#mask-6)"></path>
                    <path d="M640.6288,65.8894 C651.9078,65.8894 661.0488,57.0714 661.0488,46.1924 C661.0488,35.3174 651.9078,26.5004 640.6288,26.5004 C629.3508,26.5004 620.2088,35.3174 620.2088,46.1924 C620.2088,57.0714 629.3508,65.8894 640.6288,65.8894 Z" id="Stroke-33" stroke="#231F20" mask="url(#mask-6)"></path>
                    <path d="M350.8964,206.2908 L344.0934,210.4898 C367.9084,195.8028 404.5104,186.4608 431.6964,229.7898 C458.8804,273.1178 430.3474,295.3098 416.7414,303.7008 C403.1334,312.0918 379.8824,312.6278 367.3914,292.7288 C354.9004,272.8238 361.1634,255.1658 382.6774,241.9018 C403.0874,229.3118 444.1584,236.1878 478.8904,214.7748 C506.1044,197.9918 514.7904,174.2338 502.3044,154.3348 C487.7334,131.1128 458.4394,130.4848 424.6254,151.3338 C397.6314,167.9848 368.2624,158.7758 357.8574,142.1938 C345.3724,122.2898 350.6474,100.6338 367.6584,90.1458 C377.8674,83.8508 390.1494,80.8788 390.1494,80.8788" id="Stroke-34" stroke="#231F20" mask="url(#mask-6)"></path>
                    <polygon id="Stroke-35" stroke="#353233" mask="url(#mask-6)" points="275.578 343.5002 329.064 430.5002 222.092 430.5002"></polygon>
                    <polygon id="Stroke-36" stroke="#231F20" mask="url(#mask-6)" points="393.5067 372.0247 393.5067 339.5007 407.3567 339.5007 407.3567 371.1647 434.9087 354.9017 441.5867 366.7227 413.0587 383.5617 441.5867 400.4047 434.9087 412.2267 407.3567 395.9577 407.3567 430.5007 393.5067 430.5007 393.5067 395.1037 364.5027 412.2267 357.8247 400.4047 386.3537 383.5617 357.8247 366.7227 364.5027 354.9017"></polygon>
                </g>
            </g>
        </g>
    </g>
</svg>