<svg xmlns="http://www.w3.org/2000/svg" width="50" height="20" viewBox="0 0 50 20">
  <path fill-rule="evenodd" d="M16.4274,16.3906 C14.9574,17.8636 12.7784,18.6526 10.5274,18.6526 C8.2024,18.6526 5.8314,17.8146 4.1144,16.1156 C2.4044,14.4196 1.5694,12.3476 1.5684,10.2806 C1.5694,8.2116 2.4044,6.1396 4.1144,4.4436 C5.8384,2.7346 8.2264,1.8926 10.5624,1.8936 C12.8064,1.8926 14.9734,2.6736 16.4304,4.1346 L22.5574,10.2616 L16.4274,16.3906 Z M49.3854,12.0726 L45.9434,8.6306 L42.5004,12.0726 L43.3854,12.9566 L43.3844,12.9566 L45.2724,11.0696 C45.0794,12.8556 44.2574,14.6076 42.7704,16.0806 C41.0384,17.7966 38.6374,18.6406 36.2994,18.6406 C34.0734,18.6416 31.9324,17.8716 30.5044,16.4416 L24.3264,10.2636 L30.4474,4.1426 C31.9144,2.6706 34.0844,1.8876 36.3294,1.8886 C38.6624,1.8886 41.0464,2.7316 42.7704,4.4396 C43.2954,4.9606 43.7384,5.5156 44.0994,6.0956 C44.2814,6.3876 44.6674,6.4766 44.9604,6.2946 C45.2524,6.1126 45.3424,5.7266 45.1594,5.4336 C44.7454,4.7706 44.2424,4.1386 43.6494,3.5516 C41.6574,1.5816 38.9574,0.6396 36.3294,0.6386 C33.8014,0.6406 31.3134,1.5116 29.5624,3.2596 L23.4434,9.3786 L17.3144,3.2506 C15.5734,1.5126 13.0884,0.6446 10.5624,0.6446 C7.9334,0.6446 5.2284,1.5846 3.2364,3.5556 C1.3024,5.4666 0.3164,7.8706 0.3184,10.2806 C0.3164,12.6886 1.3034,15.0936 3.2364,17.0036 C5.2214,18.9646 7.9094,19.9016 10.5274,19.9016 C13.0624,19.9006 15.5584,19.0236 17.3114,17.2756 L23.4414,11.1466 L29.6204,17.3266 C31.3364,19.0356 33.7934,19.8886 36.2994,19.8906 C38.9314,19.8896 41.6484,18.9466 43.6494,16.9696 C45.3874,15.2516 46.3534,13.1406 46.5304,10.9856 L48.5004,12.9566 L49.3854,12.0726 Z"/>
</svg>
