<?xml version="1.0" encoding="UTF-8"?>
<svg width="46px" height="47px" viewBox="0 0 46 47" version="1.1" xmlns="http://www.w3.org/2000/svg" xmlns:xlink="http://www.w3.org/1999/xlink">
    <!-- Generator: Sketch 52.5 (67469) - http://www.bohemiancoding.com/sketch -->
    <title>Group 20</title>
    <desc>Created with Sketch.</desc>
    <defs>
        <polygon id="path-1" points="0 47 46 47 46 0.424516129 0 0.424516129"></polygon>
    </defs>
    <g id="Page-1" stroke="none" stroke-width="1" fill="none" fill-rule="evenodd">
        <g id="Design-Thinking-Child-page" transform="translate(-353.000000, -1135.000000)">
            <g id="Group-20" transform="translate(353.000000, 1135.000000)">
                <polygon id="Fill-1" fill="#000000" points="0 7.72 23 7.72 23 6.28 0 6.28"></polygon>
                <g id="Group-19">
                    <path d="M18.22934,27.6123484 C17.12534,28.6918323 15.6824733,29.2285419 14.2350067,29.2300581 C12.7860067,29.2300581 11.34314,28.6903161 10.2376067,27.6123484 C9.13514,26.5313484 8.58774,25.1228645 8.58774,23.7128645 C8.58774,22.2998323 9.13514,20.8898323 10.2376067,19.8118645 C11.34314,18.7323806 12.7844733,18.1941548 14.2350067,18.1926387 C15.6824733,18.1941548 17.12534,18.7323806 18.22934,19.8118645 L22.2160067,23.7128645 L18.22934,27.6123484 Z M27.7728067,19.8118645 C28.8752733,18.7323806 30.31814,18.1941548 31.76714,18.1926387 C33.2146067,18.1941548 34.6590067,18.7323806 35.7630067,19.8118645 C36.86394,20.8898323 37.4128733,22.2998323 37.4128733,23.7128645 C37.4128733,25.1228645 36.86394,26.5313484 35.7630067,27.6123484 C34.6590067,28.6903161 33.2146067,29.2300581 31.76714,29.2300581 C30.31814,29.2285419 28.8752733,28.6918323 27.7728067,27.6123484 L23.78614,23.7128645 L27.7728067,19.8118645 Z M26.99694,28.3886065 C28.31254,29.6758 30.04214,30.3231871 31.76714,30.321671 C33.4906067,30.321671 35.2202067,29.6758 36.53734,28.3886065 C37.8560067,27.0983806 38.5168733,25.4033484 38.5168733,23.7128645 C38.5168733,22.0208645 37.8560067,20.3243161 36.53734,19.0371226 C35.2202067,17.7453806 33.4906067,17.0995097 31.76714,17.1010258 C30.04214,17.0995097 28.31254,17.7468968 26.99694,19.0371226 L22.99954,22.9441871 L19.0052067,19.0371226 C17.68654,17.7468968 15.9584733,17.0995097 14.2350067,17.1010258 C12.5100067,17.0995097 10.7804067,17.7453806 9.46174,19.0371226 C8.14460667,20.3243161 7.48220667,22.0208645 7.48220667,23.7128645 C7.48220667,25.4033484 8.14460667,27.0983806 9.46174,28.3886065 C10.7804067,29.6758 12.5100067,30.321671 14.2350067,30.321671 C15.9584733,30.3231871 17.68654,29.6758 19.0052067,28.3886065 L22.99954,24.4800258 L26.99694,28.3886065 Z" id="Fill-2" fill="#000000"></path>
                    <mask id="mask-2" fill="white">
                        <use xlink:href="#path-1"></use>
                    </mask>
                    <g id="Clip-5"></g>
                    <polygon id="Fill-4" fill="#000000" mask="url(#mask-2)" points="0 47 46 47 46 45.9083871 0 45.9083871"></polygon>
                    <polygon id="Fill-6" fill="#000000" mask="url(#mask-2)" points="23 13.6451613 46 13.6451613 46 12.5535484 23 12.5535484"></polygon>
                    <polygon id="Fill-7" fill="#000000" mask="url(#mask-2)" points="0 34.8709677 18.4 34.8709677 18.4 33.7793548 0 33.7793548"></polygon>
                    <polygon id="Fill-8" fill="#000000" mask="url(#mask-2)" points="23 40.9354839 46 40.9354839 46 39.843871 23 39.843871"></polygon>
                    <polygon id="Fill-9" fill="#000000" mask="url(#mask-2)" points="0 1.51612903 46 1.51612903 46 0.424516129 0 0.424516129"></polygon>
                    <path d="M0.766666667,30.5349903 C1.18986667,30.5349903 1.53333333,30.1953774 1.53333333,29.7769258 C1.53333333,29.3584742 1.18986667,29.0188613 0.766666667,29.0188613 C0.343466667,29.0188613 0,29.3584742 0,29.7769258 C0,30.1953774 0.343466667,30.5349903 0.766666667,30.5349903" id="Fill-10" fill="#000000" mask="url(#mask-2)"></path>
                    <path d="M45.2333333,6.27692581 C44.8101333,6.27692581 44.4666667,6.61653871 44.4666667,7.03499032 C44.4666667,7.45344194 44.8101333,7.79305484 45.2333333,7.79305484 C45.6565333,7.79305484 46,7.45344194 46,7.03499032 C46,6.61653871 45.6565333,6.27692581 45.2333333,6.27692581" id="Fill-11" fill="#000000" mask="url(#mask-2)"></path>
                    <path d="M0.766666667,13.857571 C1.18986667,13.857571 1.53333333,13.5179581 1.53333333,13.0995065 C1.53333333,12.6810548 1.18986667,12.3414419 0.766666667,12.3414419 C0.343466667,12.3414419 0,12.6810548 0,13.0995065 C0,13.5179581 0.343466667,13.857571 0.766666667,13.857571" id="Fill-12" fill="#000000" mask="url(#mask-2)"></path>
                    <path d="M3.06666667,29.7769258 C3.06666667,30.1953774 3.41013333,30.5349903 3.83333333,30.5349903 C4.25653333,30.5349903 4.6,30.1953774 4.6,29.7769258 C4.6,29.3584742 4.25653333,29.0188613 3.83333333,29.0188613 C3.41013333,29.0188613 3.06666667,29.3584742 3.06666667,29.7769258" id="Fill-13" fill="#000000" mask="url(#mask-2)"></path>
                    <path d="M45.2333333,16.889829 C44.8101333,16.889829 44.4666667,17.2294419 44.4666667,17.6478935 C44.4666667,18.0663452 44.8101333,18.4059581 45.2333333,18.4059581 C45.6565333,18.4059581 46,18.0663452 46,17.6478935 C46,17.2294419 45.6565333,16.889829 45.2333333,16.889829" id="Fill-14" fill="#000000" mask="url(#mask-2)"></path>
                    <path d="M42.9333333,7.03499032 C42.9333333,6.61653871 42.5898667,6.27692581 42.1666667,6.27692581 C41.7434667,6.27692581 41.4,6.61653871 41.4,7.03499032 C41.4,7.45344194 41.7434667,7.79305484 42.1666667,7.79305484 C42.5898667,7.79305484 42.9333333,7.45344194 42.9333333,7.03499032" id="Fill-15" fill="#000000" mask="url(#mask-2)"></path>
                    <path d="M45.2333333,33.5672484 C44.8101333,33.5672484 44.4666667,33.9068613 44.4666667,34.3253129 C44.4666667,34.7437645 44.8101333,35.0833774 45.2333333,35.0833774 C45.6565333,35.0833774 46,34.7437645 46,34.3253129 C46,33.9068613 45.6565333,33.5672484 45.2333333,33.5672484" id="Fill-16" fill="#000000" mask="url(#mask-2)"></path>
                    <path d="M21.4666667,34.3253129 C21.4666667,34.7437645 21.8101333,35.0833774 22.2333333,35.0833774 C22.6565333,35.0833774 23,34.7437645 23,34.3253129 C23,33.9068613 22.6565333,33.5672484 22.2333333,33.5672484 C21.8101333,33.5672484 21.4666667,33.9068613 21.4666667,34.3253129" id="Fill-17" fill="#000000" mask="url(#mask-2)"></path>
                    <path d="M0.766666667,41.1478935 C1.18986667,41.1478935 1.53333333,40.8082806 1.53333333,40.389829 C1.53333333,39.9713774 1.18986667,39.6317645 0.766666667,39.6317645 C0.343466667,39.6317645 0,39.9713774 0,40.389829 C0,40.8082806 0.343466667,41.1478935 0.766666667,41.1478935" id="Fill-18" fill="#000000" mask="url(#mask-2)"></path>
                </g>
            </g>
        </g>
    </g>
</svg>