<?xml version="1.0" encoding="UTF-8"?>
<svg width="50px" height="50px" viewBox="0 0 50 50" version="1.1" xmlns="http://www.w3.org/2000/svg" xmlns:xlink="http://www.w3.org/1999/xlink">
    <!-- Generator: Sketch 52.5 (67469) - http://www.bohemiancoding.com/sketch -->
    <title>Group 2</title>
    <desc>Created with Sketch.</desc>
    <g id="Page-1" stroke="none" stroke-width="1" fill="none" fill-rule="evenodd" stroke-linecap="round">
        <g id="Design-Thinking-Child-page" transform="translate(-991.000000, -1140.000000)" stroke="#000000" stroke-width="1.25">
            <g id="Group-2" transform="translate(991.000000, 1140.000000)">
                <path d="M48.625,11.4248 C48.625,17.3898 43.79,22.2248 37.825,22.2248 C31.86,22.2248 27.025,17.3898 27.025,11.4248 C27.025,5.4598 31.86,0.6248 37.825,0.6248 C43.79,0.6248 48.625,5.4598 48.625,11.4248 Z" id="Stroke-3"></path>
                <path d="M48.625,37.8252 C48.625,43.7902 43.79,48.6252 37.825,48.6252 C31.86,48.6252 27.025,43.7902 27.025,37.8252 C27.025,31.8602 31.86,27.0252 37.825,27.0252 C43.79,27.0252 48.625,31.8602 48.625,37.8252 Z" id="Stroke-5"></path>
                <path d="M22.2251,37.8252 C22.2251,43.7902 17.3901,48.6252 11.4251,48.6252 C5.4601,48.6252 0.6251,43.7902 0.6251,37.8252 C0.6251,31.8602 5.4601,27.0252 11.4251,27.0252 C17.3901,27.0252 22.2251,31.8602 22.2251,37.8252 Z" id="Stroke-7"></path>
            </g>
        </g>
    </g>
</svg>