<?xml version="1.0" encoding="UTF-8"?>
<svg width="50px" height="20px" viewBox="0 0 50 20" version="1.1" xmlns="http://www.w3.org/2000/svg" xmlns:xlink="http://www.w3.org/1999/xlink">
    <!-- Generator: Sketch 52.5 (67469) - http://www.bohemiancoding.com/sketch -->
    <title>Group 8</title>
    <desc>Created with Sketch.</desc>
    <defs>
        <polygon id="path-1" points="0 0.125 49.067103 0.125 49.067103 19.3866 0 19.3866"></polygon>
    </defs>
    <g id="Page-1" stroke="none" stroke-width="1" fill="none" fill-rule="evenodd">
        <g id="Design-Thinking-Child-page" transform="translate(-352.000000, -1870.000000)">
            <g id="Group-8" transform="translate(352.000000, 1870.000000)">
                <mask id="mask-2" fill="white">
                    <use xlink:href="#path-1"></use>
                </mask>
                <g id="Clip-7"></g>
                <path d="M45.2701,15.6016 C43.5521,17.3006 41.1811,18.1376 38.8581,18.1376 C36.6061,18.1386 34.4271,17.3516 32.9571,15.8766 L26.8281,9.7476 L32.9551,3.6216 C34.4111,2.1606 36.5791,1.3786 38.8231,1.3806 C41.1581,1.3796 43.5451,2.2226 45.2701,3.9306 C46.9801,5.6246 47.8161,7.6976 47.8171,9.7666 C47.8161,11.8336 46.9801,13.9066 45.2701,15.6016 M46.1491,3.0416 C44.1561,1.0726 41.4521,0.1306 38.8231,0.1306 C36.2961,0.1316 33.8121,0.9976 32.0701,2.7386 L25.9421,8.8656 L19.8221,2.7456 C18.0711,0.9966 15.5831,0.1256 13.0551,0.1246 C10.4271,0.1246 7.7271,1.0706 5.7361,3.0386 C5.1421,3.6246 4.6391,4.2566 4.2251,4.9196 C4.0421,5.2126 4.1311,5.5976 4.4241,5.7816 C4.7171,5.9636 5.1031,5.8746 5.2861,5.5816 C5.6471,5.0016 6.0891,4.4476 6.6151,3.9256 C8.3381,2.2186 10.7221,1.3736 13.0551,1.3746 C15.2991,1.3726 17.4701,2.1566 18.9381,3.6286 L25.0581,9.7496 L18.8791,15.9276 C17.4521,17.3596 15.3111,18.1276 13.0851,18.1266 C10.7481,18.1266 8.3461,17.2826 6.6151,15.5666 C5.1271,14.0936 4.3041,12.3416 4.1131,10.5566 L5.9991,12.4436 L6.8841,11.5586 L3.4421,8.1176 L-0.0009,11.5586 L0.8841,12.4436 L2.8551,10.4716 C3.0321,12.6256 3.9981,14.7386 5.7361,16.4556 C7.7371,18.4316 10.4531,19.3756 13.0851,19.3766 C15.5901,19.3746 18.0481,18.5236 19.7631,16.8126 L25.9431,10.6326 L32.0731,16.7616 C33.8271,18.5106 36.3231,19.3866 38.8581,19.3866 C41.4751,19.3866 44.1641,18.4496 46.1491,16.4906 C48.0821,14.5806 49.0691,12.1736 49.0671,9.7666 C49.0691,7.3576 48.0821,4.9516 46.1491,3.0416" id="Fill-6" fill="#000000" mask="url(#mask-2)"></path>
            </g>
        </g>
    </g>
</svg>