<svg xmlns="http://www.w3.org/2000/svg" width="46" height="19" viewBox="0 0 46 19">
  <path fill-rule="evenodd" d="M714.393001,1873.873 C712.433001,1871.935 709.774001,1871.012 707.198001,1871.011 C704.746001,1871.013 702.340001,1871.847 700.660001,1873.522 C700.659001,1873.522 700.658001,1873.522 700.657001,1873.523 L687.759001,1886.422 C686.338001,1887.845 684.222001,1888.608 682.031001,1888.607 C679.751001,1888.608 677.419001,1887.786 675.737001,1886.118 C674.067001,1884.463 673.251001,1882.44 673.250001,1880.423 C673.251001,1878.404 674.067001,1876.382 675.737001,1874.727 C677.413001,1873.065 679.727001,1872.249 681.997001,1872.249 C684.195001,1872.249 686.322001,1873.019 687.756001,1874.458 L687.757001,1874.458 L690.092001,1876.867 L687.419001,1876.867 L687.419001,1878.117 L692.193001,1878.116 L692.193001,1873.344 L690.943001,1873.344 L690.943001,1875.949 L688.648001,1873.581 L688.640001,1873.573 C686.923001,1871.859 684.479001,1871.001 681.997001,1871 C679.434001,1871 676.801001,1871.916 674.858001,1873.839 C672.965001,1875.709 671.999001,1878.063 672.000001,1880.423 C671.999001,1882.781 672.965001,1885.136 674.858001,1887.007 C676.809001,1888.936 679.457001,1889.856 682.031001,1889.856 C684.504001,1889.856 686.937001,1889.007 688.643001,1887.306 L701.539001,1874.409 L701.540001,1874.409 C702.934001,1873.011 705.024001,1872.26 707.198001,1872.261 C709.480001,1872.261 711.824001,1873.085 713.514001,1874.761 C715.185001,1876.417 715.999001,1878.432 716.000001,1880.442 C715.999001,1882.452 715.185001,1884.466 713.514001,1886.123 C711.831001,1887.789 709.504001,1888.613 707.226001,1888.612 C705.035001,1888.614 702.915001,1887.849 701.484001,1886.414 L698.001001,1882.931 C697.756001,1882.686 697.361001,1882.686 697.117001,1882.931 C696.872001,1883.175 696.872001,1883.571 697.117001,1883.815 L700.600001,1887.298 C702.315001,1889.009 704.751001,1889.861 707.226001,1889.862 C709.799001,1889.862 712.443001,1888.938 714.393001,1887.012 C716.285001,1885.142 717.251001,1882.794 717.250001,1880.442 C717.251001,1878.089 716.285001,1875.741 714.393001,1873.873" transform="translate(-672 -1871)"/>
</svg>
