<svg xmlns="http://www.w3.org/2000/svg" width="48" height="20" viewBox="0 0 48 20">
  <path fill-rule="evenodd" d="M397.967537,1821.01397 C394.034666,1817.12021 387.056891,1816.97865 383.326184,1820.70907 L379.6328,1824.40371 C379.369986,1824.66662 379.369986,1825.09442 379.6328,1825.35732 C379.764984,1825.48799 379.937601,1825.55333 380.110218,1825.55333 C380.28128,1825.55333 380.453897,1825.48799 380.586082,1825.35732 L384.279466,1821.66268 C387.512538,1818.42695 393.58835,1818.57473 397.020476,1821.97069 C398.7171,1823.65234 399.653275,1825.78979 399.653275,1827.98946 C399.653275,1830.18913 398.7171,1832.32658 397.020476,1834.00823 C393.585239,1837.4073 387.542085,1837.58309 384.340115,1834.38158 L370.664485,1820.70129 C366.939999,1816.97553 359.965334,1817.12643 356.032463,1821.01709 C354.076136,1822.95386 353,1825.43666 353,1828.00968 C353,1830.58271 354.077691,1833.06551 356.032463,1835.00073 C358.047884,1836.9935 360.867297,1837.99844 363.638502,1837.99844 C366.263526,1837.99844 368.845007,1837.09773 370.661375,1835.28074 L373.326832,1832.61593 L373.326832,1837.3233 L374.448066,1837.3233 L374.448066,1830.54226 L367.66779,1830.54226 L367.66779,1831.66077 L372.375105,1831.66077 L369.708093,1834.32869 C366.470356,1837.56909 360.403875,1837.43064 356.98108,1834.04245 C355.2829,1832.36236 354.346725,1830.21869 354.346725,1828.00968 C354.346725,1825.79912 355.2829,1823.65701 356.98108,1821.97536 C360.414761,1818.57784 366.481241,1818.42383 369.711203,1821.6549 L383.386833,1835.33519 C385.170544,1837.11795 387.706927,1838 390.299294,1838 C393.082939,1838 395.930344,1836.98106 397.967537,1834.96495 C399.922309,1833.02973 401,1830.5516 401,1827.98946 C401,1825.42732 399.923864,1822.95075 397.967537,1821.01397" transform="translate(-353 -1818)"/>
</svg>
