<?xml version="1.0" encoding="UTF-8"?>
<svg width="656px" height="426px" viewBox="0 0 656 426" version="1.1" xmlns="http://www.w3.org/2000/svg" xmlns:xlink="http://www.w3.org/1999/xlink">
    <!-- Generator: Sketch 52.3 (67297) - http://www.bohemiancoding.com/sketch -->
    <title>Group 56</title>
    <desc>Created with Sketch.</desc>
    <defs>
        <polygon id="path-1" points="0.7777 0.3716 7.048 0.3716 7.048 4.5826 0.7777 4.5826"></polygon>
        <polygon id="path-3" points="0.2267 0.5639 8.048 0.5639 8.048 5.7759 0.2267 5.7759"></polygon>
        <polygon id="path-5" points="0.64014507 0.808422857 68.0748169 0.808422857 68.0748169 101.34448 0.64014507 101.34448"></polygon>
        <polygon id="path-7" points="0.335822857 0.311740385 67.0752 0.311740385 67.0752 100.817423 0.335822857 100.817423"></polygon>
        <polygon id="path-9" points="0.8597 0.769459091 6.048 0.769459091 6.048 20.5753227 0.8597 20.5753227"></polygon>
        <polygon id="path-11" points="0.1417 0.560761905 5.048 0.560761905 5.048 19.3693333 0.1417 19.3693333"></polygon>
        <polygon id="path-13" points="0.485527273 0.791988517 31.0768485 0.791988517 31.0768485 203.83641 0.485527273 203.83641"></polygon>
    </defs>
    <g id="Page-1" stroke="none" stroke-width="1" fill="none" fillRule="evenodd">
        <g id="Approach" transform="translate(-641.000000, -1051.000000)">
            <g id="Group-56" transform="translate(642.000000, 1051.500000)">
                <path d="M125.573888,212.498051 C125.573888,117.250106 188.452335,36.6793839 275,9.93716782 C255.157379,3.80622529 234.071674,0.5 212.213056,0.5 C95.0117344,0.5 0,95.4126437 0,212.498051 C0,329.583457 95.0117344,424.5 212.213056,424.5 C234.071674,424.5 255.157379,421.195724 275,415.063807 C188.452335,388.319641 125.573888,307.745021 125.573888,212.498051 Z" id="Stroke-1" stroke="#3686FF"></path>
                <path d="M275,415.00421 C294.828794,421.174218 315.899805,424.5 337.743191,424.5 C359.40856,424.5 380.31323,421.223256 400,415.149364 C377.211089,408.119223 356.062257,397.327839 337.255837,383.5 C318.583658,397.229763 297.603113,407.971127 275,415.00421 Z" id="Stroke-3" stroke="#3686FF"></path>
                <path d="M400,9.85010287 C380.31323,3.77690063 359.40856,0.5 337.743191,0.5 C315.899805,0.5 294.828794,3.82594134 275,9.99526338 C297.603113,17.0286828 318.583658,27.7705612 337.255837,41.5 C356.062257,27.6724798 377.211089,16.8795991 400,9.85010287 Z" id="Stroke-5" stroke="#3686FF"></path>
                <path d="M249.762071,212.997564 C249.762071,142.665772 284.121351,80.3484856 337,41.7979836 C318.290563,28.158221 297.268154,17.4865051 274.619939,10.5 C187.96001,37.2338567 125,117.779393 125,212.997564 C125,308.214761 187.96001,388.764194 274.619939,415.5 C297.268154,408.512521 318.290563,397.840805 337,384.200068 C284.121351,345.648591 249.762071,283.329356 249.762071,212.997564 Z" id="Stroke-7" stroke="#3686FF"></path>
                <path d="M523,9.21770443 C503.814929,3.55446362 483.50431,0.5 462.47619,0.5 C440.734476,0.5 419.756143,3.75731433 400,9.79602401 C421.885214,16.4861965 442.270024,26.5916729 460.522833,39.5 C479.317429,26.2093773 500.374833,15.896174 523,9.21770443 Z" id="Stroke-9" stroke="#3686FF"></path>
                <path d="M400,415.203233 C419.756143,421.241792 440.734476,424.5 462.47619,424.5 C483.50431,424.5 503.814929,421.445613 523,415.782514 C500.374833,409.104211 479.317429,398.79029 460.522833,385.5 C442.270024,398.407029 421.885214,408.514203 400,415.203233 Z" id="Stroke-11" stroke="#3686FF"></path>
                <path d="M397.283613,315.5 C382.313589,342.45402 361.681676,365.79851 337,383.915644 C355.798095,397.714653 376.937565,408.484517 399.716387,415.5 C421.515099,408.785963 441.819336,398.643461 460,385.690068 C434.237091,367.333147 412.745636,343.335849 397.283613,315.5 Z" id="Stroke-13" stroke="#3686FF"></path>
                <path d="M397.283613,109.5 C412.745636,81.6630616 434.237091,57.6667809 460,39.3101204 C441.819336,26.3552413 421.515099,16.2133209 399.716387,9.5 C376.937565,16.5147793 355.798095,27.2840853 337,41.0836351 C361.681676,59.2014779 382.313589,82.5459039 397.283613,109.5 Z" id="Stroke-15" stroke="#3686FF"></path>
                <path d="M398,109.731225 C382.959782,82.8500686 362.231127,59.5688145 337.43372,41.5 C284.436393,80.1169542 250,142.543239 250,212.998048 C250,283.453832 284.436393,345.88207 337.43372,384.5 C362.231127,366.430209 382.959782,343.148955 398,316.266823 C380.894634,285.697915 371.134514,250.486616 371.134514,212.998048 C371.134514,175.509479 380.894634,140.299157 398,109.731225 Z" id="Stroke-17" stroke="#3686FF"></path>
                <path d="M648,10.4194192 C627.6336,3.98554144 605.937049,0.5 583.417073,0.5 C562.426038,0.5 542.151238,3.53254688 523,9.15335753 C546.310271,15.9947368 567.947379,26.6904416 587.160982,40.5 C605.475151,27.4434967 625.968232,17.1988506 648,10.4194192 Z" id="Stroke-19" stroke="#3686FF"></path>
                <path d="M523,415.741856 C542.230548,421.432347 562.589312,424.5 583.667277,424.5 C605.719832,424.5 626.990562,421.156053 647,414.949224 C625.183264,408.00267 604.893974,397.642605 586.755437,384.5 C567.630567,398.245162 546.13576,408.897198 523,415.741856 Z" id="Stroke-21" stroke="#3686FF"></path>
                <path d="M524.202273,111.5 C539.587736,83.5876734 561.123471,59.4994466 587,41.0193801 C567.713887,27.1332945 545.997204,16.3792916 522.599173,9.5 C499.930802,16.1641921 478.831298,26.4578236 460,39.7209966 C486.53381,58.4103227 508.575221,82.9715739 524.202273,111.5 Z" id="Stroke-23" stroke="#3686FF"></path>
                <path d="M523.760447,314.5 C508.191534,342.954814 486.311745,367.460749 460,386.133334 C478.782397,399.460557 499.826134,409.803139 522.436616,416.5 C545.501707,409.667207 566.932741,399.035158 586,385.316763 C560.339927,366.704809 538.991816,342.509856 523.760447,314.5 Z" id="Stroke-25" stroke="#3686FF"></path>
                <path d="M525,111.374486 C509.408611,82.8081103 487.417501,58.2141871 460.944245,39.5 C435.087736,57.7785428 413.519175,81.6727062 398,109.391183 C415.086414,139.912598 424.835302,175.068215 424.835302,212.498538 C424.835302,249.928862 415.086414,285.084479 398,315.605893 C413.519175,343.325345 435.087736,367.220483 460.944245,385.5 C487.265266,366.891069 509.151958,342.468675 524.725782,314.110863 C508.321497,284.054331 499.001014,249.605296 499.001014,212.985836 C499.001014,176.166584 508.428843,141.545045 525,111.374486 Z" id="Stroke-27" stroke="#3686FF"></path>
                <path d="M398.000982,109.5 C380.809345,139.988662 371,175.107675 371,212.499026 C371,249.890378 380.809345,285.010364 398.000982,315.5 C415.191636,285.010364 425,249.890378 425,212.499026 C425,175.107675 415.191636,139.988662 398.000982,109.5 Z" id="Stroke-29" stroke="#3686FF"></path>
                <g id="Group-33" transform="translate(647.000000, 8.500000)">
                    <mask id="mask-2" fill="white">
                        <use xlink:href="#path-1"></use>
                    </mask>
                    <g id="Clip-32"></g>
                    <path d="M7.5007,0.3716 C5.2467,0.9906 3.0027,1.6326 0.7777,2.3216 C3.0357,3.0396 5.2757,3.7946 7.5007,4.5826" id="Stroke-31" stroke="#3686FF" mask="url(#mask-2)"></path>
                </g>
                <g id="Group-36" transform="translate(646.000000, 412.500000)">
                    <mask id="mask-4" fill="white">
                        <use xlink:href="#path-3"></use>
                    </mask>
                    <g id="Clip-35"></g>
                    <path d="M8.5007,0.5639 C5.7647,1.5339 3.0107,2.4629 0.2267,3.3259 C2.9617,4.1959 5.7197,5.0119 8.5007,5.7759" id="Stroke-34" stroke="#3686FF" mask="url(#mask-4)"></path>
                </g>
                <g id="Group-39" transform="translate(586.000000, 313.500000)">
                    <mask id="mask-6" fill="white">
                        <use xlink:href="#path-5"></use>
                    </mask>
                    <g id="Clip-38"></g>
                    <path d="M68.5147648,10.2536229 C66.6109479,7.15573714 64.7790465,4.00830857 63.0326662,0.808422857 C47.7477085,28.6670514 26.348962,52.71088 0.64014507,71.1544229 C18.6549761,84.1851657 38.8058915,94.4570514 60.4738352,101.34448 C63.1794127,100.507109 65.8558352,99.6046514 68.5147648,98.6623657" id="Stroke-37" stroke="#3686FF" mask="url(#mask-6)"></path>
                </g>
                <g id="Group-42" transform="translate(587.000000, 10.500000)">
                    <mask id="mask-8" fill="white">
                        <use xlink:href="#path-7"></use>
                    </mask>
                    <g id="Clip-41"></g>
                    <path d="M67.5149657,2.50849038 C65.3535371,1.74225 63.1775371,1.01 60.9840514,0.311740385 C39.0210229,7.11467308 18.5928514,17.3933654 0.335822857,30.4922885 C25.8853657,48.9752885 47.1431371,73.0016346 62.30908,100.817423 C63.9721657,97.7854808 65.70908,94.7991827 67.5149657,91.8604712" id="Stroke-40" stroke="#3686FF" mask="url(#mask-8)"></path>
                </g>
                <path d="M524.273813,112.09775 C540.652895,142.162287 549.958638,176.623707 549.958638,213.255295 C549.958638,250.085767 540.545708,284.719748 524,314.901275 C539.213672,342.824892 560.536977,366.945351 586.167234,385.5 C611.944629,366.990197 633.399482,342.859989 648.726187,314.901275 C632.346131,284.834788 623.040388,250.374343 623.040388,213.742755 C623.040388,176.911308 632.453317,142.278302 649,112.09775 C633.788277,84.1751084 612.464971,60.0556242 586.835689,41.5 C561.056345,60.010778 539.601492,84.1390364 524.273813,112.09775 Z" id="Stroke-43" stroke="#3686FF"></path>
                <path d="M524.138828,111.5 C507.478538,141.709791 498,176.376349 498,213.243478 C498,249.910555 507.370616,284.404385 523.863135,314.5 C540.522443,284.289233 550,249.621699 550,212.755546 C550,176.088469 540.630365,141.593664 524.138828,111.5 Z" id="Stroke-45" stroke="#3686FF"></path>
                <g id="Group-49" transform="translate(648.000000, 303.500000)">
                    <mask id="mask-10" fill="white">
                        <use xlink:href="#path-9"></use>
                    </mask>
                    <g id="Clip-48"></g>
                    <path d="M6.5007,0.769459091 C4.7217,4.33373182 2.8427,7.84455 0.8597,11.2942773 C2.6567,14.43855 4.5417,17.5312773 6.5007,20.5753227" id="Stroke-47" stroke="#3686FF" mask="url(#mask-10)"></path>
                </g>
                <g id="Group-52" transform="translate(649.000000, 102.500000)">
                    <mask id="mask-12" fill="white">
                        <use xlink:href="#path-11"></use>
                    </mask>
                    <g id="Clip-51"></g>
                    <path d="M5.5007,0.560761905 C3.6417,3.44266667 1.8537,6.3712381 0.1417,9.34457143 C2.0217,12.6312381 3.8037,15.9769524 5.5007,19.3693333" id="Stroke-50" stroke="#3686FF" mask="url(#mask-12)"></path>
                </g>
                <g id="Group-55" transform="translate(623.000000, 110.500000)">
                    <mask id="mask-14" fill="white">
                        <use xlink:href="#path-13"></use>
                    </mask>
                    <g id="Clip-54"></g>
                    <path d="M31.5158303,11.0661703 C29.8702545,7.58938565 28.1422545,4.16140478 26.3192242,0.791988517 C9.8518303,31.0083904 0.485527273,65.68351 0.485527273,102.55773 C0.485527273,139.232831 9.74613333,173.734209 26.0457697,203.83641 C27.9686788,200.308869 29.7907394,196.718859 31.5158303,193.074189" id="Stroke-53" stroke="#3686FF" mask="url(#mask-14)"></path>
                </g>
            </g>
        </g>
    </g>
</svg>