<svg xmlns="http://www.w3.org/2000/svg" viewBox="0 0 304 152"><defs><style>.cls-1{fill:#ffcfe1;}.cls-2,.cls-3{fill:none;stroke:#0062ff;stroke-miterlimit:10;}.cls-3{fill-rule:evenodd;}</style></defs><title>Asset 28</title><g id="Layer_2" data-name="Layer 2"><g id="Layer_1-2" data-name="Layer 1"><rect class="cls-1" width="304" height="152"/><polygon class="cls-2" points="110.3 33.82 110.3 22.86 114.94 22.86 114.94 33.53 124.16 28.05 126.4 32.03 116.85 37.71 126.4 43.38 124.16 47.37 114.94 41.88 114.94 53.52 110.3 53.52 110.3 41.6 100.59 47.37 98.36 43.38 107.91 37.71 98.36 32.03 100.59 28.05 110.3 33.82"/><rect class="cls-2" x="55.52" y="60.94" width="30.66" height="30.66"/><polygon class="cls-3" points="94.27 91.61 112.24 61.64 130.23 91.61 94.27 91.61"/><circle class="cls-2" cx="157.26" cy="38.19" r="15.33"/><polyline class="cls-2" points="42.47 78.99 30.16 91.29 17.86 78.99"/><polyline class="cls-2" points="30.16 91.36 30.16 35.16 86.19 35.16"/><polyline class="cls-2" points="73.89 22.86 86.19 35.16 73.89 47.46"/><polyline class="cls-2" points="261.54 35.91 273.84 23.61 286.14 35.91"/><polyline class="cls-2" points="286.14 116.61 273.84 128.91 261.54 116.61"/><line class="cls-2" x1="273.84" y1="128.91" x2="273.84" y2="23.55"/><path class="cls-3" d="M53.44,114.44l10.35-10.36a14.38,14.38,0,0,1,4.9-3.22,15.37,15.37,0,0,1,5.66-1.06,14.33,14.33,0,0,1,10.14,4.28,14.68,14.68,0,0,1,3.21,4.83,14.47,14.47,0,0,1,1.07,5.46,14.93,14.93,0,0,1-1.06,5.56,14.58,14.58,0,0,1-8.1,8.09A15.16,15.16,0,0,1,74,129.09,14.27,14.27,0,0,1,68.59,128a14.71,14.71,0,0,1-4.8-3.21Z"/><path class="cls-3" d="M18.11,114.37a14.28,14.28,0,0,1,1.07-5.46,14.68,14.68,0,0,1,3.21-4.83A14.33,14.33,0,0,1,32.53,99.8a15.37,15.37,0,0,1,5.66,1.06,14.38,14.38,0,0,1,4.9,3.22l10.35,10.36L43.09,124.8a14.71,14.71,0,0,1-4.8,3.21,14.27,14.27,0,0,1-5.41,1.08A15.16,15.16,0,0,1,27.27,128a14.61,14.61,0,0,1-9.16-13.65Z"/><path class="cls-2" d="M132.83,101.14c7.33-4.9,20.85-8.06,28.63,2.94,9.34,13.22.64,21.47-3.94,23.58-5.31,2.45-12.57,1.59-15.62-3-4.21-6.31-2.51-13,4.28-16.27,7.2-3.48,19.26-2.44,29.95-9.58,8.38-5.6,10.87-13.22,6.74-19.4-4.82-7.21-14-7.11-24.44-.16-8.31,5.56-17.64,2.94-21.08-2.21-4.13-6.18-2.69-13.1,2.54-16.6a28,28,0,0,1,7-3.17"/><circle class="cls-2" cx="120.32" cy="105.77" r="7.17"/><circle class="cls-2" cx="120.32" cy="121.91" r="7.17"/><circle class="cls-2" cx="104.18" cy="121.91" r="7.17"/><polygon class="cls-2" points="236.07 109.43 236.07 98.48 240.71 98.48 240.71 109.15 249.93 103.67 252.17 107.65 242.62 113.32 252.17 119 249.93 122.98 240.71 117.5 240.71 129.14 236.07 129.14 236.07 117.21 226.36 122.98 224.13 119 233.68 113.32 224.13 107.65 226.36 103.67 236.07 109.43"/><polyline class="cls-2" points="209.76 116.77 197.46 129.07 185.16 116.77"/><polyline class="cls-2" points="197.46 129.14 197.46 72.94 253.48 72.94"/><polyline class="cls-2" points="241.18 60.64 253.48 72.94 241.18 85.24"/><path class="cls-3" d="M220.73,38.19l10.35-10.35A14.6,14.6,0,0,1,236,24.61a15.32,15.32,0,0,1,5.65-1.06,14.34,14.34,0,0,1,10.14,4.29,14.46,14.46,0,0,1,4.29,10.28A15,15,0,0,1,255,43.69a14.61,14.61,0,0,1-8.1,8.08,15.16,15.16,0,0,1-5.61,1.07,14.15,14.15,0,0,1-5.41-1.08,14.77,14.77,0,0,1-4.8-3.21Z"/><path class="cls-3" d="M185.4,38.12a14.46,14.46,0,0,1,4.29-10.28,14.32,14.32,0,0,1,10.14-4.29,15.36,15.36,0,0,1,5.65,1.06,14.6,14.6,0,0,1,4.91,3.23l10.34,10.35L210.39,48.55a14.77,14.77,0,0,1-4.8,3.21,14.15,14.15,0,0,1-5.41,1.08,15.16,15.16,0,0,1-5.61-1.07,14.61,14.61,0,0,1-8.1-8.08A15,15,0,0,1,185.4,38.12Z"/></g></g></svg>