<?xml version="1.0" encoding="UTF-8"?>
<svg width="356px" height="178px" viewBox="0 0 356 178" version="1.1" xmlns="http://www.w3.org/2000/svg" xmlns:xlink="http://www.w3.org/1999/xlink">
    <title>solutions</title>
    <g id="solutions" stroke="none" stroke-width="1" fill="none" fill-rule="evenodd">
        <rect fill="#FFFFFF" x="0" y="0" width="356" height="178"></rect>
        <g id="Group-64" transform="translate(68.000000, 7.000000)">
            <path d="M133.876256,87.7123003 C133.876256,121.706837 106.318525,149.264568 72.3239882,149.264568 C38.3294511,149.264568 10.7717204,121.706837 10.7717204,87.7123003 C10.7717204,53.7177632 38.3294511,26.1600325 72.3239882,26.1600325 C106.318525,26.1600325 133.876256,53.7177632 133.876256,87.7123003" id="Fill-1" fill="#FFFFFF"></path>
            <path d="M133.876256,87.7123003 C133.876256,121.706837 106.318525,149.264568 72.3239882,149.264568 C38.3294511,149.264568 10.7717204,121.706837 10.7717204,87.7123003 C10.7717204,53.7177632 38.3294511,26.1600325 72.3239882,26.1600325 C106.318525,26.1600325 133.876256,53.7177632 133.876256,87.7123003 Z" id="Stroke-3" stroke="#3C3838" stroke-width="0.72" stroke-linejoin="round"></path>
            <path d="M109.43993,118.488434 C109.43993,126.884823 116.246488,133.69138 124.643857,133.69138 C133.040246,133.69138 139.846803,126.884823 139.846803,118.488434 C139.846803,110.092045 133.040246,103.285488 124.643857,103.285488 C116.246488,103.285488 109.43993,110.092045 109.43993,118.488434" id="Fill-5" fill="#F4F4F4"></path>
            <path d="M109.43993,118.488434 C109.43993,126.884823 116.246488,133.69138 124.643857,133.69138 C133.040246,133.69138 139.846803,126.884823 139.846803,118.488434 C139.846803,110.092045 133.040246,103.285488 124.643857,103.285488 C116.246488,103.285488 109.43993,110.092045 109.43993,118.488434 Z" id="Stroke-7" stroke="#3C3838" stroke-width="0.72" stroke-linejoin="round"></path>
            <polygon id="Fill-9" fill="#F7F3F2" points="109.255349 133.87655 109.255349 103.100907 140.030992 103.100907 140.030992 115.463537 140.030992 133.87655"></polygon>
            <polygon id="Stroke-11" stroke="#3C3838" stroke-width="0.72" stroke-linejoin="round" points="109.255349 133.87655 109.255349 103.100907 140.030992 103.100907 140.030992 115.463537 140.030992 133.87655"></polygon>
            <polygon id="Fill-13" fill="#F7F3F2" points="135.415185 107.717302 144.648172 107.717302 144.648172 98.4843149 135.415185 98.4843149"></polygon>
            <polygon id="Fill-15" fill="#F7F3F2" points="135.415185 138.492946 144.648172 138.492946 144.648172 129.259958 135.415185 129.259958"></polygon>
            <polygon id="Fill-16" fill="#F7F3F2" points="104.638561 107.717302 113.871548 107.717302 113.871548 98.4843149 104.638561 98.4843149"></polygon>
            <polygon id="Fill-17" fill="#F7F3F2" points="104.638561 138.492946 113.871548 138.492946 113.871548 129.259958 104.638561 129.259958"></polygon>
            <polygon id="Fill-18" fill="#3C3838" points="118.488042 124.643465 130.798692 124.643465 130.798692 112.332815 118.488042 112.332815"></polygon>
            <polygon id="Stroke-19" stroke="#3C3838" stroke-width="0.72" stroke-linejoin="round" points="118.488042 124.643465 130.798692 124.643465 130.798692 112.332815 118.488042 112.332815"></polygon>
            <path d="M32.851055,110.502204 C28.6523703,103.230761 19.354652,100.7396 12.0832087,104.937304 C4.81078457,109.135989 2.31962377,118.433707 6.51830856,125.706131 C10.7160126,132.977575 20.0147116,135.468735 27.2861549,131.270051 C34.5575983,127.072347 37.0497398,117.773648 32.851055,110.502204" id="Fill-20" fill="#FFFFFF"></path>
            <path d="M32.851055,110.502204 C28.6523703,103.230761 19.354652,100.7396 12.0832087,104.937304 C4.81078457,109.135989 2.31962377,118.433707 6.51830856,125.706131 C10.7160126,132.977575 20.0147116,135.468735 27.2861549,131.270051 C34.5575983,127.072347 37.0497398,117.773648 32.851055,110.502204 Z" id="Stroke-21" stroke="#3C3838" stroke-width="0.72" stroke-linejoin="round"></path>
            <path d="M72.3240862,133.291814 C63.9276975,133.291814 57.12114,140.098371 57.12114,148.495741 C57.12114,156.89213 63.9276975,163.698687 72.3240862,163.698687 C80.720475,163.698687 87.5270325,156.89213 87.5270325,148.495741 C87.5270325,140.098371 80.720475,133.291814 72.3240862,133.291814" id="Fill-22" fill="#FFFFFF"></path>
            <path d="M72.3240862,133.291814 C63.9276975,133.291814 57.12114,140.098371 57.12114,148.495741 C57.12114,156.89213 63.9276975,163.698687 72.3240862,163.698687 C80.720475,163.698687 87.5270325,156.89213 87.5270325,148.495741 C87.5270325,140.098371 80.720475,133.291814 72.3240862,133.291814 Z" id="Stroke-23" stroke="#3C3838" stroke-width="0.72" stroke-linejoin="round"></path>
            <path d="M109.43993,118.488434 C109.43993,126.884823 116.246488,133.69138 124.643857,133.69138 C133.040246,133.69138 139.846803,126.884823 139.846803,118.488434 C139.846803,110.092045 133.040246,103.285488 124.643857,103.285488 C116.246488,103.285488 109.43993,110.092045 109.43993,118.488434" id="Fill-24" fill="#F4F4F4"></path>
            <path d="M109.43993,118.488434 C109.43993,126.884823 116.246488,133.69138 124.643857,133.69138 C133.040246,133.69138 139.846803,126.884823 139.846803,118.488434 C139.846803,110.092045 133.040246,103.285488 124.643857,103.285488 C116.246488,103.285488 109.43993,110.092045 109.43993,118.488434 Z" id="Stroke-25" stroke="#3C3838" stroke-width="0.72" stroke-linejoin="round"></path>
            <polygon id="Fill-26" fill="#FFFFFF" points="109.255349 133.87655 109.255349 103.100907 140.030992 103.100907 140.030992 115.463537 140.030992 133.87655"></polygon>
            <polygon id="Stroke-27" stroke="#3C3838" stroke-width="0.72" stroke-linejoin="round" points="109.255349 133.87655 109.255349 103.100907 140.030992 103.100907 140.030992 115.463537 140.030992 133.87655"></polygon>
            <polygon id="Fill-28" fill="#FFFFFF" points="135.415185 107.717302 144.648172 107.717302 144.648172 98.4843149 135.415185 98.4843149"></polygon>
            <polygon id="Fill-29" fill="#FFFFFF" points="135.415185 138.492946 144.648172 138.492946 144.648172 129.259958 135.415185 129.259958"></polygon>
            <polygon id="Fill-30" fill="#FFFFFF" points="104.638561 107.717302 113.871548 107.717302 113.871548 98.4843149 104.638561 98.4843149"></polygon>
            <polygon id="Fill-31" fill="#FFFFFF" points="104.638561 138.492946 113.871548 138.492946 113.871548 129.259958 104.638561 129.259958"></polygon>
            <polygon id="Fill-32" fill="#3C3838" points="118.488042 124.643465 130.798692 124.643465 130.798692 112.332815 118.488042 112.332815"></polygon>
            <polygon id="Stroke-33" stroke="#3C3838" stroke-width="0.72" stroke-linejoin="round" points="118.488042 124.643465 130.798692 124.643465 130.798692 112.332815 118.488042 112.332815"></polygon>
            <g id="Group-36" transform="translate(71.819283, 27.129820)">
                <line x1="37.4360659" y1="75.9705964" x2="0" y2="0" id="Fill-34" fill="#3C3838"></line>
                <line x1="37.4360659" y1="75.9705964" x2="0" y2="0" id="Stroke-35" stroke="#3C3838" stroke-width="0.72"></line>
            </g>
            <path d="M72.3238901,42.1328848 C80.7202789,42.1328848 87.5268363,35.3263273 87.5268363,26.9289578 C87.5268363,18.532569 80.7202789,11.7260115 72.3238901,11.7260115 C63.9275013,11.7260115 57.1209439,18.532569 57.1209439,26.9289578 C57.1209439,35.3263273 63.9275013,42.1328848 72.3238901,42.1328848" id="Fill-37" fill="#FFFFFF"></path>
            <path d="M72.3238901,42.1328848 C80.7202789,42.1328848 87.5268363,35.3263273 87.5268363,26.9289578 C87.5268363,18.532569 80.7202789,11.7260115 72.3238901,11.7260115 C63.9275013,11.7260115 57.1209439,18.532569 57.1209439,26.9289578 C57.1209439,35.3263273 63.9275013,42.1328848 72.3238901,42.1328848 Z" id="Stroke-38" stroke="#3C3838" stroke-width="0.72" stroke-linejoin="round"></path>
            <path d="M4.80097685,56.9360683 C4.80097685,65.3324571 11.6075343,72.1390146 20.0049038,72.1390146 C28.4012926,72.1390146 35.2078501,65.3324571 35.2078501,56.9360683 C35.2078501,48.5396796 28.4012926,41.7331221 20.0049038,41.7331221 C11.6075343,41.7331221 4.80097685,48.5396796 4.80097685,56.9360683" id="Fill-39" fill="#F4F4F4"></path>
            <path d="M4.80097685,56.9360683 C4.80097685,65.3324571 11.6075343,72.1390146 20.0049038,72.1390146 C28.4012926,72.1390146 35.2078501,65.3324571 35.2078501,56.9360683 C35.2078501,48.5396796 28.4012926,41.7331221 20.0049038,41.7331221 C11.6075343,41.7331221 4.80097685,48.5396796 4.80097685,56.9360683 Z" id="Stroke-40" stroke="#3C3838" stroke-width="0.72" stroke-linejoin="round"></path>
            <polygon id="Fill-41" fill="#FFFFFF" points="4.61639556 72.3241843 4.61639556 41.5485408 35.3920391 41.5485408 35.3920391 53.9111715 35.3920391 72.3241843"></polygon>
            <polygon id="Stroke-42" stroke="#3C3838" stroke-width="0.72" stroke-linejoin="round" points="4.61639556 72.3241843 4.61639556 41.5485408 35.3920391 41.5485408 35.3920391 53.9111715 35.3920391 72.3241843"></polygon>
            <polygon id="Fill-43" fill="#FFFFFF" points="30.7766243 46.1650345 40.0096115 46.1650345 40.0096115 36.9320472 30.7766243 36.9320472"></polygon>
            <polygon id="Fill-44" fill="#FFFFFF" points="30.7766243 76.940678 40.0096115 76.940678 40.0096115 67.7076907 30.7766243 67.7076907"></polygon>
            <polygon id="Fill-45" fill="#FFFFFF" points="0 46.1645441 0 36.9315568 9.23298728 36.9315568 9.23298728 46.1645441"></polygon>
            <polygon id="Fill-46" fill="#FFFFFF" points="0 76.940678 0 67.7076907 9.23298728 67.7076907 9.23298728 76.940678"></polygon>
            <polygon id="Fill-47" fill="#3C3838" points="13.8494809 63.091197 26.1601306 63.091197 26.1601306 50.7805473 13.8494809 50.7805473"></polygon>
            <polygon id="Stroke-48" stroke="#3C3838" stroke-width="0.72" stroke-linejoin="round" points="13.8494809 63.091197 26.1601306 63.091197 26.1601306 50.7805473 13.8494809 50.7805473"></polygon>
            <path d="M193.850462,19.6517279 C187.270462,19.6517279 181.140638,23.1923147 177.85309,28.8935421 L162.808048,54.9830571 L163.42005,55.3351543 L178.465092,29.2456392 C181.627101,23.7631239 187.52154,20.3578837 193.850462,20.3578837 C203.64347,20.3578837 211.611261,28.3256751 211.611261,38.1186832 L211.611261,51.8455676 L212.317417,51.8455676 L212.317417,38.1186832 C212.317417,27.9363087 204.032836,19.6517279 193.850462,19.6517279" id="Fill-49" fill="#3C3838"></path>
            <path d="M173.663232,6.8497114 L177.617705,4.4408921e-15 L176.797779,4.4408921e-15 L172.807999,6.91836544 L144.75694,55.503847 C142.764992,58.9551836 138.335826,60.1419177 134.884489,58.148989 C131.440999,56.1609643 130.253284,51.7474904 132.228559,48.2990962 L160.113868,4.4408921e-15 L159.296884,4.4408921e-15 L131.628327,47.9234605 C131.623423,47.9313067 131.6195,47.9401336 131.615577,47.9479798 L125.959465,57.7439302 C123.967517,61.1952668 119.53737,62.3829816 116.087014,60.390053 C112.635677,58.3971243 111.448943,53.9689389 113.440891,50.5176024 L142.607088,4.4408921e-15 L141.792066,4.4408921e-15 L112.82987,50.1635437 C111.770637,51.9995488 111.488174,54.1376317 112.037407,56.1845028 C112.585658,58.2313739 113.897931,59.9418402 115.733936,61.0020547 C116.955978,61.7072297 118.312386,62.0681538 119.687428,62.0681538 C120.37593,62.0681538 121.070316,61.976942 121.753914,61.7935377 C123.800786,61.2452861 125.511252,59.9330132 126.571466,58.0979889 L130.612247,51.0992001 C130.315073,54.1052662 131.749942,57.1544863 134.531412,58.7609907 C135.777973,59.4798966 137.140265,59.822186 138.484903,59.822186 C141.229103,59.822186 143.901707,58.3990859 145.368942,55.856925 L148.146488,51.0462385 C148.044488,52.0054334 148.112161,52.9842439 148.369123,53.9434388 C148.918356,55.9903099 150.230628,57.7007762 152.065653,58.7609907 C153.312214,59.4798966 154.674506,59.822186 156.019145,59.822186 C158.763345,59.822186 161.435948,58.3990859 162.903183,55.856925 L162.291181,55.503847 C160.299233,58.9551836 155.870067,60.1419177 152.418731,58.148989 C150.747495,57.1839094 149.550953,55.6254628 149.051741,53.7610153 C148.551547,51.8965678 148.808509,49.9487546 149.773589,48.2765384 L173.663232,6.8497114 Z" id="Fill-50" fill="#3C3838"></path>
            <path d="M220.049529,0.000392308786 L120.97783,0.000392308786 L93.0209247,48.3848157 C91.570363,50.8946111 92.4746347,54.1076201 95.0226803,55.4924701 C101.431044,58.9742106 109.446894,56.7164735 113.096346,50.4022636 L129.653738,21.7941261 C136.455392,10.0434972 149.008292,2.81226553 162.585119,2.82501557 L192.391759,2.85345796 C202.726154,2.86326567 211.133331,11.1802119 211.252985,21.5136254 C211.364793,31.0467289 204.352274,39.16654 194.905478,40.4444858 L149.994949,46.4389641 C144.308433,47.1284468 140.031287,51.9548256 140.031287,57.6835147 C140.031287,63.2199724 144.519299,67.7079849 150.055757,67.7079849 L220.049529,67.7079849 L220.049529,0.000392308786 Z" id="Fill-51" fill="#FFFFFF"></path>
            <path d="M220.049529,67.3547109 L150.055757,67.3547109 C144.7233,67.3547109 140.384364,63.0157757 140.384364,57.6833185 C140.384364,52.1399954 144.534991,47.4558285 150.042026,46.7889035 L194.952555,40.7944253 C204.560197,39.4949024 211.718852,31.204437 211.606063,21.5095061 C211.484447,11.0378038 202.864442,2.50999161 192.391759,2.50018389 L162.586099,2.47272228 L162.549811,2.47272228 C148.904331,2.47272228 136.184699,9.80595426 129.348718,21.617391 L112.790345,50.2255285 C109.209547,56.4220458 101.482044,58.6003403 95.1913731,55.1813692 C94.0438699,54.558579 93.2160983,53.5219031 92.8620397,52.2655342 C92.507981,51.0081845 92.6737314,49.6919885 93.3269256,48.5611585 L121.385831,0.000196154393 L120.570809,0.000196154393 L92.7159046,48.2080806 C91.9656141,49.5056419 91.7763251,51.0140691 92.1833455,52.4567847 C92.589385,53.8985195 93.5377915,55.0872151 94.8539875,55.8021979 C101.481064,59.4045733 109.628336,57.1095669 113.401366,50.5786064 L129.959739,21.9714497 C136.670181,10.3767635 149.154427,3.17789732 162.549811,3.17789732 L162.585119,3.17789732 L192.390779,3.20633971 C202.478999,3.21614743 210.782215,11.4301126 210.900888,21.5183331 C211.008773,30.8562629 204.112965,38.8426891 194.858401,40.0951349 L149.952776,46.0886323 C144.095606,46.7987112 139.678209,51.7829944 139.678209,57.6833185 C139.678209,63.4051421 144.333933,68.0608667 150.055757,68.0608667 L220.049529,68.0608667 L220.049529,67.3547109 Z" id="Fill-52" fill="#3C3838"></path>
            <path d="M166.635707,57.6773358 L166.635707,57.6773358 C166.635707,53.4413817 163.202024,50.0067183 158.965089,50.0067183 L150.092045,50.0067183 C145.85511,50.0067183 142.421428,53.4413817 142.421428,57.6773358 L142.421428,57.6773358 C142.421428,61.9132899 145.85511,65.3479533 150.092045,65.3479533 L158.965089,65.3479533 C163.202024,65.3479533 166.635707,61.9132899 166.635707,57.6773358" id="Fill-53" fill="#FFFFFF"></path>
            <path d="M150.091653,50.3597962 C146.056757,50.3597962 142.774113,53.6424399 142.774113,57.6773358 C142.774113,61.7122317 146.056757,64.9948754 150.091653,64.9948754 L158.965678,64.9948754 C163.000574,64.9948754 166.283217,61.7122317 166.283217,57.6773358 C166.283217,53.6424399 163.000574,50.3597962 158.965678,50.3597962 L150.091653,50.3597962 Z M158.965678,65.7010312 L150.091653,65.7010312 C145.667391,65.7010312 142.067958,62.1015981 142.067958,57.6773358 C142.067958,53.2530735 145.667391,49.6536404 150.091653,49.6536404 L158.965678,49.6536404 C163.38994,49.6536404 166.989373,53.2530735 166.989373,57.6773358 C166.989373,62.1015981 163.38994,65.7010312 158.965678,65.7010312 L158.965678,65.7010312 Z" id="Fill-54" fill="#3C3838"></path>
            <path d="M111.796921,64.9224945 C115.995606,72.1939378 125.293324,74.6850986 132.564768,70.4873946 C139.837192,66.2887098 142.328353,56.9909916 138.129668,49.7185675 C133.931964,42.4471241 124.633265,39.9559633 117.361821,44.1546481 C110.090378,48.3523521 107.598237,57.6510511 111.796921,64.9224945" id="Fill-55" fill="#DEFBE6"></path>
            <path d="M111.796921,64.9224945 C115.995606,72.1939378 125.293324,74.6850986 132.564768,70.4873946 C139.837192,66.2887098 142.328353,56.9909916 138.129668,49.7185675 C133.931964,42.4471241 124.633265,39.9559633 117.361821,44.1546481 C110.090378,48.3523521 107.598237,57.6510511 111.796921,64.9224945 Z" id="Stroke-56" stroke="#3C3838" stroke-width="0.72" stroke-linejoin="round"></path>
            <path d="M133.811427,57.5516989 L133.811427,66.1687614 L125.194364,66.1687614 C119.755003,66.1687614 115.345452,61.7601914 115.345452,56.3208301 L115.345452,47.7037676 L123.963496,47.7037676 C129.401876,47.7037676 133.811427,52.1123376 133.811427,57.5516989" id="Fill-57" fill="#DEFBE6"></path>
            <path d="M133.811427,57.5516989 L133.811427,66.1687614 L125.194364,66.1687614 C119.755003,66.1687614 115.345452,61.7601914 115.345452,56.3208301 L115.345452,47.7037676 L123.963496,47.7037676 C129.401876,47.7037676 133.811427,52.1123376 133.811427,57.5516989 Z" id="Stroke-58" stroke="#3C3838" stroke-width="0.72" stroke-linejoin="round"></path>
            <line x1="133.782494" y1="66.1554229" x2="115.345943" y2="47.7188715" id="Stroke-59" stroke="#3C3838" stroke-width="0.72" stroke-linejoin="round"></line>
            <line x1="116.949407" y1="61.5193138" x2="129.240441" y2="61.5193138" id="Stroke-60" stroke="#3C3838" stroke-width="0.72" stroke-linejoin="round"></line>
            <line x1="129.240637" y1="49.3663722" x2="129.240637" y2="61.5524639" id="Stroke-61" stroke="#3C3838" stroke-width="0.72" stroke-linejoin="round"></line>
            <line x1="115.345747" y1="55.3973352" x2="123.104634" y2="55.3973352" id="Stroke-62" stroke="#3C3838" stroke-width="0.72" stroke-linejoin="round"></line>
            <line x1="123.104634" y1="47.7033753" x2="123.104634" y2="55.3975314" id="Stroke-63" stroke="#3C3838" stroke-width="0.72" stroke-linejoin="round"></line>
        </g>
    </g>
</svg>