<svg xmlns="http://www.w3.org/2000/svg" viewBox="0 0 304 152"><defs><style>.cls-2,.cls-3{fill:none;stroke:#0062ff;stroke-miterlimit:10}.cls-3{fill-rule:evenodd}</style></defs><g id="Layer_2" data-name="Layer 2"><g id="Layer_1-2" data-name="Layer 1"><path fill="#ffcfe1" d="M0 0h304v152H0z"/><path class="cls-2" d="M110.3 33.82V22.86h4.64v10.67l9.22-5.48 2.24 3.98-9.55 5.68 9.55 5.67-2.24 3.99-9.22-5.49v11.64h-4.64V41.6l-9.71 5.77-2.23-3.99 9.55-5.67-9.55-5.68 2.23-3.98 9.71 5.77zM55.52 60.94h30.66V91.6H55.52z"/><path class="cls-3" d="M94.27 91.61l17.97-29.97 17.99 29.97H94.27z"/><circle class="cls-2" cx="157.26" cy="38.19" r="15.33"/><path class="cls-2" d="M42.47 78.99l-12.31 12.3-12.3-12.3"/><path class="cls-2" d="M30.16 91.36v-56.2h56.03"/><path class="cls-2" d="M73.89 22.86l12.3 12.3-12.3 12.3M261.54 35.91l12.3-12.3 12.3 12.3M286.14 116.61l-12.3 12.3-12.3-12.3M273.84 128.91V23.55"/><path class="cls-3" d="M53.44 114.44l10.35-10.36a14.38 14.38 0 0 1 4.9-3.22 15.37 15.37 0 0 1 5.66-1.06 14.33 14.33 0 0 1 10.14 4.28 14.68 14.68 0 0 1 3.21 4.83 14.47 14.47 0 0 1 1.07 5.46 14.93 14.93 0 0 1-1.06 5.56 14.58 14.58 0 0 1-8.1 8.09 15.16 15.16 0 0 1-5.61 1.07 14.27 14.27 0 0 1-5.41-1.09 14.71 14.71 0 0 1-4.8-3.21zM18.11 114.37a14.28 14.28 0 0 1 1.07-5.46 14.68 14.68 0 0 1 3.21-4.83 14.33 14.33 0 0 1 10.14-4.28 15.37 15.37 0 0 1 5.66 1.06 14.38 14.38 0 0 1 4.9 3.22l10.35 10.36-10.35 10.36a14.71 14.71 0 0 1-4.8 3.21 14.27 14.27 0 0 1-5.41 1.08 15.16 15.16 0 0 1-5.61-1.09 14.61 14.61 0 0 1-9.16-13.65z"/><path class="cls-2" d="M132.83 101.14c7.33-4.9 20.85-8.06 28.63 2.94 9.34 13.22.64 21.47-3.94 23.58-5.31 2.45-12.57 1.59-15.62-3-4.21-6.31-2.51-13 4.28-16.27 7.2-3.48 19.26-2.44 29.95-9.58 8.38-5.6 10.87-13.22 6.74-19.4-4.82-7.21-14-7.11-24.44-.16-8.31 5.56-17.64 2.94-21.08-2.21-4.13-6.18-2.69-13.1 2.54-16.6a28 28 0 0 1 7-3.17"/><circle class="cls-2" cx="120.32" cy="105.77" r="7.17"/><circle class="cls-2" cx="120.32" cy="121.91" r="7.17"/><circle class="cls-2" cx="104.18" cy="121.91" r="7.17"/><path class="cls-2" d="M236.07 109.43V98.48h4.64v10.67l9.22-5.48 2.24 3.98-9.55 5.67 9.55 5.68-2.24 3.98-9.22-5.48v11.64h-4.64v-11.93l-9.71 5.77-2.23-3.98 9.55-5.68-9.55-5.67 2.23-3.98 9.71 5.76zM209.76 116.77l-12.3 12.3-12.3-12.3"/><path class="cls-2" d="M197.46 129.14v-56.2h56.02"/><path class="cls-2" d="M241.18 60.64l12.3 12.3-12.3 12.3"/><path class="cls-3" d="M220.73 38.19l10.35-10.35a14.6 14.6 0 0 1 4.92-3.23 15.32 15.32 0 0 1 5.65-1.06 14.34 14.34 0 0 1 10.14 4.29 14.46 14.46 0 0 1 4.29 10.28 15 15 0 0 1-1.08 5.57 14.61 14.61 0 0 1-8.1 8.08 15.16 15.16 0 0 1-5.61 1.07 14.15 14.15 0 0 1-5.41-1.08 14.77 14.77 0 0 1-4.8-3.21zM185.4 38.12a14.46 14.46 0 0 1 4.29-10.28 14.32 14.32 0 0 1 10.14-4.29 15.36 15.36 0 0 1 5.65 1.06 14.6 14.6 0 0 1 4.91 3.23l10.34 10.35-10.34 10.36a14.77 14.77 0 0 1-4.8 3.21 14.15 14.15 0 0 1-5.41 1.08 15.16 15.16 0 0 1-5.61-1.07 14.61 14.61 0 0 1-8.1-8.08 15 15 0 0 1-1.07-5.57z"/></g></g></svg>