<?xml version="1.0" encoding="UTF-8"?>
<svg width="56px" height="56px" viewBox="0 0 56 56" version="1.1" xmlns="http://www.w3.org/2000/svg" xmlns:xlink="http://www.w3.org/1999/xlink">
    <title>inclusion</title>
    <g id="inclusion" stroke="none" stroke-width="1" fill="none" fill-rule="evenodd">
        <g transform="translate(3.000000, 3.000000)" fill="#161616" fill-rule="nonzero" id="Shape">
            <path d="M25,50 C11.2141667,50 0,38.7858333 0,25 C0,19.1032292 2.07844792,13.4114583 5.86263542,8.91276042 C5.64779167,8.57259375 5.52409375,8.16894792 5.52409375,7.73763542 C5.52409375,6.51692708 6.51692708,5.52409375 7.73763542,5.52409375 C8.17057292,5.52409375 8.57259375,5.64779167 8.91438542,5.86263542 C13.4097917,2.07844792 19.1032292,0 25,0 C38.7858333,0 50,11.2141667 50,25 C50,38.7858333 38.7858333,50 25,50 Z M6.72688542,9.70708333 C3.14128125,13.9860417 1.171875,19.3978125 1.171875,25 C1.171875,38.1380208 11.8603125,48.828125 25,48.828125 C38.1380208,48.828125 48.828125,38.1396875 48.828125,25 C48.828125,11.8603125 38.1396875,1.171875 25,1.171875 C19.3961458,1.171875 13.9860417,3.14128125 9.70708333,6.72688542 C9.86333333,7.03125 9.95114583,7.37305208 9.95114583,7.73763542 C9.95114583,8.95833333 8.95833333,9.95114583 7.73763542,9.95114583 C7.37305208,9.94958333 7.029625,9.86166667 6.72688542,9.70708333 Z M7.73763542,6.69433333 C7.16308333,6.69433333 6.69596875,7.16145833 6.69596875,7.736 C6.69596875,8.31055208 7.16308333,8.77766667 7.73763542,8.77766667 C8.31217708,8.77766667 8.77930208,8.31055208 8.77930208,7.736 C8.77930208,7.16145833 8.31217708,6.69433333 7.73763542,6.69433333 Z M25,41.8619792 C15.703125,41.8619792 8.13802083,34.2985417 8.13802083,25 C8.13802083,16.4566667 14.420625,9.35058333 22.8320833,8.27636458 C23.03875,7.26888542 23.9322917,6.51041667 25,6.51041667 C26.0677083,6.51041667 26.9596875,7.26888542 27.1680208,8.27473958 C35.5794792,9.35058333 41.8619792,16.4566667 41.8619792,25 C41.8619792,34.2985417 34.2985417,41.8619792 25,41.8619792 Z M22.9085417,9.44822917 C15.1188542,10.4801042 9.30989583,17.0752083 9.30989583,25 C9.30989583,33.6507292 16.3492708,40.6901042 25,40.6901042 C33.6507292,40.6901042 40.6901042,33.6523958 40.6901042,25 C40.6901042,17.0752083 34.8828125,10.4801042 27.093125,9.44822917 C26.7919792,10.3141667 25.9667708,10.9375 25,10.9375 C24.0332292,10.9375 23.2080208,10.3141667 22.9085417,9.44822917 Z M25,7.68229167 C24.4254167,7.68229167 23.9583333,8.14941667 23.9583333,8.72395833 C23.9583333,9.2985 24.4254167,9.765625 25,9.765625 C25.5745833,9.765625 26.0416667,9.2985 26.0416667,8.72395833 C26.0416667,8.14941667 25.5745833,7.68229167 25,7.68229167 Z M25,33.7239583 C20.1888542,33.7239583 16.2760417,29.8095833 16.2760417,25 C16.2760417,23.4342708 16.6894792,21.9140625 17.4788542,20.5778125 C17.1988542,20.2066667 17.0329167,19.7461458 17.0329167,19.2464583 C17.0329167,18.0257292 18.0257292,17.0329167 19.2464583,17.0329167 C19.7461458,17.0329167 20.2083333,17.1988542 20.5778125,17.4788542 C21.9157292,16.6910417 23.4342708,16.2760417 25,16.2760417 C29.8095833,16.2760417 33.7239583,20.1888542 33.7239583,25 C33.7239583,29.8095833 29.8095833,33.7239583 25,33.7239583 Z M18.4163542,21.2988542 C17.7815625,22.4235417 17.4479167,23.6930208 17.4479167,25 C17.4479167,29.165 20.8365625,32.5520833 25,32.5520833 C29.1634375,32.5520833 32.5520833,29.165 32.5520833,25 C32.5520833,20.835 29.165,17.4479167 25,17.4479167 C23.6930208,17.4479167 22.4235417,17.7815625 21.2988542,18.4163542 C21.4013542,18.671875 21.46,18.951875 21.46,19.2447917 C21.46,20.4655208 20.4670833,21.4583333 19.2464583,21.4583333 C18.951875,21.4583333 18.671875,21.4013542 18.4163542,21.2988542 Z M19.2447917,18.203125 C18.6702083,18.203125 18.203125,18.6702083 18.203125,19.2447917 C18.203125,19.819375 18.6702083,20.2864583 19.2447917,20.2864583 C19.819375,20.2864583 20.2864583,19.819375 20.2864583,19.2447917 C20.2864583,18.6702083 19.819375,18.203125 19.2447917,18.203125 Z"></path>
        </g>
    </g>
</svg>