<svg xmlns="http://www.w3.org/2000/svg" viewBox="0 0 600.38 340.88"><defs><style>.cls-1,.cls-2{fill:none;stroke:#000;stroke-miterlimit:10;stroke-width:0.8px;}.cls-2{fill-rule:evenodd;}</style></defs><title>Asset 15</title><g id="Layer_2" data-name="Layer 2"><g id="Layer_1-2" data-name="Layer 1"><polygon class="cls-1" points="296.23 35.48 296.23 0.4 311.07 0.4 311.07 34.56 340.61 17.01 347.76 29.77 317.19 47.93 347.76 66.1 340.61 78.85 311.07 61.3 311.07 98.57 296.23 98.57 296.23 60.38 265.15 78.85 257.99 66.1 288.57 47.93 257.99 29.77 265.15 17.01 296.23 35.48"/><rect class="cls-1" x="120.85" y="122.32" width="98.17" height="98.17"/><polygon class="cls-2" points="244.9 220.49 302.44 124.56 360.02 220.49 244.9 220.49"/><circle class="cls-1" cx="446.58" cy="49.48" r="49.08"/><polyline class="cls-1" points="79.04 180.11 39.66 219.49 0.28 180.11"/><polyline class="cls-1" points="39.66 219.69 39.66 39.78 219.02 39.78"/><polyline class="cls-1" points="179.64 0.4 219.02 39.78 179.64 79.16"/><polyline class="cls-1" points="521.34 79.37 560.72 39.99 600.1 79.37"/><polyline class="cls-1" points="600.1 300.55 560.72 339.93 521.34 300.55"/><line class="cls-1" x1="560.72" y1="339.93" x2="560.72" y2="39.78"/><path class="cls-2" d="M114.18,293.59l33.14-33.15A46.25,46.25,0,0,1,163,250.12a49.24,49.24,0,0,1,18.11-3.41,45.94,45.94,0,0,1,32.46,13.73,46.78,46.78,0,0,1,10.29,15.44,46.19,46.19,0,0,1,3.44,17.49,47.54,47.54,0,0,1-3.43,17.81A46.76,46.76,0,0,1,198,337.07a48.57,48.57,0,0,1-18,3.41A45.46,45.46,0,0,1,162.68,337a47,47,0,0,1-15.36-10.29Z"/><path class="cls-2" d="M1.06,293.37a46.18,46.18,0,0,1,3.43-17.49,46.94,46.94,0,0,1,10.29-15.44,46,46,0,0,1,32.47-13.73,49.22,49.22,0,0,1,18.1,3.41,46.39,46.39,0,0,1,15.7,10.32l33.13,33.15L81.05,326.75A47.09,47.09,0,0,1,65.69,337a45.54,45.54,0,0,1-17.33,3.44,48.61,48.61,0,0,1-18-3.41A46.76,46.76,0,0,1,4.48,311.18,47.53,47.53,0,0,1,1.06,293.37Z"/><path class="cls-1" d="M368.37,251c23.47-15.69,66.75-25.82,91.64,9.41,29.91,42.31,2.05,68.75-12.6,75.5-17,7.84-40.26,5.09-50-9.52-13.48-20.19-8-41.55,13.7-52.08,23-11.16,61.66-7.81,95.9-30.69,26.82-17.92,34.77-42.32,21.55-62.1-15.42-23.09-44.91-22.77-78.24-.5-26.61,17.78-56.46,9.4-67.48-7.09C369.61,154.16,374.21,132,391,120.8c10.06-6.72,22.32-10.14,22.32-10.14"/><circle class="cls-1" cx="328.3" cy="265.83" r="22.97"/><circle class="cls-1" cx="328.3" cy="317.51" r="22.97"/><circle class="cls-1" cx="276.62" cy="317.51" r="22.97"/></g></g></svg>