<svg xmlns="http://www.w3.org/2000/svg" viewBox="0 0 288.51 183.83"><defs><style>.cls-1,.cls-2{fill:none;stroke:#000;stroke-miterlimit:10;stroke-width:0.6px;}.cls-2{fill-rule:evenodd;}</style></defs><title>Asset 18</title><g id="Layer_2" data-name="Layer 2"><g id="Layer_1-2" data-name="Layer 1"><polygon class="cls-1" points="159.67 19.2 159.67 0.3 167.66 0.3 167.66 18.7 183.57 9.25 187.43 16.12 170.96 25.91 187.43 35.7 183.57 42.57 167.66 33.11 167.66 53.19 159.67 53.19 159.67 32.62 142.92 42.57 139.06 35.7 155.54 25.91 139.06 16.12 142.92 9.25 159.67 19.2"/><rect class="cls-1" x="65.17" y="65.99" width="52.89" height="52.89"/><polygon class="cls-2" points="132.01 118.88 163.01 67.2 194.03 118.88 132.01 118.88"/><circle class="cls-1" cx="240.67" cy="26.75" r="26.45"/><polyline class="cls-1" points="42.65 97.12 21.43 118.34 0.21 97.12"/><polyline class="cls-1" points="21.43 118.45 21.43 21.52 118.06 21.52"/><polyline class="cls-1" points="96.85 0.3 118.06 21.52 96.85 42.73"/><path class="cls-2" d="M61.58,158.27l17.85-17.86a24.77,24.77,0,0,1,8.46-5.56A26.4,26.4,0,0,1,97.65,133a24.72,24.72,0,0,1,17.49,7.4,25,25,0,0,1,7.39,17.74,25.92,25.92,0,0,1-1.84,9.6,25.32,25.32,0,0,1-5.55,8.38,25,25,0,0,1-8.42,5.56A26.06,26.06,0,0,1,97,183.53a24.56,24.56,0,0,1-9.33-1.85,25.39,25.39,0,0,1-8.28-5.55Z"/><path class="cls-2" d="M.63,158.15A25,25,0,0,1,8,140.41a24.73,24.73,0,0,1,17.5-7.4,26.38,26.38,0,0,1,9.75,1.84,24.86,24.86,0,0,1,8.46,5.56l17.85,17.86L43.73,176.13a25.5,25.5,0,0,1-8.28,5.55,24.57,24.57,0,0,1-9.34,1.85,26,26,0,0,1-9.67-1.84,25.21,25.21,0,0,1-14-13.94A25.72,25.72,0,0,1,.63,158.15Z"/><path class="cls-1" d="M198.53,135.33c12.65-8.45,36-13.91,49.38,5.07,16.11,22.8,1.1,37-6.79,40.68-9.16,4.22-21.69,2.74-27-5.13-7.26-10.88-4.33-22.39,7.38-28.06,12.42-6,33.23-4.21,51.67-16.53,14.46-9.66,18.74-22.8,11.62-33.47-8.31-12.44-24.2-12.26-42.16-.27-14.34,9.59-30.42,5.07-36.36-3.81-7.12-10.67-4.64-22.6,4.39-28.64a48,48,0,0,1,12-5.46"/><circle class="cls-1" cx="176.94" cy="143.31" r="12.38"/><circle class="cls-1" cx="176.94" cy="171.16" r="12.38"/><circle class="cls-1" cx="149.1" cy="171.16" r="12.38"/></g></g></svg>