<svg xmlns="http://www.w3.org/2000/svg" viewBox="0 0 304 152"><defs><style>.cls-1{fill:#404041;}.cls-2{fill:none;stroke:#fff;stroke-miterlimit:10;stroke-width:0.5px;}</style></defs><title>Asset 29</title><g id="Layer_2" data-name="Layer 2"><g id="Layer_1-2" data-name="Layer 1"><rect class="cls-1" width="304" height="152"/><rect class="cls-2" x="178.47" y="63.24" width="54.59" height="54.59" transform="translate(415.29 9.06) rotate(135)"/><rect class="cls-2" x="233.07" y="47.97" width="15.9" height="15.9" transform="translate(450.99 -74.96) rotate(135)"/><rect class="cls-2" x="115.14" y="30.5" width="36.9" height="36.9" transform="translate(262.66 -10.89) rotate(135)"/><rect class="cls-2" x="192.53" y="28.35" width="26.48" height="26.48" transform="translate(380.67 -74.51) rotate(135)"/><rect class="cls-2" x="128.67" y="86.86" width="35.02" height="35.02" transform="translate(323.35 74.81) rotate(135)"/><rect class="cls-2" x="103.89" y="93.13" width="20.56" height="20.56" transform="translate(268.04 95.81) rotate(135)"/><rect class="cls-2" x="255.52" y="56.34" width="25.36" height="25.36" transform="translate(506.66 -71.82) rotate(135)"/><rect class="cls-2" x="38.54" y="39.08" width="59.89" height="59.89" transform="translate(-28.75 68.64) rotate(-45)"/><rect class="cls-2" x="21.37" y="98.51" width="16.91" height="16.91" transform="translate(-66.9 52.41) rotate(-45)"/></g></g></svg>