<svg xmlns="http://www.w3.org/2000/svg" viewBox="0 0 672.99 429.25"><defs><style>.cls-1{fill:none;stroke:#0062ff;stroke-miterlimit:10;stroke-width:1.25px;}</style></defs><title>Asset 31</title><g id="Layer_2" data-name="Layer 2"><g id="Layer_1-2" data-name="Layer 1"><polygon class="cls-1" points="372.72 45.2 372.72 1.12 391.29 1.12 391.29 44.05 428.25 22 437.2 38.02 398.94 60.85 437.2 83.68 428.25 99.71 391.29 77.65 391.29 124.48 372.72 124.48 372.72 76.49 333.82 99.71 324.87 83.68 363.13 60.85 324.87 38.02 333.82 22 372.72 45.2"/><rect class="cls-1" x="152.35" y="154.57" width="123.37" height="123.37"/><polygon class="cls-1" points="308.82 277.94 381.01 157.58 453.25 277.94 308.82 277.94"/><ellipse class="cls-1" cx="560.82" cy="62.4" rx="61.74" ry="61.77"/><polyline class="cls-1" points="99.51 226.79 49.98 276.35 0.44 226.79"/><polyline class="cls-1" points="49.98 276.61 49.98 50.19 275.58 50.19"/><polyline class="cls-1" points="226.05 0.63 275.58 50.19 226.05 99.74"/><path class="cls-1" d="M143.71,369.61l41.68-41.72a57.87,57.87,0,0,1,19.74-13,61.66,61.66,0,0,1,22.78-4.3,57.7,57.7,0,0,1,40.83,17.28,59,59,0,0,1,12.95,19.43,58.36,58.36,0,0,1,4.32,22,60.07,60.07,0,0,1-4.31,22.41,58.82,58.82,0,0,1-32.61,32.57,60.83,60.83,0,0,1-22.59,4.3,57.13,57.13,0,0,1-21.78-4.33,58.94,58.94,0,0,1-19.33-13Z"/><path class="cls-1" d="M1.41,369.34a58.36,58.36,0,0,1,4.32-22,59.09,59.09,0,0,1,12.94-19.43,57.75,57.75,0,0,1,40.85-17.28,61.89,61.89,0,0,1,22.77,4.3,57.87,57.87,0,0,1,19.74,13l41.68,41.72L102,411.34a59,59,0,0,1-19.32,13,57.23,57.23,0,0,1-21.8,4.33,60.82,60.82,0,0,1-22.58-4.3A58.74,58.74,0,0,1,5.72,391.75,60.11,60.11,0,0,1,1.41,369.34Z"/><path class="cls-1" d="M463,316c29.53-19.74,84-32.49,115.28,11.84,37.62,53.25,2.58,86.53-15.85,95-21.39,9.87-50.64,6.4-62.9-12-17-25.42-10.13-52.3,17.23-65.56,29-14,77.56-9.82,120.63-38.61,33.74-22.56,43.74-53.26,27.11-78.16-19.41-29.06-56.5-28.65-98.42-.63-33.48,22.38-71,11.83-84.88-8.92-16.63-24.91-10.85-52.79,10.24-66.89,12.65-8.46,28.08-12.76,28.08-12.76"/><path class="cls-1" d="M413,363.58a28.91,28.91,0,1,0-28.89-28.91A28.9,28.9,0,0,0,413,363.58Z"/><path class="cls-1" d="M413,428.62a28.91,28.91,0,1,0-28.89-28.9A28.9,28.9,0,0,0,413,428.62Z"/><path class="cls-1" d="M348,428.62a28.91,28.91,0,1,0-28.9-28.9A28.9,28.9,0,0,0,348,428.62Z"/></g></g></svg>