<svg xmlns="http://www.w3.org/2000/svg" viewBox="0 0 304 152"><defs><style>.cls-1{fill:#e7e7e7;}.cls-2,.cls-3{fill:none;stroke:#000;stroke-miterlimit:10;stroke-width:0.5px;}.cls-3{fill-rule:evenodd;}</style></defs><title>Asset 24</title><g id="Layer_2" data-name="Layer 2"><g id="Layer_1-2" data-name="Layer 1"><rect class="cls-1" width="304" height="152"/><polygon class="cls-2" points="196.38 33.85 196.38 22.89 201.01 22.89 201.01 33.56 210.24 28.08 212.47 32.06 202.92 37.73 212.47 43.41 210.24 47.39 201.01 41.91 201.01 53.55 196.38 53.55 196.38 41.62 186.67 47.39 184.43 43.41 193.98 37.73 184.43 32.06 186.67 28.08 196.38 33.85"/><rect class="cls-2" x="141.6" y="60.97" width="30.66" height="30.66"/><polygon class="cls-3" points="180.34 91.63 198.32 61.67 216.3 91.63 180.34 91.63"/><circle class="cls-2" cx="243.34" cy="38.22" r="15.33"/><polyline class="cls-2" points="128.54 79.02 116.24 91.32 103.94 79.02"/><polyline class="cls-2" points="116.24 91.38 116.24 35.19 172.26 35.19"/><polyline class="cls-2" points="159.96 22.89 172.26 35.19 159.96 47.49"/><polyline class="cls-2" points="266.69 47.55 278.99 35.25 291.29 47.55"/><polyline class="cls-2" points="291.29 116.64 278.99 128.94 266.69 116.64"/><line class="cls-2" x1="278.99" y1="128.94" x2="278.99" y2="35.19"/><path class="cls-3" d="M139.51,114.47l10.35-10.36a14.42,14.42,0,0,1,4.91-3.22,15.33,15.33,0,0,1,5.65-1.07,14.38,14.38,0,0,1,10.14,4.29,14.46,14.46,0,0,1,4.29,10.29,14.94,14.94,0,0,1-1.07,5.56,14.47,14.47,0,0,1-3.22,4.86,14.3,14.3,0,0,1-4.88,3.22,15,15,0,0,1-5.61,1.07,14.33,14.33,0,0,1-5.41-1.07,15,15,0,0,1-4.8-3.22Z"/><path class="cls-3" d="M104.18,114.4a14.46,14.46,0,0,1,4.29-10.29,14.36,14.36,0,0,1,10.14-4.29,15.37,15.37,0,0,1,5.65,1.07,14.42,14.42,0,0,1,4.91,3.22l10.34,10.36-10.34,10.35a15,15,0,0,1-4.8,3.22,14.33,14.33,0,0,1-5.41,1.07,15,15,0,0,1-5.61-1.07,14.61,14.61,0,0,1-8.1-8.08A14.94,14.94,0,0,1,104.18,114.4Z"/><path class="cls-2" d="M218.91,101.17c7.33-4.9,20.85-8.07,28.62,2.94,9.34,13.21.64,21.47-3.93,23.58-5.32,2.45-12.58,1.59-15.62-3-4.21-6.31-2.52-13,4.28-16.27,7.19-3.49,19.26-2.44,29.95-9.59,8.38-5.59,10.86-13.21,6.73-19.39-4.82-7.22-14-7.12-24.44-.16-8.31,5.55-17.63,2.94-21.07-2.21C219.3,70.91,220.73,64,226,60.5a27.84,27.84,0,0,1,7-3.17"/><circle class="cls-2" cx="206.39" cy="105.79" r="7.17"/><circle class="cls-2" cx="206.39" cy="121.94" r="7.17"/><circle class="cls-2" cx="190.25" cy="121.94" r="7.17"/></g></g></svg>