<?xml version="1.0" encoding="UTF-8"?>
<svg width="56px" height="56px" viewBox="0 0 56 56" version="1.1" xmlns="http://www.w3.org/2000/svg" xmlns:xlink="http://www.w3.org/1999/xlink">
    <title>efficient</title>
    <g id="efficient" stroke="none" stroke-width="1" fill="none" fill-rule="evenodd">
        <g transform="translate(3.000000, 3.000000)" fill="#161616" fill-rule="nonzero" id="Shape">
            <path d="M14.641875,45.71125 C11.8766667,45.71125 9.27734375,44.63375 7.32259375,42.6790625 C5.36620833,40.7242708 4.29036458,38.1233333 4.29036458,35.3596875 C4.29036458,32.594375 5.36783333,29.9951042 7.32259375,28.03875 C11.3573958,24.0055208 17.9264583,24.0055208 21.96125,28.03875 C25.9960417,32.0752083 25.9960417,38.6441667 21.96125,42.6790625 C20.0064583,44.6321875 17.4071875,45.71125 14.641875,45.71125 Z M14.641875,26.1832292 C12.29,26.1832292 9.93979167,27.0784375 8.15104167,28.8671875 C6.41764583,30.600625 5.46223958,32.9053125 5.46223958,35.3580208 C5.46223958,37.8092708 6.41764583,40.1155208 8.15104167,41.8472917 C9.88447917,43.5807292 12.1891667,44.5361458 14.641875,44.5361458 C17.093125,44.5361458 19.399375,43.5807292 21.1328125,41.8472917 C24.7103125,38.2698958 24.7103125,32.44625 21.1328125,28.8655208 C19.3440625,27.0767708 16.9921875,26.1832292 14.641875,26.1832292 Z M19.8209375,47.8547917 C15.1009375,47.8547917 10.6623958,46.015625 7.32259375,42.6773958 C0.4313125,35.7861458 0.4313125,24.5703125 7.32259375,17.680625 C10.6608333,14.3423958 15.0992708,12.5032292 19.8209375,12.5032292 C24.5426042,12.5032292 28.9794792,14.3423958 32.319375,17.680625 C39.210625,24.5719792 39.210625,35.7861458 32.319375,42.6773958 C28.9794792,46.015625 24.5426042,47.8547917 19.8209375,47.8547917 Z M19.8209375,13.6751042 C15.4134375,13.6751042 11.2694792,15.3922917 8.15104167,18.5090625 C1.71548958,24.9446875 1.71548958,35.415 8.15104167,41.8489583 C11.2694792,44.9673958 15.4134375,46.6845833 19.8209375,46.6845833 C24.2285417,46.6845833 28.3723958,44.9673958 31.4892708,41.8489583 C37.9247917,35.415 37.9247917,24.9446875 31.4892708,18.5090625 C28.3723958,15.3922917 24.2285417,13.6751042 19.8209375,13.6751042 Z M25,50 C18.3219792,50 12.0442708,47.3990625 7.32259375,42.6773958 C2.60090625,37.9557292 0,31.6780208 0,25 C0,18.3219792 2.60090625,12.0442708 7.32259375,7.32259375 C12.0442708,2.60090625 18.3219792,0 25,0 C31.6780208,0 37.9557292,2.60090625 42.6773958,7.32259375 C47.4007292,12.0442708 50,18.3219792 50,25 C50,31.6780208 47.3990625,37.9557292 42.6773958,42.6773958 C37.9557292,47.4007292 31.6780208,50 25,50 Z M25,1.171875 C18.6360417,1.171875 12.6513542,3.64908333 8.15104167,8.15104167 C3.65071875,12.6530208 1.171875,18.6360417 1.171875,25 C1.171875,31.3655208 3.64908333,37.3486458 8.15104167,41.8489583 C12.6513542,46.3492708 18.6360417,48.8297917 25,48.8297917 C31.3655208,48.8297917 37.3486458,46.3509375 41.8489583,41.8489583 C46.3509375,37.3486458 48.8297917,31.3671875 48.8297917,25 C48.8297917,18.6360417 46.3509375,12.6513542 41.8489583,8.15104167 C37.3486458,3.65071875 31.3655208,1.171875 25,1.171875 Z"></path>
        </g>
    </g>
</svg>