<?xml version="1.0" encoding="UTF-8"?>
<svg width="356px" height="178px" viewBox="0 0 356 178" version="1.1" xmlns="http://www.w3.org/2000/svg" xmlns:xlink="http://www.w3.org/1999/xlink">
    <title>impact</title>
    <defs>
        <polygon id="path-1" points="0 160 249.208258 160 249.208258 0 0 0"></polygon>
    </defs>
    <g id="impact" stroke="none" stroke-width="1" fill="none" fill-rule="evenodd">
        <rect fill="#FFFFFF" x="0" y="0" width="356" height="178"></rect>
        <g id="Group-83" transform="translate(53.000000, 9.000000)">
            <path d="M197.942882,58.6118818 C196.590639,58.4506446 193.995794,58.1335447 187.227056,57.0683041 L187.110965,57.6530578 C186.705722,57.5917877 180.729195,56.0632587 180.729195,56.0632587 C180.729195,56.0632587 174.694623,56.2416946 172.701731,55.049614 C172.701731,55.049614 171.33229,54.5401044 170.57555,53.0470477 L169.658647,50.3834087 C169.555456,50.0824325 169.782263,49.7707072 170.100437,49.7771567 L174.041075,49.8556255" id="Stroke-1" stroke="#393939" stroke-width="0.72" stroke-linejoin="round"></path>
            <path d="M176.898951,52.9769632 C175.596154,52.6147169 174.972704,51.3731903 175.013551,50.934625 C175.013551,50.934625 173.350657,49.2738816 172.903493,48.0624526 C172.697109,47.5024219 172.855122,47.0950292 173.067955,47.046658 C174.19984,46.7897534 176.620548,49.0384752 176.620548,49.0384752 L180.564411,52.147129 C180.564411,52.147129 184.750129,51.0808134 185.789572,50.7884366 C185.789572,50.7884366 186.033578,51.5698997 186.164717,51.5570007 C189.360439,51.2313015 195.793804,50.8357329 197.942559,50.5745285" id="Stroke-3" stroke="#393939" stroke-width="0.72" stroke-linejoin="round"></path>
            <path d="M204.661529,28.3886086 L203.446876,24.747872 C203.446876,24.747872 200.332847,25.2702806 198.685003,25.5089117 C198.027155,25.6035042 196.95654,25.6228527 196.568496,24.9359821 C196.298692,24.4587199 194.325148,20.8007847 194.325148,20.8007847 C194.325148,20.8007847 192.609584,21.2425747 192.907336,20.3020242 C193.181439,19.446392 193.400722,17.57819 192.84714,15.268198 C192.647206,14.4157905 192.449422,12.6206827 192.791245,11.3694818 C192.843916,11.1738473 192.932059,10.9739132 193.033101,10.7729041" id="Stroke-5" stroke="#393939" stroke-width="0.72" stroke-linejoin="round"></path>
            <path d="M211.076299,14.6235715 C210.738776,16.6175386 210.601186,17.6397826 209.878844,18.9264557 C209.432754,19.7197428 209.446728,20.6914658 209.893892,21.4836781 L210.864541,23.2056917 L212.296327,25.3007007" id="Stroke-7" stroke="#393939" stroke-width="0.72" stroke-linejoin="round"></path>
            <polyline id="Stroke-9" stroke="#393939" stroke-width="0.72" stroke-linejoin="round" points="197.942882 103.825703 200.478606 136.791191 209.354178 136.791191 210.621502 124.111496"></polyline>
            <path d="M197.942882,50.5740986 L198.163239,66.9837486 L217.02477,66.9837486 C217.02477,56.1776297 221.514689,39.9926368 218.569423,34.5643169 C215.860637,29.5702625 211.796384,24.7094975 211.796384,24.7094975 C211.796384,24.7094975 209.773395,27.7826791 206.899072,28.8027733 C204.680448,29.5896109 204.6611,28.3889311 204.6611,28.3889311 L197.942882,37.895478" id="Stroke-11" stroke="#393939" stroke-width="0.72" stroke-linejoin="round"></path>
            <path d="M208.086101,159.613031 L190.753099,159.613031 L190.336032,159.613031 C190.336032,157.054733 192.847033,154.541582 195.40748,154.541582 C197.967927,154.541582 199.210529,153.295756 199.210529,150.737459 L199.210529,136.790439 L210.621825,136.790439 L210.621825,157.077307 C210.621825,158.462872 209.472741,159.613031 208.086101,159.613031" id="Fill-13" fill="#CAC5C4"></path>
            <path d="M208.086101,159.613031 L190.753099,159.613031 L190.336032,159.613031 C190.336032,157.054733 192.847033,154.541582 195.40748,154.541582 C197.967927,154.541582 199.210529,153.295756 199.210529,150.737459 L199.210529,136.790439 L210.621825,136.790439 L210.621825,157.077307 C210.621825,158.462872 209.472741,159.613031 208.086101,159.613031 Z" id="Stroke-15" stroke="#393939" stroke-width="0.72" stroke-linejoin="round"></path>
            <path d="M198.480124,66.9840711 L217.024555,66.9840711 C217.024555,66.9840711 218.569208,68.5276488 218.569208,74.7030346 C218.569208,79.3348427 217.024555,83.9655759 217.024555,83.9655759 L215.693811,110.16555 C215.551922,112.983977 217.499667,115.776606 219.496859,117.772723 L234.078079,133.621267" id="Stroke-17" stroke="#393939" stroke-width="0.72" stroke-linejoin="round"></path>
            <path d="M227.723828,139.978314 L208.086208,121.575771 C207.323019,120.813657 206.245954,119.750566 205.550484,117.772723 C204.064952,113.549382 201.74636,103.825703 201.74636,103.825703" id="Stroke-19" stroke="#393939" stroke-width="0.72" stroke-linejoin="round"></path>
            <path d="M237.247573,153.273613 L237.247573,150.737889 L227.104677,140.594992 L234.711849,132.98782 L247.934376,145.722336 C248.855578,146.641388 249.08346,148.048452 248.500857,149.21151 L243.587421,159.613461 L234.022829,159.613461 C232.969412,158.701933 233.010259,157.436758 233.186545,156.619823 C233.291886,156.132886 233.593937,155.70937 234.008855,155.433117 L237.247573,153.273613 Z" id="Fill-21" fill="#CAC5C4"></path>
            <path d="M237.247573,153.273613 L237.247573,150.737889 L227.104677,140.594992 L234.711849,132.98782 L247.934376,145.722336 C248.855578,146.641388 249.08346,148.048452 248.500857,149.21151 L243.587421,159.613461 L234.022829,159.613461 C232.969412,158.701933 233.010259,157.436758 233.186545,156.619823 C233.291886,156.132886 233.593937,155.70937 234.008855,155.433117 L237.247573,153.273613 Z" id="Stroke-23" stroke="#393939" stroke-width="0.72" stroke-linejoin="round"></path>
            <line x1="211.906886" y1="45.5785393" x2="214.187855" y2="37.9917903" id="Stroke-25" stroke="#393939" stroke-width="0.72" stroke-linejoin="round"></line>
            <line x1="203.563074" y1="40.9386694" x2="206.207365" y2="33.0122473" id="Stroke-27" stroke="#393939" stroke-width="0.72" stroke-linejoin="round"></line>
            <path d="M175.997528,29.2356415 L177.870029,30.7555711 L178.018368,29.6064871 L178.93742,31.1167425 C179.368461,31.7638412 180.00696,32.2454031 180.747576,32.4829592 L181.619332,33.7459842 C181.619332,33.7459842 183.381118,36.1054223 185.992086,39.0238161 L186.520944,38.4175641 C190.427185,42.761295 191.915942,45.5786468 197.942989,50.5737761 C200.126141,52.3828578 201.540729,53.0600541 204.282837,54.3778998 C206.723969,55.5506318 208.545949,53.6577068 209.400507,51.8110031 C209.400507,51.8110031 211.022553,48.0552506 211.907208,45.5786468 L189.095365,32.8935767 L189.089991,32.3604189 L183.741214,29.5043702 L180.475623,24.5651365 C180.146699,24.0685258 179.547971,23.8234452 178.965368,23.9492103 L177.73889,24.2125644 C177.389542,24.2867335 177.079967,24.4888175 176.871433,24.7779696 L175.708376,26.3838924 C175.066651,27.2706971 175.190267,28.4961001 175.997528,29.2356415 Z" id="Stroke-29" stroke="#393939" stroke-width="0.72" stroke-linejoin="round"></path>
            <line x1="206.775135" y1="54.5395669" x2="206.775135" y2="64.5921706" id="Stroke-31" stroke="#393939" stroke-width="0.72" stroke-linejoin="round"></line>
            <path d="M181.061452,14.3375367 C194.175413,7.65694093 210.227116,12.8616786 216.914161,25.9627408" id="Stroke-33" stroke="#393939" stroke-width="0.72" stroke-linecap="round" stroke-linejoin="round"></path>
            <path d="M211.076299,14.6235715 L211.778218,9.57577142 C212.296327,5.84151724 210.821544,3.10263421 207.842955,2.13736068 L203.29929,0.663652426 C200.321776,-0.301621106 197.571069,1.33977386 196.127458,4.31728799 C196.127458,4.31728799 193.887335,8.62124704 193.032778,10.7732266" id="Stroke-35" stroke="#393939" stroke-width="0.72" stroke-linecap="round" stroke-linejoin="round"></path>
            <path d="M206.978938,16.9118503 C206.978938,18.0426607 206.060961,18.959563 204.929076,18.959563" id="Stroke-37" stroke="#393939" stroke-width="0.72" stroke-linecap="round" stroke-linejoin="round"></path>
            <line x1="185.991763" y1="39.0239236" x2="189.089668" y2="32.3605264" id="Stroke-39" stroke="#393939" stroke-width="0.72" stroke-linejoin="round"></line>
            <path d="M192.647421,12.4301003 C192.647421,14.5949788 196.26021,15.7741604 200.034236,16.4943533 C203.808262,17.2156212 205.719461,16.1482308 206.780402,16.5900208 C208.725997,17.3994316 209.489187,21.0799401 209.893355,21.4841081" id="Stroke-41" stroke="#393939" stroke-width="0.72" stroke-linecap="round" stroke-linejoin="round"></path>
            <line x1="198.24719" y1="64.6300076" x2="217.024878" y2="64.5913107" id="Stroke-43" stroke="#393939" stroke-width="0.72" stroke-linejoin="round"></line>
            <path d="M211.889687,103.825703 L197.942667,103.825703 C197.942667,103.825703 195.503685,80.0926577 196.669968,72.0458451 C196.862377,70.7151005 198.163024,66.9840711 198.163024,66.9840711 L212.237959,66.9840711 L212.237959,88.6296314 L211.889687,103.825703 Z" id="Fill-45" fill="#CAC5C4"></path>
            <path d="M211.889687,103.825703 L197.942667,103.825703 C197.942667,103.825703 195.503685,80.0926577 196.669968,72.0458451 C196.862377,70.7151005 198.163024,66.9840711 198.163024,66.9840711 L212.237959,66.9840711 L212.237959,88.6296314 L211.889687,103.825703 Z" id="Stroke-47" stroke="#393939" stroke-width="0.72" stroke-linejoin="round"></path>
            <path d="M206.206827,33.1041525 C206.940994,30.0245215 210.034599,28.1219222 213.117455,28.8560891 C214.63201,29.2161855 215.861712,30.144912 216.633501,31.3617156" id="Stroke-49" stroke="#393939" stroke-width="0.72" stroke-linejoin="round"></path>
            <line x1="185.789787" y1="50.7887591" x2="187.110857" y2="57.6531653" id="Stroke-51" stroke="#393939" stroke-width="0.72" stroke-linejoin="round"></line>
            <path d="M46.8618802,44.0487205 L129.03912,44.0487205 C147.692118,44.0487205 162.819394,56.0737929 162.819394,70.9065429 C162.819394,85.7403678 147.692118,97.7686649 129.03912,97.7686649 L112.148983,97.7686649" id="Stroke-53" stroke="#3C3838" stroke-width="0.72" stroke-linejoin="round"></path>
            <path d="M46.1817815,97.7690949 L35.6368669,97.7690949 C18.3189138,97.7690949 4.27515133,109.020229 4.27515133,122.896304 C4.27515133,136.769155 18.3189138,148.017064 35.6368669,148.017064 L112.296569,148.017064" id="Stroke-55" stroke="#3C3838" stroke-width="0.72" stroke-linejoin="round"></path>
            <mask id="mask-2" fill="white">
                <use xlink:href="#path-1"></use>
            </mask>
            <g id="Clip-58"></g>
            <polygon id="Stroke-57" stroke="#3C3838" stroke-width="0.72" stroke-linejoin="round" mask="url(#mask-2)" points="4.3437309 59.1170918 35.2658063 59.1170918 35.2658063 32.0604102 4.3437309 32.0604102"></polygon>
            <polygon id="Stroke-59" stroke="#3C3838" stroke-width="0.72" stroke-linejoin="round" mask="url(#mask-2)" points="69.9920053 109.365061 100.914081 109.365061 100.914081 82.3083796 69.9920053 82.3083796"></polygon>
            <polygon id="Stroke-60" stroke="#3C3838" stroke-width="0.72" stroke-linejoin="round" mask="url(#mask-2)" points="131.98127 159.613031 162.819502 159.613031 162.819502 132.556349 131.98127 132.556349"></polygon>
            <path d="M36.5893489,74.9841249 C32.8755181,84.8303448 26.0949553,87.896002 26.0949553,87.896002 C19.3154674,90.962734 16.2487353,84.1821712 16.2487353,84.1821712 C16.2487353,84.1821712 13.1830782,77.4026833 19.963641,74.3359512 C19.963641,74.3359512 26.7431289,71.2702941 36.5893489,74.9841249" id="Fill-61" fill="#D6FBE3" mask="url(#mask-2)"></path>
            <path d="M36.5893489,74.9841249 C32.8755181,84.8303448 26.0949553,87.896002 26.0949553,87.896002 C19.3154674,90.962734 16.2487353,84.1821712 16.2487353,84.1821712 C16.2487353,84.1821712 13.1830782,77.4026833 19.963641,74.3359512 C19.963641,74.3359512 26.7431289,71.2702941 36.5893489,74.9841249 Z" id="Stroke-62" stroke="#3C3838" stroke-width="0.72" stroke-linejoin="round" mask="url(#mask-2)"></path>
            <path d="M10.3544397,107.264893 C10.3544397,107.264893 2.68922196,90.3145604 23.0287607,81.1165141" id="Stroke-63" stroke="#3C3838" stroke-width="0.72" stroke-linejoin="round" mask="url(#mask-2)"></path>
            <line x1="85.6608241" y1="73.6200579" x2="85.6608241" y2="98.83971" id="Stroke-64" stroke="#3C3838" stroke-width="0.72" stroke-linejoin="round" mask="url(#mask-2)"></line>
            <path d="M85.6608241,78.0979382 C85.6608241,78.0979382 94.4450282,80.5261708 100.869794,74.1680495 C107.29456,67.8099282 103.991347,59.9566003 103.991347,59.9566003 C103.991347,59.9566003 96.0563255,56.6877843 89.6315595,63.0459056 C87.8665493,64.7926422 86.835706,66.6533198 86.2681509,68.431229 C85.7102701,70.1833402 85.6855471,71.8537578 85.6855471,73.265121 C85.6855471,76.4866408 85.6608241,78.0979382 85.6608241,78.0979382" id="Fill-65" fill="#E5E0DF" mask="url(#mask-2)"></path>
            <path d="M85.6608241,78.0979382 C85.6608241,78.0979382 94.4450282,80.5261708 100.869794,74.1680495 C107.29456,67.8099282 103.991347,59.9566003 103.991347,59.9566003 C103.991347,59.9566003 96.0563255,56.6877843 89.6315595,63.0459056 C87.8665493,64.7926422 86.835706,66.6533198 86.2681509,68.431229 C85.7102701,70.1833402 85.6855471,71.8537578 85.6855471,73.265121 C85.6855471,76.4866408 85.6608241,78.0979382 85.6608241,78.0979382 Z" id="Stroke-66" stroke="#3C3838" stroke-width="0.72" stroke-linejoin="round" mask="url(#mask-2)"></path>
            <path d="M81.4551122,63.0462281 C74.9862747,56.6881067 66.9964326,59.9569228 66.9964326,59.9569228 C66.9964326,59.9569228 63.6706461,67.8102507 70.1394836,74.168372 C76.6083212,80.5264933 85.4527205,78.0982607 85.4527205,78.0982607 C85.4527205,78.0982607 85.4527205,74.8756659 85.4312222,71.6541461 C85.4140236,69.0410282 84.3541576,65.8958273 81.4551122,63.0462281" id="Fill-67" fill="#E5E0DF" mask="url(#mask-2)"></path>
            <path d="M81.4551122,63.0462281 C74.9862747,56.6881067 66.9964326,59.9569228 66.9964326,59.9569228 C66.9964326,59.9569228 63.6706461,67.8102507 70.1394836,74.168372 C76.6083212,80.5264933 85.4527205,78.0982607 85.4527205,78.0982607 C85.4527205,78.0982607 85.4527205,74.8756659 85.4312222,71.6541461 C85.4140236,69.0410282 84.3541576,65.8958273 81.4551122,63.0462281 Z" id="Stroke-68" stroke="#3C3838" stroke-width="0.72" stroke-linejoin="round" mask="url(#mask-2)"></path>
            <line x1="19.8051986" y1="11.0882841" x2="19.8051986" y2="48.6651573" id="Stroke-69" stroke="#3C3838" stroke-width="0.72" stroke-linejoin="round" mask="url(#mask-2)"></line>
            <line x1="19.8051986" y1="32.158335" x2="27.5295366" y2="24.4339969" id="Stroke-70" stroke="#3C3838" stroke-width="0.72" stroke-linejoin="round" mask="url(#mask-2)"></line>
            <path d="M19.8054135,20.0720999 C19.8054135,20.0720999 28.510074,22.5207559 34.8767946,16.1088889 C41.2435152,9.69702181 37.9703995,1.77704922 37.9703995,1.77704922 C37.9703995,1.77704922 30.1063225,-1.5186397 23.7406768,4.89322736 C21.9907154,6.6550128 20.9695463,8.53073921 20.4073659,10.3236972 C19.9612762,11.7479593 19.8054135,13.1206256 19.8054135,14.3438787 C19.8043386,17.1881034 19.8054135,20.0720999 19.8054135,20.0720999" id="Fill-71" fill="#E5E0DF" mask="url(#mask-2)"></path>
            <path d="M19.8054135,20.0720999 C19.8054135,20.0720999 28.510074,22.5207559 34.8767946,16.1088889 C41.2435152,9.69702181 37.9703995,1.77704922 37.9703995,1.77704922 C37.9703995,1.77704922 30.1063225,-1.5186397 23.7406768,4.89322736 C21.9907154,6.6550128 20.9695463,8.53073921 20.4073659,10.3236972 C19.9612762,11.7479593 19.8054135,13.1206256 19.8054135,14.3438787 C19.8043386,17.1881034 19.8054135,20.0720999 19.8054135,20.0720999 Z" id="Stroke-72" stroke="#3C3838" stroke-width="0.72" stroke-linejoin="round" mask="url(#mask-2)"></path>
            <path d="M15.7340661,4.89311987 C9.25125463,-1.51874719 1.24313902,1.77801665 1.24313902,1.77801665 C1.24313902,1.77801665 -2.089097,9.69691432 4.39371444,16.1098563 C10.8765259,22.5217234 19.7402737,20.0719924 19.7402737,20.0719924 C19.7402737,20.0719924 19.8993611,16.8128506 19.7198503,13.5730573 C19.5736619,10.9427406 18.6395609,7.76636726 15.7340661,4.89311987" id="Fill-73" fill="#E5E0DF" mask="url(#mask-2)"></path>
            <path d="M15.7340661,4.89311987 C9.25125463,-1.51874719 1.24313902,1.77801665 1.24313902,1.77801665 C1.24313902,1.77801665 -2.089097,9.69691432 4.39371444,16.1098563 C10.8765259,22.5217234 19.7402737,20.0719924 19.7402737,20.0719924 C19.7402737,20.0719924 19.8993611,16.8128506 19.7198503,13.5730573 C19.5736619,10.9427406 18.6395609,7.76636726 15.7340661,4.89311987 Z" id="Stroke-74" stroke="#3C3838" stroke-width="0.72" stroke-linejoin="round" mask="url(#mask-2)"></path>
            <path d="M152.957265,140.798904 C146.914094,134.755732 139.448811,137.862236 139.448811,137.862236 C139.448811,137.862236 136.342307,145.32752 142.385478,151.370691 C148.428649,157.413862 155.893933,154.307358 155.893933,154.307358 C155.893933,154.306284 159.000437,146.842075 152.957265,140.798904" id="Fill-75" fill="#CAC5C4" mask="url(#mask-2)"></path>
            <path d="M152.957265,140.798904 C146.914094,134.755732 139.448811,137.862236 139.448811,137.862236 C139.448811,137.862236 136.342307,145.32752 142.385478,151.370691 C148.428649,157.413862 155.893933,154.307358 155.893933,154.307358 C155.893933,154.306284 159.000437,146.842075 152.957265,140.798904 Z" id="Stroke-76" stroke="#3C3838" stroke-width="0.72" stroke-linejoin="round" mask="url(#mask-2)"></path>
            <polygon id="Fill-77" fill="#3C3838" mask="url(#mask-2)" points="4.3437309 59.1170918 35.2658063 59.1170918 35.2658063 47.5209105 4.3437309 47.5209105"></polygon>
            <polygon id="Fill-78" fill="#3C3838" mask="url(#mask-2)" points="69.9920053 109.365061 100.490564 109.365061 100.490564 97.7688799 69.9920053 97.7688799"></polygon>
            <polygon id="Fill-79" fill="#3C3838" mask="url(#mask-2)" points="131.980195 159.613031 163.362334 159.613031 163.362334 148.016849 131.980195 148.016849"></polygon>
            <path d="M154.040565,11.8879133 C148.535926,30.3807483 155.029486,42.3800227 155.029486,42.3800227 C161.523047,54.3792971 173.522321,47.8846616 173.522321,47.8846616 C173.522321,47.8846616 185.521596,41.391101 179.028035,29.3918266 C179.028035,29.3918266 172.5334,17.3925522 154.040565,11.8879133" id="Fill-80" fill="#D6FBE3" mask="url(#mask-2)"></path>
            <path d="M154.040565,11.8879133 C148.535926,30.3807483 155.029486,42.3800227 155.029486,42.3800227 C161.523047,54.3792971 173.522321,47.8846616 173.522321,47.8846616 C173.522321,47.8846616 185.521596,41.391101 179.028035,29.3918266 C179.028035,29.3918266 172.5334,17.3925522 154.040565,11.8879133 Z" id="Stroke-81" stroke="#3C3838" stroke-width="0.72" stroke-linejoin="round" mask="url(#mask-2)"></path>
            <path d="M153.681651,89.2787724 C153.681651,89.2787724 186.510625,71.8834255 167.028868,35.8856022" id="Stroke-82" stroke="#3C3838" stroke-width="0.72" stroke-linejoin="round" mask="url(#mask-2)"></path>
        </g>
    </g>
</svg>