<?xml version="1.0" encoding="UTF-8"?>
<svg width="56px" height="56px" viewBox="0 0 56 56" version="1.1" xmlns="http://www.w3.org/2000/svg" xmlns:xlink="http://www.w3.org/1999/xlink">
    <title>intuitive</title>
    <g id="intuitive" stroke="none" stroke-width="1" fill="none" fill-rule="evenodd">
        <g transform="translate(5.000000, 3.000000)" fill="#161616" fill-rule="nonzero" id="Shape">
            <path d="M15.4707521,35.6906993 C10.7226514,35.6906993 6.82319087,39.3879899 6.59423675,44.1101133 L6.58332628,44.3617064 L0.924903005,50 L0,49.0766446 L5.30227979,43.7914214 C5.6893197,38.4972443 10.1067126,34.3853115 15.4688729,34.3853115 L29.5513419,34.3853115 C30.9142114,34.3853115 32.0226138,35.4897343 32.0226138,36.84774 C32.0226138,36.9708835 32.0171972,37.0957957 32.0062536,37.21706 L41.1062733,29.849672 C42.2238506,28.7253517 44.3988705,28.6800295 45.6144984,29.8949942 C46.2232519,30.4997682 46.5594095,31.3053966 46.5594095,32.1655222 C46.5594095,33.0237685 46.2232519,33.8293969 45.6144984,34.4378188 L34.526606,45.4861373 C33.8579388,46.1506039 32.9729414,46.5833749 32.0316782,46.7028706 L18.9522652,48.3305982 L17.2859585,49.9982313 L16.3592868,49.0784132 L18.3435117,47.0921987 L31.8681869,45.4064367 C32.5204939,45.3249674 33.1365432,45.0244043 33.5999343,44.5609027 L44.6878267,33.5125842 C45.0494089,33.152218 45.251037,32.6724667 45.251037,32.1636429 C45.251037,31.6530505 45.0530567,31.1750679 44.6895954,30.8148122 C43.9645519,30.0923112 42.7053706,30.0941904 41.9803271,30.8148122 L30.4526995,40.150286 L30.4508203,40.1485173 C29.7130645,40.75506 28.7646161,41.1189635 27.7361355,41.1189635 L18.648828,41.1189635 L18.648828,39.8134652 L27.7361355,39.8134652 C29.376907,39.8134652 30.7124727,38.4826528 30.7124727,36.8459713 C30.7124727,36.2049396 30.1910471,35.6852827 29.5495732,35.6852827 L15.4707521,35.6852827 L15.4707521,35.6906993 L15.4707521,35.6906993 Z M33.1710322,26.6521407 L15.0000652,26.6521407 L15.0000652,25.3485216 L33.1710322,25.3485216 L33.1710322,26.6521407 Z M37.4593897,22.3791485 L36.1511278,22.3791485 L36.1511278,4.27303641 L37.4611584,4.27303641 L37.4593897,22.3791485 Z M12.0200801,22.3791485 L10.7118183,22.3791485 L10.7118183,4.27303641 L12.0200801,4.27303641 C12.0200801,4.27303641 12.0200801,22.3791485 12.0200801,22.3791485 Z M33.1710322,1.30363017 L15.0000652,1.30363017 L15.0000652,0 L33.1710322,0 L33.1710322,1.30363017 Z"></path>
        </g>
    </g>
</svg>