<svg xmlns="http://www.w3.org/2000/svg" xmlns:xlink="http://www.w3.org/1999/xlink" width="48" height="48" viewBox="0 0 48 48">
  <defs>
    <polygon id="experience-a" points=".006 .774 9.197 .774 9.197 11.396 .006 11.396"/>
    <polygon id="experience-c" points=".98 .991 11.275 .991 11.275 11.396 .98 11.396"/>
  </defs>
  <g fill="none" fill-rule="evenodd">
    <path/>
    <path fill="#000" d="M28.7612936,32.8903742 C31.0055489,31.2428903 32.4669957,28.5688258 32.4685277,25.549471 C32.4669957,20.5373419 28.448783,16.4743742 23.4899745,16.4743742 C18.529634,16.4743742 14.5114213,20.5373419 14.5114213,25.549471 C14.5114213,28.5626323 15.9667404,31.2289548 18.2033362,32.8795355 C12.0465702,35.005471 7.62086809,41.0209548 7.61933617,47.9995355 L8.72078298,47.9995355 C8.71925106,41.0952774 13.3885277,35.1990194 19.6555915,33.6026323 C19.8761872,33.5453419 20.0401021,33.3579871 20.0676766,33.1303742 C20.0952511,32.9012129 19.9818894,32.6797935 19.7812085,32.5698581 C17.3010383,31.2289548 15.6144,28.5905032 15.6144,25.549471 C15.6144,23.3492129 16.4952511,21.3641806 17.9214638,19.9210839 C19.3476766,18.4795355 21.3131234,17.5907613 23.4899745,17.5892129 C25.6652936,17.5907613 27.6322723,18.4795355 29.0569532,19.9210839 C30.4846979,21.3641806 31.364017,23.3492129 31.364017,25.549471 C31.3655489,28.5905032 29.6789106,31.2289548 27.1972085,32.5698581 C26.9995915,32.6782452 26.883166,32.8981161 26.9107404,33.125729 C26.936783,33.3533419 27.0961021,33.5406968 27.3166979,33.5995355 C33.6128681,35.3074065 38.257634,41.0968258 38.2561021,47.9995355 L39.3606128,47.9995355 C39.3590809,41.0116645 34.9303149,35.0875355 28.7612936,32.8903742"/>
    <g transform="translate(9.702)">
      <mask id="experience-b" fill="#fff">
        <use xlink:href="#experience-a"/>
      </mask>
      <path fill="#000" d="M9.19746383,11.3959742 L9.19746383,10.2811355 C7.74061277,10.2795871 6.55491064,9.89868387 5.6051234,9.33816774 C5.9237617,8.99752258 6.19797447,8.6352 6.41244255,8.25274839 C7.36835745,6.57739355 7.44188936,4.72397419 7.44801702,3.65403871 L9.19746383,3.65403871 L9.19746383,2.5392 L5.15320851,2.5392 L5.15320851,0.77403871 L4.05022979,0.77403871 L4.05022979,2.5392 L0.00597446809,2.5392 L0.00597446809,3.65403871 L6.3450383,3.65403871 C6.34350638,4.6635871 6.25005957,6.32345806 5.45805957,7.69378065 C5.25278298,8.04371613 5.00461277,8.38126452 4.6997617,8.68939355 C3.72086809,7.8548129 3.10657021,6.82668387 2.88750638,6.04165161 L1.82588936,6.34668387 C2.10469787,7.32061935 2.7756766,8.42616774 3.81584681,9.37378065 C2.93193191,9.91416774 1.72631489,10.2718452 0.00597446809,10.2811355 L0.00597446809,11.3959742 C2.08937872,11.4068129 3.63048511,10.8834581 4.74418723,10.0906839 C5.90537872,10.8555871 7.38520851,11.3975226 9.19746383,11.3959742" mask="url(#experience-b)"/>
    </g>
    <path fill="#000" d="M32.1287489,7.74193548 C32.1364085,8.01445161 31.9541106,8.4603871 31.5741957,8.9403871 C31.1988766,9.4203871 30.6535149,9.93135484 30.0499404,10.3943226 C29.8615149,10.539871 29.7849191,10.7907097 29.8615149,11.0167742 C29.9350468,11.2428387 30.1464511,11.396129 30.382366,11.396129 L37.2821106,11.396129 L37.2821106,10.2812903 L31.8422809,10.2812903 C32.0521532,10.0676129 32.2650894,9.85393548 32.4381957,9.63096774 C32.8916426,9.04567742 33.2256,8.42787097 33.2332596,7.74193548 C33.2317277,7.37032258 33.1490043,7.04980645 33.0417702,6.75096774 L35.7440681,6.75096774 L35.7440681,5.63612903 L32.4611745,5.63612903 C32.4305362,5.59277419 32.4014298,5.54322581 32.3738553,5.50141935 C31.983217,4.91458065 31.6982809,4.45006452 31.7013447,3.87096774 C31.7059404,3.32748387 31.9326638,2.93419355 32.3462809,2.61367742 C32.7598979,2.29935484 33.3726638,2.10425806 34.0390468,2.10580645 C35.3779404,2.12283871 36.0979404,2.54554839 36.8593021,3.44206452 L37.7064511,2.72825806 C36.8317277,1.6443871 35.6521532,0.973935484 34.0390468,0.990967742 C33.1673872,0.992516129 32.3340255,1.23406452 31.6875574,1.72025806 C31.0395574,2.19870968 30.5922383,2.96670968 30.596834,3.87096774 C30.598366,4.59096774 30.8618553,5.15767742 31.1483234,5.63612903 L29.6164085,5.63612903 L29.6164085,6.75096774 L31.8407489,6.75096774 C32.0153872,7.07612903 32.1302809,7.38890323 32.1287489,7.74193548"/>
    <g transform="translate(35.745 17.032)">
      <mask id="experience-d" fill="#fff">
        <use xlink:href="#experience-c"/>
      </mask>
      <path fill="#000" d="M10.1713021,0.991122581 L10.1713021,6.5808 C10.1667064,7.83189677 9.72704681,8.71138065 9.01930213,9.32763871 C8.31002553,9.9408 7.29283404,10.2814452 6.12704681,10.2814452 C4.96279149,10.2814452 3.9456,9.9408 3.2363234,9.32763871 C2.56228085,8.7408 2.1456,7.90621935 2.09811064,6.75112258 L6.12704681,6.75112258 C6.27257872,6.75112258 6.41504681,6.69228387 6.51768511,6.58699355 C6.6203234,6.48325161 6.68006809,6.3408 6.68006809,6.19370323 L6.68006809,0.991122581 L5.57555745,0.991122581 L5.57555745,1.54854194 L5.57555745,5.63628387 L2.0843234,5.63628387 L2.0843234,0.991122581 L0.979786033,0.991122581 L0.979812766,1.54854194 L0.979812766,6.5808 C0.975217021,8.10905806 1.56347234,9.35705806 2.51938723,10.1761548 C3.47377021,10.9968 4.75445106,11.3962839 6.12704681,11.3962839 C7.50117447,11.3962839 8.78185532,10.9968 9.7362383,10.1761548 C10.6921532,9.35705806 11.2804085,8.10905806 11.2758128,6.5808 L11.2758395,0.991122581 L10.1713021,0.991122581 Z" mask="url(#experience-d)"/>
    </g>
    <path fill="#000" d="M5.10638298,19.1363613 L7.42570213,24.2166194 L2.78706383,24.2166194 L5.10638298,19.1363613 Z M2.27693617,25.3314581 L7.93582979,25.3314581 L9.09548936,27.8708129 L9.70212766,27.8708129 L10.2030638,27.6370065 L5.60731915,17.5724903 L4.60544681,17.5724903 L0.00970212766,27.6370065 L0.510638298,27.8708129 L1.1172766,27.8708129 L2.27693617,25.3314581 Z"/>
  </g>
</svg>
