<svg xmlns="http://www.w3.org/2000/svg" xmlns:xlink="http://www.w3.org/1999/xlink" width="48" height="47" viewBox="0 0 48 47">
  <defs>
    <polygon id="expertise-a" points=".831 .75 1.58 .75 1.58 1.5 .831 1.5"/>
    <polygon id="expertise-c" points="0 47 48 47 48 0 0 0"/>
  </defs>
  <g fill="none" fill-rule="evenodd">
    <path fill="#000" d="M25 5C25.552 5 26 4.552 26 4 26 3.448 25.552 3 25 3 24.448 3 24 3.448 24 4 24 4.552 24.448 5 25 5M28 5C28.552 5 29 4.552 29 4 29 3.448 28.552 3 28 3 27.448 3 27 3.448 27 4 27 4.552 27.448 5 28 5M22 5C22.552 5 23 4.552 23 4 23 3.448 22.552 3 22 3 21.448 3 21 3.448 21 4 21 4.552 21.448 5 22 5"/>
    <g transform="translate(46 46)">
      <mask id="expertise-b" fill="#fff">
        <use xlink:href="#expertise-a"/>
      </mask>
      <path mask="url(#expertise-b)"/>
    </g>
    <mask id="expertise-d" fill="#fff">
      <use xlink:href="#expertise-c"/>
    </mask>
    <polygon fill="#000" points="4 16.72 16 16.72 16 15.28 4 15.28" mask="url(#expertise-d)"/>
    <polygon fill="#000" points="4 11.72 16 11.72 16 10.28 4 10.28" mask="url(#expertise-d)"/>
    <polygon fill="#000" points="4 21.72 16 21.72 16 20.28 4 20.28" mask="url(#expertise-d)"/>
    <path fill="#000" d="M22.6539501,24.5527009 C22.6539501,26.3438406 23.1867452,28.0064888 24.0914033,29.4137022 L1.12652583,29.4137022 L1.12652583,7.30698287 L31.2489828,7.30698287 L31.2489828,15.5072134 C26.4553888,15.7967062 22.6555125,19.7304018 22.6539501,24.5527009 Z M1.12652583,6.19235837 L31.2489828,6.19235837 L31.2489828,1.11462451 L1.12652583,1.11462451 L1.12652583,6.19235837 Z M37.1894144,31.8921937 C39.4784024,30.2434783 40.9689789,27.5714756 40.9705413,24.5527009 C40.9689789,19.7304018 37.1691026,15.7967062 32.3755086,15.5072134 L32.3755086,0.557312253 C32.3755086,0.410243742 32.3145731,0.26627141 32.209889,0.164097497 C32.1052049,0.0588274045 31.9598971,0 31.8114645,0 L0.56248169,0 C0.415611471,0 0.270303701,0.0588274045 0.16405716,0.164097497 C0.0609355164,0.26627141 0,0.410243742 0,0.557312253 L0,29.9710145 C0,30.118083 0.0609355164,30.2620553 0.16405716,30.3642292 C0.270303701,30.4694993 0.415611471,30.5283267 0.56248169,30.5283267 L24.946063,30.5283267 C25.3929234,31.033004 25.8850949,31.4958827 26.435077,31.8921937 C20.1430943,34.0889328 15.6260538,40.0119236 15.6244914,47 L16.7510172,47 C16.7494548,40.0986166 21.4868006,34.3087615 27.9084665,32.6012187 C28.1334592,32.5423913 28.2959539,32.3550725 28.3225155,32.1275033 C28.3490772,31.8999341 28.2318935,31.6801054 28.0287751,31.5717391 C25.4991699,30.2295455 23.7789134,27.5916008 23.7804759,24.5527009 C23.7804759,22.3528656 24.6773217,20.3666667 26.1335243,18.9253953 C27.586602,17.4841238 29.5912242,16.5939723 31.8114645,16.5939723 C34.0317047,16.5939723 36.0363269,17.4841238 37.4909671,18.9253953 C38.9471697,20.3666667 39.8440155,22.3528656 39.8440155,24.5527009 C39.8455779,27.5916008 38.123759,30.2295455 35.5941538,31.5717391 C35.3910354,31.6801054 35.2738518,31.8999341 35.3019758,32.1275033 C35.326975,32.3550725 35.4910322,32.5423913 35.7144624,32.6012187 C42.1376908,34.3087615 46.8750366,40.0986166 46.8734742,47 L48,47 C47.9984376,40.0119236 43.4813971,34.0889328 37.1894144,31.8921937 Z" mask="url(#expertise-d)"/>
  </g>
</svg>
